DBRep_DrawableShape

CASCADE Topology V3, (c) Open Cascade
Locations 0
Curve2ds 24
1 36.5 1.1102230246251565e-16 -1.7347234759768071e-18 -1 
1 0 0 0 -1 
1 0 -0 1.7347234759768071e-18 -1 
1 30.5 0 0 -1 
1 18.25 -15.250000000000002 0 1 
1 0 0 1 0 
1 18.25 -15.250000000000002 0 1 
1 0 -5.3000000000000007 1 0 
1 0 -0 0 -1 
1 36.5 -1.1102230246251565e-16 1.7347234759768071e-18 -1 
1 18.25 15.249999999999998 -1 0 
1 0 -0 1 0 
1 18.25 15.249999999999998 -1 0 
1 -5.4123372450476381e-16 -5.3000000000000016 1 0 
1 0 0 -1.7347234759768071e-18 -1 
1 30.5 0 0 -1 
1 -18.250000000000004 15.249999999999998 0 -1 
1 0 -0 1 0 
1 -18.250000000000004 15.249999999999998 0 -1 
1 0 -5.3000000000000007 1 0 
1 -18.250000000000004 -15.250000000000002 1 0 
1 0 0 1 0 
1 -18.250000000000004 -15.250000000000002 1 0 
1 5.4123372450476381e-16 -5.3000000000000016 1 0 
Curves 12
1 -14.949999999999999 -0.13957762127340961 44.51224300373373 0 0.99992082337131771 0.012583599978784218 
1 15.550000000000001 -0.13957762127340961 44.51224300373373 0 0.99992082337131771 0.012583599978784218 
1 -14.949999999999999 -0.13957762127340961 44.51224300373373 1 0 0 
1 -14.949999999999999 5.1600027425945747 44.578936083621286 1 0 0 
1 15.550000000000001 0.31972377795221446 8.0151329506806341 0 0.99992082337131771 0.012583599978784218 
1 15.550000000000001 -0.13957762127340961 44.51224300373373 0 0.012583599978784221 -0.99992082337131782 
1 15.550000000000001 5.1600027425945747 44.578936083621286 0 0.012583599978784221 -0.99992082337131782 
1 -14.949999999999999 0.31972377795221446 8.0151329506806341 0 0.99992082337131771 0.012583599978784218 
1 15.550000000000001 0.31972377795221446 8.0151329506806341 -1 0 0 
1 15.550000000000001 5.6193041418201988 8.081826030568191 -1 0 0 
1 -14.949999999999999 0.31972377795221446 8.0151329506806341 0 -0.012583599978784221 0.99992082337131782 
1 -14.949999999999999 5.6193041418201988 8.081826030568191 0 -0.012583599978784221 0.99992082337131782 
Polygon3D 0
PolygonOnTriangulations 0
Surfaces 6
1 -14.949999999999999 -0.13957762127340961 44.51224300373373 0 0.012583599978784218 -0.99992082337131771 1 0 0 0 -0.99992082337131771 -0.012583599978784218 
1 -14.949999999999999 0.31972377795221446 8.0151329506806341 1 0 -0 0 -0.012583599978784221 0.99992082337131782 0 -0.99992082337131782 -0.012583599978784221 
1 15.550000000000001 -0.13957762127340961 44.51224300373373 -1 0 0 0 0.012583599978784221 -0.99992082337131782 -0 -0.99992082337131782 -0.012583599978784221 
1 0.30000000000000204 0.090073078339402424 26.263687977207184 0 0.99992082337131771 0.012583599978784221 0 -0.012583599978784221 0.99992082337131771 1 0 -0 
1 0.30000000000000204 5.3896534422073872 26.330381057094741 0 0.99992082337131771 0.012583599978784221 0 -0.012583599978784221 0.99992082337131771 1 0 -0 
1 15.550000000000001 0.31972377795221446 8.0151329506806341 0 -0.012583599978784218 0.99992082337131771 -1 0 0 -0 -0.99992082337131771 -0.012583599978784218 
Triangulations 0

TShapes 34
Ve
1e-07
-14.95 -0.13957762127341 44.5122430037337
0 0

0101101
*
Ve
1e-07
-14.95 5.16000274259457 44.5789360836213
0 0

0101101
*
Ed
 1e-07 1 1 0
1  1 0 0 5.3
2  1 2 0 0 5.3
2  2 1 0 0 5.3
0

0101000
+34 0 -33 0 *
Ve
1e-07
15.55 -0.13957762127341 44.5122430037337
0 0

0101101
*
Ve
1e-07
15.55 5.16000274259457 44.5789360836213
0 0

0101101
*
Ed
 1e-07 1 1 0
1  2 0 0 5.3
2  3 3 0 0 5.3
2  4 1 0 0 5.3
0

0101000
+31 0 -30 0 *
Ed
 1e-07 1 1 0
1  3 0 0 30.5
2  5 4 0 0 30.5
2  6 1 0 0 30.5
0

0101000
+34 0 -31 0 *
Ed
 1e-07 1 1 0
1  4 0 0 30.5
2  7 5 0 0 30.5
2  8 1 0 0 30.5
0

0101000
+33 0 -30 0 *
Wi

0101100
+32 0 -29 0 -28 0 +27 0 *
Fa
0  1e-07 1 0

0101000
+26 0 *
Ve
1e-07
15.55 0.319723777952214 8.01513295068063
0 0

0101101
*
Ve
1e-07
15.55 5.6193041418202 8.08182603056819
0 0

0101101
*
Ed
 1e-07 1 1 0
1  5 0 0 5.3
2  9 6 0 0 5.3
2  10 3 0 0 5.3
0

0101000
+24 0 -23 0 *
Ed
 1e-07 1 1 0
1  6 0 0 36.5
2  11 4 0 0 36.5
2  12 3 0 0 36.5
0

0101000
+31 0 -24 0 *
Ed
 1e-07 1 1 0
1  7 0 0 36.5
2  13 5 0 0 36.5
2  14 3 0 0 36.5
0

0101000
+30 0 -23 0 *
Wi

0101100
+29 0 -22 0 -21 0 +20 0 *
Fa
0  1e-07 3 0

0101000
+19 0 *
Ve
1e-07
-14.95 0.319723777952214 8.01513295068063
0 0

0101101
*
Ve
1e-07
-14.95 5.6193041418202 8.08182603056819
0 0

0101101
*
Ed
 1e-07 1 1 0
1  8 0 0 5.3
2  15 2 0 0 5.3
2  16 6 0 0 5.3
0

0101000
+17 0 -16 0 *
Ed
 1e-07 1 1 0
1  9 0 0 30.5
2  17 4 0 0 30.5
2  18 6 0 0 30.5
0

0101000
+24 0 -17 0 *
Ed
 1e-07 1 1 0
1  10 0 0 30.5
2  19 5 0 0 30.5
2  20 6 0 0 30.5
0

0101000
+23 0 -16 0 *
Wi

0101100
+22 0 -15 0 -14 0 +13 0 *
Fa
0  1e-07 6 0

0101000
+12 0 *
Ed
 1e-07 1 1 0
1  11 0 0 36.5
2  21 4 0 0 36.5
2  22 2 0 0 36.5
0

0101000
+17 0 -34 0 *
Ed
 1e-07 1 1 0
1  12 0 0 36.5
2  23 5 0 0 36.5
2  24 2 0 0 36.5
0

0101000
+16 0 -33 0 *
Wi

0101100
+15 0 -32 0 -10 0 +9 0 *
Fa
0  1e-07 2 0

0101000
+8 0 *
Wi

0101100
+28 0 +21 0 +14 0 +10 0 *
Fa
0  1e-07 4 0

0101000
+6 0 *
Wi

0101100
+27 0 +20 0 +13 0 +9 0 *
Fa
0  1e-07 5 0

0101000
+4 0 *
Sh

0101100
+25 0 +18 0 +11 0 +7 0 +5 0 -3 0 *
So

0100000
-2 0 *

+1 0 