DBRep_DrawableShape

CASCADE Topology V3, (c) Open Cascade
Locations 0
Curve2ds 32
1 0 0 0 -1 
1 7.6500000000000039 4.4408920985006262e-16 0 -1 
1 4.2000000000000028 0 0 -1 
1 0 0 0 -1 
1 3.8250000000000055 -2.100000000000005 0 1 
1 0 0 1 0 
1 3.8250000000000015 -2.0999999999999979 0 1 
1 3.8250000000000055 -2.100000000000005 0 1 
1 0 -4.7999999999999998 1 0 
1 7.6500000000000039 -4.4408920985006262e-16 0 -1 
1 0 0 0 -1 
1 3.8250000000000055 2.0999999999999979 -1 0 
1 0 0 1 0 
1 3.8250000000000015 2.100000000000005 -1 0 
1 3.8250000000000055 2.0999999999999979 -1 0 
1 1.3322676295501878e-15 -4.7999999999999998 1 0 
1 10.629999999999995 -15.919999999999996 -1 0 
1 10.630000000000003 -15.919999999999996 -1 0 
1 4.2000000000000028 0 0 -1 
1 0 0 0 -1 
1 -3.824999999999998 2.0999999999999979 -0 -1 
1 0 0 1 0 
1 -3.8250000000000015 2.100000000000005 -0 -1 
1 -3.824999999999998 2.0999999999999979 -0 -1 
1 0 -4.799999999999998 1 0 
1 2.9799999999999947 -15.919999999999996 -0 -1 
1 2.9800000000000018 -15.919999999999996 -0 -1 
1 -3.824999999999998 -2.100000000000005 1 0 
1 0 0 1 0 
1 -3.8250000000000015 -2.0999999999999979 1 0 
1 -3.824999999999998 -2.100000000000005 1 0 
1 2.2204460492503131e-15 -4.7999999999999989 1 0 
Curves 12
1 -20.120000000000001 0.22900382156197452 27.684258937898704 0 -0.9911434396119978 0.13279564041826891 
1 -15.919999999999998 0.22900382156197452 27.684258937898704 0 -0.9911434396119978 0.13279564041826891 
1 -20.120000000000001 0.22900382156197452 27.684258937898704 1 0 0 
1 -20.120000000000001 -4.528484688575614 28.321678011906396 1 0 0 
1 -15.919999999999998 1.2448904707617316 35.26650625093049 0 -0.9911434396119978 0.13279564041826891 
1 -15.919999999999998 0.22900382156197452 27.684258937898704 0 0.13279564041826891 0.9911434396119978 
1 -15.919999999999998 -4.528484688575614 28.321678011906396 0 0.13279564041826891 0.9911434396119978 
1 -20.120000000000001 1.2448904707617316 35.26650625093049 0 -0.9911434396119978 0.13279564041826891 
1 -15.919999999999998 1.2448904707617316 35.26650625093049 -1 0 0 
1 -15.919999999999998 -3.5125980393758569 35.903925324938179 -1 0 0 
1 -20.120000000000001 1.2448904707617316 35.26650625093049 0 -0.13279564041826891 -0.9911434396119978 
1 -20.120000000000001 -3.5125980393758569 35.903925324938179 0 -0.13279564041826891 -0.9911434396119978 
Polygon3D 0
PolygonOnTriangulations 0
Surfaces 9
1 -20.120000000000001 0.22900382156197452 27.684258937898704 -0 0.13279564041826891 0.9911434396119978 1 0 0 0 0.9911434396119978 -0.13279564041826891 
1 -20.120000000000001 1.2448904707617316 35.26650625093049 1 0 0 0 -0.13279564041826891 -0.9911434396119978 0 0.9911434396119978 -0.13279564041826891 
1 -15.919999999999998 0.22900382156197452 27.684258937898704 -1 0 0 0 0.13279564041826891 0.9911434396119978 0 0.9911434396119978 -0.13279564041826891 
1 -18.019999999999996 0.73694714616185308 31.475382594414601 -0 -0.9911434396119978 0.13279564041826888 0 -0.13279564041826888 -0.9911434396119978 1 0 0 
1 -18.020000000000003 0.7369471461618553 31.475382594414597 -0 -0.99114343961199769 0.13279564041826902 0 -0.13279564041826902 -0.99114343961199769 1 0 0 
1 -18.019999999999996 -4.0205413639757355 32.112801668422293 -0 -0.9911434396119978 0.13279564041826888 0 -0.13279564041826888 -0.9911434396119978 1 0 0 
1 -15.919999999999998 1.2448904707617316 35.26650625093049 -0 -0.13279564041826891 -0.9911434396119978 -1 0 0 0 0.9911434396119978 -0.13279564041826891 
1 -1.90252540179398e-15 -3.1168670309294146 38.857532774981927 -0 -0.9911434396119978 0.13279564041826891 0 -0.13279564041826891 -0.9911434396119978 1 0 0 
1 -1.491752871861189e-15 -3.1168670309294138 38.857532774981934 -0 -0.9911434396119978 0.13279564041826891 0 -0.13279564041826891 -0.9911434396119978 1 0 0 
Triangulations 0

TShapes 34
Ve
1.0000000288658e-07
-20.12 0.229003821561975 27.6842589378987
0 0

0101101
*
Ve
1.00000001776357e-07
-20.12 -4.52848468857561 28.3216780119064
0 0

0101101
*
Ed
 1e-07 1 1 0
1  1 0 0 4.8
2  1 1 0 0 4.8
2  2 2 0 0 4.8
0

0101000
+34 0 -33 0 *
Ve
1.00000002664535e-07
-15.92 0.229003821561975 27.6842589378987
0 0

0101101
*
Ve
1.00000001776357e-07
-15.92 -4.52848468857561 28.3216780119064
0 0

0101101
*
Ed
 1e-07 1 1 0
1  2 0 0 4.8
2  3 1 0 0 4.8
2  4 3 0 0 4.8
0

0101000
+31 0 -30 0 *
Ed
 1.00000001554312e-07 1 1 0
1  3 0 0 4.2
2  5 4 0 0 4.2
2  6 1 0 0 4.2
2  7 5 0 0 4.2
0

0101000
+34 0 -31 0 *
Ed
 1e-07 1 1 0
1  4 0 0 4.2
2  8 6 0 0 4.2
2  9 1 0 0 4.2
0

0101000
+33 0 -30 0 *
Wi

0101100
+32 0 -29 0 -28 0 +27 0 *
Fa
0  1e-07 1 0

0101000
+26 0 *
Ve
1.0000000288658e-07
-15.92 1.24489047076173 35.2665062509305
0 0

0101101
*
Ve
1.00000001776357e-07
-15.92 -3.51259803937586 35.9039253249382
0 0

0101101
*
Ed
 1e-07 1 1 0
1  5 0 0 4.8
2  10 3 0 0 4.8
2  11 7 0 0 4.8
0

0101000
+24 0 -23 0 *
Ed
 1.00000002664535e-07 1 1 0
1  6 0 0 7.65
2  12 4 0 0 7.65
2  13 3 0 0 7.65
2  14 5 0 0 7.65
0

0101000
+31 0 -24 0 *
Ed
 1.00000001776357e-07 1 1 0
1  7 0 0 7.65
2  15 6 0 0 7.65
2  16 3 0 0 7.65
2  17 8 0 0 7.65
2  18 9 0 0 7.65
0

0101000
+30 0 -23 0 *
Wi

0101100
+29 0 -22 0 -21 0 +20 0 *
Fa
0  1e-07 3 0

0101000
+19 0 *
Ve
1.0000000288658e-07
-20.12 1.24489047076173 35.2665062509305
0 0

0101101
*
Ve
1.00000002220446e-07
-20.12 -3.51259803937586 35.9039253249382
0 0

0101101
*
Ed
 1e-07 1 1 0
1  8 0 0 4.8
2  19 7 0 0 4.8
2  20 2 0 0 4.8
0

0101000
+17 0 -16 0 *
Ed
 1.0000000288658e-07 1 1 0
1  9 0 0 4.2
2  21 4 0 0 4.2
2  22 7 0 0 4.2
2  23 5 0 0 4.2
0

0101000
+24 0 -17 0 *
Ed
 1.00000001776357e-07 1 1 0
1  10 0 0 4.2
2  24 6 0 0 4.2
2  25 7 0 0 4.2
2  26 8 0 0 4.2
2  27 9 0 0 4.2
0

0101000
+23 0 -16 0 *
Wi

0101100
+22 0 -15 0 -14 0 +13 0 *
Fa
0  1e-07 7 0

0101000
+12 0 *
Ed
 1.0000000288658e-07 1 1 0
1  11 0 0 7.65
2  28 4 0 0 7.65
2  29 2 0 0 7.65
2  30 5 0 0 7.65
0

0101000
+17 0 -34 0 *
Ed
 1e-07 1 1 0
1  12 0 0 7.65
2  31 6 0 0 7.65
2  32 2 0 0 7.65
0

0101000
+16 0 -33 0 *
Wi

0101100
+15 0 -32 0 -10 0 +9 0 *
Fa
0  1e-07 2 0

0101000
+8 0 *
Wi

0101100
+28 0 +21 0 +14 0 +10 0 *
Fa
0  1e-07 4 0

0101000
+6 0 *
Wi

0101100
+27 0 +20 0 +13 0 +9 0 *
Fa
0  1e-07 6 0

0101000
+4 0 *
Sh

0101100
+25 0 +18 0 +11 0 +7 0 +5 0 -3 0 *
So

0100000
-2 0 *

+1 0 