DBRep_DrawableShape

CASCADE Topology V3, (c) Open Cascade
Locations 0
Curve2ds 7
1 0 0 0 -1 
1 6.2831853071795862 0 0 -1 
1 0 0 1 0 
2 0 1.90252540179398e-15 0 1 -1 0 23
1 0 -5.8000000000000016 1 0 
2 0 1.90252540179398e-15 0 1 -1 0 23
2 0 1.7875034412280041e-15 0 1 -1 0 23
Curves 3
1 23 -3.1168670309294146 38.857532774981927 0 -0.99114343961199769 0.13279564041826888 
2 0 -3.1168670309294146 38.857532774981927 0 -0.9911434396119978 0.13279564041826891 1 0 0 0 0.13279564041826891 0.9911434396119978 23
2 0 -8.8654989806790034 39.627747489407888 0 -0.9911434396119978 0.13279564041826891 1 0 0 0 0.13279564041826891 0.9911434396119978 23
Polygon3D 0
PolygonOnTriangulations 0
Surfaces 4
2 0 -3.1168670309294146 38.857532774981927 -0 0.9911434396119978 -0.13279564041826891 1 0 0 0 0.13279564041826891 0.9911434396119978 23
1 -1.90252540179398e-15 -3.1168670309294146 38.857532774981927 -0 -0.9911434396119978 0.13279564041826891 0 -0.13279564041826891 -0.9911434396119978 1 0 0 
1 -1.90252540179398e-15 -8.8654989806790034 39.627747489407888 -0 -0.9911434396119978 0.13279564041826891 0 -0.13279564041826891 -0.9911434396119978 1 0 0 
1 -1.7875034412280041e-15 -8.8654989806790052 39.627747489407888 -0 -0.9911434396119978 0.13279564041826897 0 -0.13279564041826897 -0.9911434396119978 1 0 0 
Triangulations 0

TShapes 13
Ve
1e-07
23 -3.11686703092941 38.8575327749819
0 0

0101101
*
Ve
1.00000003552714e-07
23 -8.865498980679 39.6277474894079
0 0

0101101
*
Ed
 1e-07 1 1 0
1  1 0 0 5.8
3  1 2CN 1 0 0 5.8
0

0101000
+13 0 -12 0 *
Ed
 1e-07 1 1 0
1  2 0 0 6.28318530717959
2  3 1 0 0 6.28318530717959
2  4 2 0 0 6.28318530717959
0

0101000
+13 0 -13 0 *
Ed
 1.00000003552714e-07 1 1 0
1  3 0 0 6.28318530717959
2  5 1 0 0 6.28318530717959
2  6 3 0 0 6.28318530717959
2  7 4 0 0 6.28318530717959
0

0101000
+12 0 -12 0 *
Wi

0101100
+11 0 -11 0 -10 0 +9 0 *
Fa
0  1e-07 1 0

0101000
+8 0 *
Wi

0101100
+10 0 *
Fa
0  1e-07 2 0

0101000
+6 0 *
Wi

0101100
+9 0 *
Fa
0  1e-07 3 0

0101000
+4 0 *
Sh

0101100
+7 0 +5 0 -3 0 *
So

0100000
-2 0 *

+1 0 