DBRep_DrawableShape

CASCADE Topology V3, (c) Open Cascade
Locations 0
Curve2ds 12
1 0 0 2.7755575615628907e-17 -1 
1 4.1250000000000027 -2.9000000000000021 0 1 
1 4.1250000000000027 -2.9000000000000021 0 1 
1 8.2500000000000053 0 2.7755575615628907e-17 -1 
1 4.1250000000000027 2.9000000000000021 -1 0 
1 0 0 1 0 
1 4.1250000000000027 2.9000000000000021 -1 0 
1 -1.6653345369377348e-15 -2.3000000000000007 1 0 
1 -4.1250000000000027 2.9000000000000021 -0 -1 
1 -4.1250000000000027 2.9000000000000021 -0 -1 
1 -4.1250000000000027 -2.9000000000000021 1 0 
1 -4.1250000000000027 -2.9000000000000021 1 0 
Curves 12
1 -20.920000000000002 4.2349770581070683 40.263693679892661 0 -0.99114343961199769 0.13279564041826891 
1 -15.119999999999997 4.2349770581070683 40.263693679892661 0 -0.99114343961199769 0.13279564041826891 
1 -20.920000000000002 4.2349770581070683 40.263693679892661 1 0 0 
1 -20.920000000000002 1.9553471469994728 40.569123652854678 1 0 0 
1 -15.119999999999997 5.3305410915577873 48.440627056691646 0 -0.99114343961199769 0.13279564041826891 
1 -15.119999999999997 4.2349770581070683 40.263693679892661 0 0.13279564041826891 0.9911434396119978 
1 -15.119999999999997 1.9553471469994728 40.569123652854678 0 0.13279564041826891 0.9911434396119978 
1 -20.920000000000002 5.3305410915577873 48.440627056691646 0 -0.99114343961199769 0.13279564041826891 
1 -15.119999999999997 5.3305410915577873 48.440627056691646 -1 0 0 
1 -15.119999999999997 3.0509111804501918 48.746057029653663 -1 0 0 
1 -20.920000000000002 5.3305410915577873 48.440627056691646 0 -0.13279564041826891 -0.9911434396119978 
1 -20.920000000000002 3.0509111804501918 48.746057029653663 0 -0.13279564041826891 -0.9911434396119978 
Polygon3D 0
PolygonOnTriangulations 0
Surfaces 6
1 -20.920000000000002 4.2349770581070683 40.263693679892661 -0 0.13279564041826894 0.9911434396119978 1 0 0 0 0.9911434396119978 -0.13279564041826894 
1 -15.119999999999997 4.2349770581070683 40.263693679892661 -1 0 0 0 0.13279564041826891 0.9911434396119978 0 0.9911434396119978 -0.13279564041826891 
1 -18.02 4.7827590748324269 44.352160368292154 -0 -0.9911434396119978 0.13279564041826897 0 -0.13279564041826897 -0.9911434396119978 1 0 0 
1 -18.02 2.5031291637248314 44.657590341254171 -0 -0.9911434396119978 0.13279564041826897 0 -0.13279564041826897 -0.9911434396119978 1 0 0 
1 -15.119999999999997 5.3305410915577873 48.440627056691646 -0 -0.13279564041826894 -0.9911434396119978 -1 0 0 0 0.9911434396119978 -0.13279564041826894 
1 -20.920000000000002 5.3305410915577873 48.440627056691646 1 0 0 0 -0.13279564041826891 -0.9911434396119978 0 0.9911434396119978 -0.13279564041826891 
Triangulations 0

TShapes 34
Ve
1e-07
-20.92 4.23497705810707 40.2636936798927
0 0

0101101
*
Ve
1e-07
-20.92 1.95534714699947 40.5691236528547
0 0

0101101
*
Ed
 1e-07 1 1 0
1  1 0 0 2.3
0

0101000
+34 0 -33 0 *
Ve
1e-07
-15.12 4.23497705810707 40.2636936798927
0 0

0101101
*
Ve
1e-07
-15.12 1.95534714699947 40.5691236528547
0 0

0101101
*
Ed
 1e-07 1 1 0
1  2 0 0 2.3
2  1 2 0 0 2.3
0

0101000
+31 0 -30 0 *
Ed
 1e-07 1 1 0
1  3 0 0 5.8
2  2 3 0 0 5.8
0

0101000
+34 0 -31 0 *
Ed
 1e-07 1 1 0
1  4 0 0 5.8
2  3 4 0 0 5.8
0

0101000
+33 0 -30 0 *
Wi

0101100
+32 0 -29 0 -28 0 +27 0 *
Fa
0  1e-07 1 0

0101000
+26 0 *
Ve
1e-07
-15.12 5.33054109155779 48.4406270566916
0 0

0101101
*
Ve
1e-07
-15.12 3.05091118045019 48.7460570296537
0 0

0101101
*
Ed
 1e-07 1 1 0
1  5 0 0 2.3
2  4 2 0 0 2.3
0

0101000
+24 0 -23 0 *
Ed
 1e-07 1 1 0
1  6 0 0 8.25
2  5 3 0 0 8.25
2  6 2 0 0 8.25
0

0101000
+31 0 -24 0 *
Ed
 1e-07 1 1 0
1  7 0 0 8.25
2  7 4 0 0 8.25
2  8 2 0 0 8.25
0

0101000
+30 0 -23 0 *
Wi

0101100
+29 0 -22 0 -21 0 +20 0 *
Fa
0  1e-07 2 0

0101000
+19 0 *
Ve
1e-07
-20.92 5.33054109155779 48.4406270566916
0 0

0101101
*
Ve
1e-07
-20.92 3.05091118045019 48.7460570296537
0 0

0101101
*
Ed
 1e-07 1 1 0
1  8 0 0 2.3
0

0101000
+17 0 -16 0 *
Ed
 1e-07 1 1 0
1  9 0 0 5.8
2  9 3 0 0 5.8
0

0101000
+24 0 -17 0 *
Ed
 1e-07 1 1 0
1  10 0 0 5.8
2  10 4 0 0 5.8
0

0101000
+23 0 -16 0 *
Wi

0101100
+22 0 -15 0 -14 0 +13 0 *
Fa
0  1e-07 5 0

0101000
+12 0 *
Ed
 1e-07 1 1 0
1  11 0 0 8.25
2  11 3 0 0 8.25
0

0101000
+17 0 -34 0 *
Ed
 1e-07 1 1 0
1  12 0 0 8.25
2  12 4 0 0 8.25
0

0101000
+16 0 -33 0 *
Wi

0101100
+15 0 -32 0 -10 0 +9 0 *
Fa
0  1e-07 6 0

0101000
+8 0 *
Wi

0101100
+28 0 +21 0 +14 0 +10 0 *
Fa
0  1e-07 3 0

0101000
+6 0 *
Wi

0101100
+27 0 +20 0 +13 0 +9 0 *
Fa
0  1e-07 4 0

0101000
+4 0 *
Sh

0101100
+25 0 +18 0 +11 0 +7 0 +5 0 -3 0 *
So

0100000
-2 0 *

+1 0 