DBRep_DrawableShape

CASCADE Topology V3, (c) Open Cascade
Locations 0
Curve2ds 26
1 7.5000000000000018 -1.1102230246251565e-16 0 -1 
1 0 0 0 -1 
1 0 0 0 -1 
1 8.9399999999999995 0 0 -1 
1 3.75 -4.4699999999999998 0 1 
1 0 0 1 0 
1 -1.6299999999999983 4.4699999999999998 0 -1 
1 3.75 -4.4699999999999998 0 1 
1 0 -3.2599999999999993 1 0 
1 1.630000000000001 4.4699999999999998 0 -1 
1 7.5000000000000018 1.1102230246251565e-16 0 -1 
1 0 0 0 -1 
1 3.75 4.4699999999999998 -1 0 
1 0 0 1 0 
1 3.75 4.4699999999999998 -1 0 
1 1.6653345369377348e-16 -3.2599999999999993 1 0 
1 0 0 0 -1 
1 8.9399999999999995 0 0 -1 
1 -3.7500000000000018 4.4699999999999998 -0 -1 
1 0 0 1 0 
1 -3.7500000000000018 4.4699999999999998 -0 -1 
1 0 -3.2599999999999993 1 0 
1 -3.7500000000000018 -4.4699999999999998 1 0 
1 0 0 1 0 
1 -3.7500000000000018 -4.4699999999999998 1 0 
1 -1.6653345369377348e-16 -3.2599999999999993 1 0 
Curves 12
1 -4.4699999999999998 -3.0264527909568639 14.832749211644463 0 -0.9911434396119978 0.13279564041826891 
1 4.4699999999999998 -3.0264527909568639 14.832749211644463 0 -0.9911434396119978 0.13279564041826891 
1 -4.4699999999999998 -3.0264527909568639 14.832749211644463 1 0 0 
1 -4.4699999999999998 -6.2575804040919758 15.26566299940802 1 0 0 
1 4.4699999999999998 -2.0304854878198468 22.266325008734448 0 -0.9911434396119978 0.13279564041826891 
1 4.4699999999999998 -3.0264527909568639 14.832749211644463 0 0.13279564041826891 0.9911434396119978 
1 4.4699999999999998 -6.2575804040919758 15.26566299940802 0 0.13279564041826891 0.9911434396119978 
1 -4.4699999999999998 -2.0304854878198468 22.266325008734448 0 -0.9911434396119978 0.13279564041826891 
1 4.4699999999999998 -2.0304854878198468 22.266325008734448 -1 0 0 
1 4.4699999999999998 -5.2616131009549587 22.699238796498005 -1 0 0 
1 -4.4699999999999998 -2.0304854878198468 22.266325008734448 0 -0.13279564041826891 -0.9911434396119978 
1 -4.4699999999999998 -5.2616131009549587 22.699238796498005 0 -0.13279564041826891 -0.9911434396119978 
Polygon3D 0
PolygonOnTriangulations 0
Surfaces 7
1 -4.4699999999999998 -3.0264527909568639 14.832749211644463 -0 0.13279564041826891 0.9911434396119978 1 0 0 0 0.9911434396119978 -0.13279564041826891 
1 -4.4699999999999998 -2.0304854878198468 22.266325008734448 1 0 0 0 -0.13279564041826891 -0.9911434396119978 0 0.9911434396119978 -0.13279564041826891 
1 4.4699999999999998 -3.0264527909568639 14.832749211644463 -1 0 0 0 0.13279564041826891 0.9911434396119978 0 0.9911434396119978 -0.13279564041826891 
1 0 -2.5284691393883558 18.549537110189455 -0 -0.9911434396119978 0.13279564041826897 0 -0.13279564041826897 -0.9911434396119978 1 0 0 
1 -2.7930138984280668e-17 -4.6420165975244192 15.049206105526238 -0 -0.13279564041826897 -0.99114343961199769 0 -0.99114343961199769 0.13279564041826897 -1 0 0 
1 0 -5.7595967525234677 18.982450897953012 -0 -0.9911434396119978 0.13279564041826897 0 -0.13279564041826897 -0.9911434396119978 1 0 0 
1 4.4699999999999998 -2.0304854878198468 22.266325008734448 -0 -0.13279564041826891 -0.9911434396119978 -1 0 0 0 0.9911434396119978 -0.13279564041826891 
Triangulations 0

TShapes 34
Ve
1.00000003662053e-07
-4.47 -3.02645279095686 14.8327492116445
0 0

0101101
*
Ve
1.00000003662053e-07
-4.47 -6.25758040409198 15.265662999408
0 0

0101101
*
Ed
 1e-07 1 1 0
1  1 0 0 3.26
2  1 2 0 0 3.26
2  2 1 0 0 3.26
0

0101000
+34 0 -33 0 *
Ve
1.00000003662053e-07
4.47 -3.02645279095686 14.8327492116445
0 0

0101101
*
Ve
1.00000003662053e-07
4.47 -6.25758040409198 15.265662999408
0 0

0101101
*
Ed
 1e-07 1 1 0
1  2 0 0 3.26
2  3 3 0 0 3.26
2  4 1 0 0 3.26
0

0101000
+31 0 -30 0 *
Ed
 1.00000003580362e-07 1 1 0
1  3 0 0 8.94
2  5 4 0 0 8.94
2  6 1 0 0 8.94
2  7 5 0 0 8.94
0

0101000
+34 0 -31 0 *
Ed
 1.00000003662053e-07 1 1 0
1  4 0 0 8.94
2  8 6 0 0 8.94
2  9 1 0 0 8.94
2  10 5 0 0 8.94
0

0101000
+33 0 -30 0 *
Wi

0101100
+32 0 -29 0 -28 0 +27 0 *
Fa
0  1e-07 1 0

0101000
+26 0 *
Ve
1e-07
4.47 -2.03048548781985 22.2663250087344
0 0

0101101
*
Ve
1e-07
4.47 -5.26161310095496 22.699238796498
0 0

0101101
*
Ed
 1e-07 1 1 0
1  5 0 0 3.26
2  11 3 0 0 3.26
2  12 7 0 0 3.26
0

0101000
+24 0 -23 0 *
Ed
 1e-07 1 1 0
1  6 0 0 7.5
2  13 4 0 0 7.5
2  14 3 0 0 7.5
0

0101000
+31 0 -24 0 *
Ed
 1e-07 1 1 0
1  7 0 0 7.5
2  15 6 0 0 7.5
2  16 3 0 0 7.5
0

0101000
+30 0 -23 0 *
Wi

0101100
+29 0 -22 0 -21 0 +20 0 *
Fa
0  1e-07 3 0

0101000
+19 0 *
Ve
1e-07
-4.47 -2.03048548781985 22.2663250087344
0 0

0101101
*
Ve
1e-07
-4.47 -5.26161310095496 22.699238796498
0 0

0101101
*
Ed
 1e-07 1 1 0
1  8 0 0 3.26
2  17 2 0 0 3.26
2  18 7 0 0 3.26
0

0101000
+17 0 -16 0 *
Ed
 1e-07 1 1 0
1  9 0 0 8.94
2  19 4 0 0 8.94
2  20 7 0 0 8.94
0

0101000
+24 0 -17 0 *
Ed
 1e-07 1 1 0
1  10 0 0 8.94
2  21 6 0 0 8.94
2  22 7 0 0 8.94
0

0101000
+23 0 -16 0 *
Wi

0101100
+22 0 -15 0 -14 0 +13 0 *
Fa
0  1e-07 7 0

0101000
+12 0 *
Ed
 1e-07 1 1 0
1  11 0 0 7.5
2  23 4 0 0 7.5
2  24 2 0 0 7.5
0

0101000
+17 0 -34 0 *
Ed
 1e-07 1 1 0
1  12 0 0 7.5
2  25 6 0 0 7.5
2  26 2 0 0 7.5
0

0101000
+16 0 -33 0 *
Wi

0101100
+15 0 -32 0 -10 0 +9 0 *
Fa
0  1e-07 2 0

0101000
+8 0 *
Wi

0101100
+28 0 +21 0 +14 0 +10 0 *
Fa
0  1e-07 4 0

0101000
+6 0 *
Wi

0101100
+27 0 +20 0 +13 0 +9 0 *
Fa
0  1e-07 6 0

0101000
+4 0 *
Sh

0101100
+25 0 +18 0 +11 0 +7 0 +5 0 -3 0 *
So

0100000
-2 0 *

+1 0 