DBRep_DrawableShape

CASCADE Topology V3, (c) Open Cascade
Locations 0
Curve2ds 24
1 3.1415926535897931 0 0 -1 
1 0 0 0 -1 
1 0 0 0 -1 
1 5.4000000000000004 0 0 -1 
1 -3.5 2.7000000000000002 0 -1 
1 0 0 1 0 
1 -3.5 2.7000000000000002 0 -1 
1 0 -40 1 0 
1 3.1415926535897931 0 0 -1 
1 0 -0 0 -1 
1 0 0 1 0 
2 0 -2.7000000000000002 -1 0 -0 -1 3.5000000000000004
1 0 -40 1 0 
2 0 -2.7000000000000002 -1 0 -0 -1 3.5000000000000004
1 0 0 0 -1 
1 5.4000000000000004 0 0 -1 
1 3.5 -2.7000000000000002 0 1 
1 0 -0 1 0 
1 3.5 -2.7000000000000002 0 1 
1 0 -40 1 0 
1 0 0 1 0 
2 0 2.7000000000000002 1 0 -0 1 3.5000000000000004
1 0 -40 1 0 
2 0 2.7000000000000002 1 0 -0 1 3.5000000000000004
Curves 12
1 -2.7000000000000002 -6.4848401756131828 -25.061316220417613 0 0.13279564041826891 0.9911434396119978 
1 2.7000000000000002 -6.4848401756131828 -25.061316220417613 0 0.13279564041826891 0.9911434396119978 
1 -2.7000000000000002 -6.4848401756131828 -25.061316220417613 1 0 0 
1 -2.7000000000000002 -1.1730145588824268 14.584421364062297 1 0 0 
1 2.7000000000000002 -13.422844252897168 -24.131746737489731 0 0.13279564041826891 0.9911434396119978 
2 2.7000000000000002 -9.9538422142551752 -24.596531478953672 0 -0.13279564041826891 -0.9911434396119978 0 0.9911434396119978 -0.13279564041826891 1 0 0 3.5
2 2.7000000000000002 -4.6420165975244192 15.049206105526238 0 -0.13279564041826891 -0.9911434396119978 0 0.9911434396119978 -0.13279564041826891 1 0 0 3.5
1 -2.7000000000000002 -13.422844252897168 -24.131746737489731 0 0.13279564041826891 0.9911434396119978 
1 2.7000000000000002 -13.422844252897168 -24.131746737489731 -1 0 0 
1 2.7000000000000002 -8.1110186361664116 15.513990846990179 -1 0 0 
2 -2.7000000000000002 -9.9538422142551752 -24.596531478953672 0 -0.13279564041826891 -0.9911434396119978 0 -0.9911434396119978 0.13279564041826891 -1 -0 0 3.5
2 -2.7000000000000002 -4.6420165975244192 15.049206105526238 0 -0.13279564041826891 -0.9911434396119978 0 -0.9911434396119978 0.13279564041826891 -1 -0 0 3.5
Polygon3D 0
PolygonOnTriangulations 0
Surfaces 6
1 -2.7000000000000002 -6.4848401756131828 -25.061316220417613 0 0.9911434396119978 -0.13279564041826891 1 0 0 0 -0.13279564041826891 -0.9911434396119978 
2 -2.7000000000000002 -9.9538422142551752 -24.596531478953672 0 -0.13279564041826891 -0.9911434396119978 0 -0.9911434396119978 0.13279564041826891 -1 -0 0 3.5
2 2.7000000000000002 -9.9538422142551752 -24.596531478953672 0 -0.13279564041826891 -0.9911434396119978 0 0.9911434396119978 -0.13279564041826891 1 0 0 3.5
1 -2.7930138984280668e-17 -9.9538422142551752 -24.596531478953672 -0 -0.13279564041826897 -0.99114343961199769 0 -0.99114343961199769 0.13279564041826897 -1 0 0 
1 -2.7930138984280668e-17 -4.6420165975244192 15.049206105526238 -0 -0.13279564041826897 -0.99114343961199769 0 -0.99114343961199769 0.13279564041826897 -1 0 0 
1 2.7000000000000002 -13.422844252897168 -24.131746737489731 0 -0.9911434396119978 0.13279564041826891 -1 0 0 -0 -0.13279564041826891 -0.9911434396119978 
Triangulations 0

TShapes 34
Ve
1.00000000222045e-07
-2.7 -6.48484017561318 -25.0613162204176
0 0

0101101
*
Ve
1.00000000222045e-07
-2.7 -1.17301455888243 14.5844213640623
0 0

0101101
*
Ed
 1.00000000222045e-07 1 1 0
1  1 0 0 40
2  1 2 0 0 40
4 G1 1 0 2 0
2  2 1 0 0 40
0

0101000
+34 0 -33 0 *
Ve
1e-07
2.7 -6.48484017561318 -25.0613162204176
0 0

0101101
*
Ve
1e-07
2.7 -1.17301455888243 14.5844213640623
0 0

0101101
*
Ed
 1e-07 1 1 0
1  2 0 0 40
2  3 3 0 0 40
4 G1 1 0 3 0
2  4 1 0 0 40
0

0101000
+31 0 -30 0 *
Ed
 1e-07 1 1 0
1  3 0 0 5.4
2  5 4 0 0 5.4
2  6 1 0 0 5.4
0

0101000
+34 0 -31 0 *
Ed
 1e-07 1 1 0
1  4 0 0 5.4
2  7 5 0 0 5.4
2  8 1 0 0 5.4
0

0101000
+33 0 -30 0 *
Wi

0101100
+32 0 -29 0 -28 0 +27 0 *
Fa
0  1e-07 1 0

0101000
+26 0 *
Ve
1.00000000222045e-07
2.7 -13.4228442528972 -24.1317467374897
0 0

0101101
*
Ve
1.00000000222045e-07
2.7 -8.11101863616641 15.5139908469902
0 0

0101101
*
Ed
 1.00000000222045e-07 1 1 0
1  5 0 0 40
2  9 3 0 0 40
4 G1 3 0 6 0
2  10 6 0 0 40
0

0101000
+24 0 -23 0 *
Ed
 1e-07 1 1 0
1  6 0 0 3.14159265358979
2  11 3 0 0 3.14159265358979
2  12 4 0 0 3.14159265358979
0

0101000
+31 0 -24 0 *
Ed
 1e-07 1 1 0
1  7 0 0 3.14159265358979
2  13 3 0 0 3.14159265358979
2  14 5 0 0 3.14159265358979
0

0101000
+30 0 -23 0 *
Wi

0101100
+29 0 -22 0 -21 0 +20 0 *
Fa
0  1e-07 3 0

0101000
+19 0 *
Ve
1e-07
-2.7 -13.4228442528972 -24.1317467374897
0 0

0101101
*
Ve
1e-07
-2.7 -8.11101863616641 15.5139908469902
0 0

0101101
*
Ed
 1e-07 1 1 0
1  8 0 0 40
2  15 2 0 0 40
4 G1 6 0 2 0
2  16 6 0 0 40
0

0101000
+17 0 -16 0 *
Ed
 1e-07 1 1 0
1  9 0 0 5.4
2  17 4 0 0 5.4
2  18 6 0 0 5.4
0

0101000
+24 0 -17 0 *
Ed
 1e-07 1 1 0
1  10 0 0 5.4
2  19 5 0 0 5.4
2  20 6 0 0 5.4
0

0101000
+23 0 -16 0 *
Wi

0101100
+22 0 -15 0 -14 0 +13 0 *
Fa
0  1e-07 6 0

0101000
+12 0 *
Ed
 1e-07 1 1 0
1  11 0 0 3.14159265358979
2  21 2 0 0 3.14159265358979
2  22 4 0 0 3.14159265358979
0

0101000
+17 0 -34 0 *
Ed
 1e-07 1 1 0
1  12 0 0 3.14159265358979
2  23 2 0 0 3.14159265358979
2  24 5 0 0 3.14159265358979
0

0101000
+16 0 -33 0 *
Wi

0101100
+15 0 -32 0 -10 0 +9 0 *
Fa
0  1e-07 2 0

0101000
+8 0 *
Wi

0101100
+28 0 +21 0 +14 0 +10 0 *
Fa
0  1e-07 4 0

0101000
+6 0 *
Wi

0101100
+27 0 +20 0 +13 0 +9 0 *
Fa
0  1e-07 5 0

0101000
+4 0 *
Sh

0101100
+25 0 +18 0 +11 0 +7 0 +5 0 -3 0 *
So

0100000
+2 0 *

+1 0 