DBRep_DrawableShape

CASCADE Topology V3, (c) Open Cascade
Locations 0
Curve2ds 24
1 0 0 0 -1 
1 4.0000000000000062 9.9920072216264089e-16 0 -1 
1 4 0 0 -1 
1 0 0 0 -1 
1 2.0000000000000031 -1.9999999999999964 0 1 
1 0 0 1 0 
1 2.0000000000000031 -1.9999999999999964 0 1 
1 0 -2.0000000000000004 1 0 
1 0 0 0 -1 
1 4.0000000000000062 -9.9920072216264089e-16 0 -1 
1 2.0000000000000031 2.0000000000000036 -1 0 
1 0 0 1 0 
1 2.0000000000000031 2.0000000000000036 -1 0 
1 7.7715611723760958e-16 -2.0000000000000004 1 0 
1 4 0 0 -1 
1 0 0 0 -1 
1 -2.0000000000000031 2.0000000000000036 -0 -1 
1 0 0 1 0 
1 -2.0000000000000031 2.0000000000000036 -0 -1 
1 0 -2.0000000000000004 1 0 
1 -2.0000000000000031 -1.9999999999999964 1 0 
1 0 0 1 0 
1 -2.0000000000000031 -1.9999999999999964 1 0 
1 -7.7715611723760958e-16 -2.0000000000000004 1 0 
Curves 12
1 9.5859684926560291 1.0251165634602026 53.958178099208396 0 -0.9911434396119978 0.13279564041826891 
1 13.585968492656029 1.0251165634602026 53.958178099208396 0 -0.9911434396119978 0.13279564041826891 
1 9.5859684926560291 1.0251165634602026 53.958178099208396 1 0 0 
1 9.5859684926560291 -0.95717031576379297 54.223769380044935 1 0 0 
1 13.585968492656029 1.5562991251332781 57.922751857656394 0 -0.9911434396119978 0.13279564041826891 
1 13.585968492656029 1.0251165634602026 53.958178099208396 0 0.13279564041826891 0.9911434396119978 
1 13.585968492656029 -0.95717031576379297 54.223769380044935 0 0.13279564041826891 0.9911434396119978 
1 9.5859684926560291 1.5562991251332781 57.922751857656394 0 -0.9911434396119978 0.13279564041826891 
1 13.585968492656029 1.5562991251332781 57.922751857656394 -1 0 0 
1 13.585968492656029 -0.42598775409071754 58.188343138492932 -1 0 0 
1 9.5859684926560291 1.5562991251332781 57.922751857656394 0 -0.13279564041826891 -0.9911434396119978 
1 9.5859684926560291 -0.42598775409071754 58.188343138492932 0 -0.13279564041826891 -0.9911434396119978 
Polygon3D 0
PolygonOnTriangulations 0
Surfaces 6
1 9.5859684926560291 1.0251165634602026 53.958178099208396 -0 0.13279564041826891 0.9911434396119978 1 0 0 0 0.9911434396119978 -0.13279564041826891 
1 9.5859684926560291 1.5562991251332781 57.922751857656394 1 0 0 0 -0.13279564041826891 -0.9911434396119978 0 0.9911434396119978 -0.13279564041826891 
1 13.585968492656029 1.0251165634602026 53.958178099208396 -1 0 0 0 0.13279564041826891 0.9911434396119978 0 0.9911434396119978 -0.13279564041826891 
1 11.585968492656026 1.2907078442967401 55.940464978432395 -0 -0.9911434396119978 0.13279564041826869 0 -0.13279564041826869 -0.9911434396119978 1 0 0 
1 11.585968492656026 -0.69157903492725548 56.206056259268934 -0 -0.9911434396119978 0.13279564041826869 0 -0.13279564041826869 -0.9911434396119978 1 0 0 
1 13.585968492656029 1.5562991251332781 57.922751857656394 -0 -0.13279564041826891 -0.9911434396119978 -1 0 0 0 0.9911434396119978 -0.13279564041826891 
Triangulations 0

TShapes 34
Ve
1e-07
9.58596849265603 1.0251165634602 53.9581780992084
0 0

0101101
*
Ve
1e-07
9.58596849265603 -0.957170315763793 54.2237693800449
0 0

0101101
*
Ed
 1e-07 1 1 0
1  1 0 0 2
2  1 1 0 0 2
2  2 2 0 0 2
0

0101000
+34 0 -33 0 *
Ve
1e-07
13.585968492656 1.0251165634602 53.9581780992084
0 0

0101101
*
Ve
1e-07
13.585968492656 -0.957170315763793 54.2237693800449
0 0

0101101
*
Ed
 1e-07 1 1 0
1  2 0 0 2
2  3 1 0 0 2
2  4 3 0 0 2
0

0101000
+31 0 -30 0 *
Ed
 1e-07 1 1 0
1  3 0 0 4
2  5 4 0 0 4
2  6 1 0 0 4
0

0101000
+34 0 -31 0 *
Ed
 1e-07 1 1 0
1  4 0 0 4
2  7 5 0 0 4
2  8 1 0 0 4
0

0101000
+33 0 -30 0 *
Wi

0101100
+32 0 -29 0 -28 0 +27 0 *
Fa
0  1e-07 1 0

0101000
+26 0 *
Ve
1e-07
13.585968492656 1.55629912513328 57.9227518576564
0 0

0101101
*
Ve
1e-07
13.585968492656 -0.425987754090718 58.1883431384929
0 0

0101101
*
Ed
 1e-07 1 1 0
1  5 0 0 2
2  9 6 0 0 2
2  10 3 0 0 2
0

0101000
+24 0 -23 0 *
Ed
 1e-07 1 1 0
1  6 0 0 4
2  11 4 0 0 4
2  12 3 0 0 4
0

0101000
+31 0 -24 0 *
Ed
 1e-07 1 1 0
1  7 0 0 4
2  13 5 0 0 4
2  14 3 0 0 4
0

0101000
+30 0 -23 0 *
Wi

0101100
+29 0 -22 0 -21 0 +20 0 *
Fa
0  1e-07 3 0

0101000
+19 0 *
Ve
1e-07
9.58596849265603 1.55629912513328 57.9227518576564
0 0

0101101
*
Ve
1e-07
9.58596849265603 -0.425987754090718 58.1883431384929
0 0

0101101
*
Ed
 1e-07 1 1 0
1  8 0 0 2
2  15 6 0 0 2
2  16 2 0 0 2
0

0101000
+17 0 -16 0 *
Ed
 1e-07 1 1 0
1  9 0 0 4
2  17 4 0 0 4
2  18 6 0 0 4
0

0101000
+24 0 -17 0 *
Ed
 1e-07 1 1 0
1  10 0 0 4
2  19 5 0 0 4
2  20 6 0 0 4
0

0101000
+23 0 -16 0 *
Wi

0101100
+22 0 -15 0 -14 0 +13 0 *
Fa
0  1e-07 6 0

0101000
+12 0 *
Ed
 1e-07 1 1 0
1  11 0 0 4
2  21 4 0 0 4
2  22 2 0 0 4
0

0101000
+17 0 -34 0 *
Ed
 1e-07 1 1 0
1  12 0 0 4
2  23 5 0 0 4
2  24 2 0 0 4
0

0101000
+16 0 -33 0 *
Wi

0101100
+15 0 -32 0 -10 0 +9 0 *
Fa
0  1e-07 2 0

0101000
+8 0 *
Wi

0101100
+28 0 +21 0 +14 0 +10 0 *
Fa
0  1e-07 4 0

0101000
+6 0 *
Wi

0101100
+27 0 +20 0 +13 0 +9 0 *
Fa
0  1e-07 5 0

0101000
+4 0 *
Sh

0101100
+25 0 +18 0 +11 0 +7 0 +5 0 -3 0 *
So

0100000
-2 0 *

+1 0 