DBRep_DrawableShape

CASCADE Topology V3, (c) Open Cascade
Locations 0
Curve2ds 32
1 0 0 0 -1 
1 7.6500000000000039 4.4408920985006262e-16 0 -1 
1 4.2000000000000028 0 0 -1 
1 0 0 0 -1 
1 3.825000000000002 -2.100000000000005 0 1 
1 0 0 1 0 
1 3.8249999999999944 -2.1000000000000014 0 1 
1 3.825000000000002 -2.100000000000005 0 1 
1 0 -4.7999999999999989 1 0 
1 7.6500000000000039 -4.4408920985006262e-16 0 -1 
1 0 0 0 -1 
1 3.825000000000002 2.0999999999999979 -1 0 
1 0 0 1 0 
1 3.8249999999999944 2.1000000000000014 -1 0 
1 3.825000000000002 2.0999999999999979 -1 0 
1 1.4432899320127035e-15 -4.7999999999999989 1 0 
1 10.630000000000003 -15.919999999999996 -1 0 
1 10.629999999999995 -15.919999999999996 -1 0 
1 4.2000000000000028 0 0 -1 
1 0 0 0 -1 
1 -3.825000000000002 2.0999999999999979 -0 -1 
1 0 0 1 0 
1 -3.8250000000000091 2.1000000000000014 -0 -1 
1 -3.825000000000002 2.0999999999999979 -0 -1 
1 0 -4.799999999999998 1 0 
1 2.9800000000000018 -15.919999999999996 -0 -1 
1 2.9799999999999947 -15.919999999999996 -0 -1 
1 -3.825000000000002 -2.100000000000005 1 0 
1 0 0 1 0 
1 -3.8250000000000091 -2.1000000000000014 1 0 
1 -3.825000000000002 -2.100000000000005 1 0 
1 2.2204460492503131e-15 -4.7999999999999989 1 0 
Curves 12
1 -20.120000000000001 0.62546119740677364 27.631140681731395 0 -0.9911434396119978 0.13279564041826891 
1 -15.919999999999998 0.62546119740677364 27.631140681731395 0 -0.9911434396119978 0.13279564041826891 
1 -20.120000000000001 0.62546119740677364 27.631140681731395 1 0 0 
1 -20.120000000000001 -4.1320273127308145 28.268559755739087 1 0 0 
1 -15.919999999999998 1.6413478466065308 35.213387994763181 0 -0.9911434396119978 0.13279564041826891 
1 -15.919999999999998 0.62546119740677364 27.631140681731395 0 0.13279564041826891 0.9911434396119978 
1 -15.919999999999998 -4.1320273127308145 28.268559755739087 0 0.13279564041826891 0.9911434396119978 
1 -20.120000000000001 1.6413478466065308 35.213387994763181 0 -0.9911434396119978 0.13279564041826891 
1 -15.919999999999998 1.6413478466065308 35.213387994763181 -1 0 0 
1 -15.919999999999998 -3.1161406635310578 35.85080706877087 -1 0 0 
1 -20.120000000000001 1.6413478466065308 35.213387994763181 0 -0.13279564041826891 -0.9911434396119978 
1 -20.120000000000001 -3.1161406635310578 35.85080706877087 0 -0.13279564041826891 -0.9911434396119978 
Polygon3D 0
PolygonOnTriangulations 0
Surfaces 9
1 -20.120000000000001 0.62546119740677364 27.631140681731395 -0 0.13279564041826891 0.9911434396119978 1 0 0 0 0.9911434396119978 -0.13279564041826891 
1 -20.120000000000001 1.6413478466065308 35.213387994763181 1 0 0 0 -0.13279564041826891 -0.9911434396119978 0 0.9911434396119978 -0.13279564041826891 
1 -15.919999999999998 0.62546119740677364 27.631140681731395 -1 0 0 0 0.13279564041826891 0.9911434396119978 0 0.9911434396119978 -0.13279564041826891 
1 -18.019999999999996 1.1334045220066522 31.422264338247288 -0 -0.9911434396119978 0.13279564041826888 0 -0.13279564041826888 -0.9911434396119978 1 0 0 
1 -18.02 1.1334045220066522 31.422264338247281 -0 -0.9911434396119978 0.13279564041826891 0 -0.13279564041826891 -0.9911434396119978 1 0 0 
1 -18.019999999999996 -3.6240839881309364 32.059683412254977 -0 -0.9911434396119978 0.13279564041826888 0 -0.13279564041826888 -0.9911434396119978 1 0 0 
1 -15.919999999999998 1.6413478466065308 35.213387994763181 -0 -0.13279564041826891 -0.9911434396119978 -1 0 0 0 0.9911434396119978 -0.13279564041826891 
1 -1.90252540179398e-15 -2.7204096550846151 38.804414518814625 -0 -0.9911434396119978 0.13279564041826891 0 -0.13279564041826891 -0.9911434396119978 1 0 0 
1 -1.491752871861189e-15 -2.720409655084616 38.804414518814617 -0 -0.9911434396119978 0.13279564041826891 0 -0.13279564041826891 -0.9911434396119978 1 0 0 
Triangulations 0

TShapes 34
Ve
1.00000001110223e-07
-20.12 0.625461197406774 27.6311406817314
0 0

0101101
*
Ve
1.00000001776357e-07
-20.12 -4.13202731273081 28.2685597557391
0 0

0101101
*
Ed
 1e-07 1 1 0
1  1 0 0 4.8
2  1 1 0 0 4.8
2  2 2 0 0 4.8
0

0101000
+34 0 -33 0 *
Ve
1.00000001110223e-07
-15.92 0.625461197406774 27.6311406817314
0 0

0101101
*
Ve
1.00000000888178e-07
-15.92 -4.13202731273081 28.2685597557391
0 0

0101101
*
Ed
 1e-07 1 1 0
1  2 0 0 4.8
2  3 1 0 0 4.8
2  4 3 0 0 4.8
0

0101000
+31 0 -30 0 *
Ed
 1.00000000777156e-07 1 1 0
1  3 0 0 4.2
2  5 4 0 0 4.2
2  6 1 0 0 4.2
2  7 5 0 0 4.2
0

0101000
+34 0 -31 0 *
Ed
 1e-07 1 1 0
1  4 0 0 4.2
2  8 6 0 0 4.2
2  9 1 0 0 4.2
0

0101000
+33 0 -30 0 *
Wi

0101100
+32 0 -29 0 -28 0 +27 0 *
Fa
0  1e-07 1 0

0101000
+26 0 *
Ve
1.00000001110223e-07
-15.92 1.64134784660653 35.2133879947632
0 0

0101101
*
Ve
1.00000001332268e-07
-15.92 -3.11614066353106 35.8508070687709
0 0

0101101
*
Ed
 1e-07 1 1 0
1  5 0 0 4.8
2  10 3 0 0 4.8
2  11 7 0 0 4.8
0

0101000
+24 0 -23 0 *
Ed
 1.00000001110223e-07 1 1 0
1  6 0 0 7.65
2  12 4 0 0 7.65
2  13 3 0 0 7.65
2  14 5 0 0 7.65
0

0101000
+31 0 -24 0 *
Ed
 1.00000000888178e-07 1 1 0
1  7 0 0 7.65
2  15 6 0 0 7.65
2  16 3 0 0 7.65
2  17 8 0 0 7.65
2  18 9 0 0 7.65
0

0101000
+30 0 -23 0 *
Wi

0101100
+29 0 -22 0 -21 0 +20 0 *
Fa
0  1e-07 3 0

0101000
+19 0 *
Ve
1.00000001110223e-07
-20.12 1.64134784660653 35.2133879947632
0 0

0101101
*
Ve
1.00000001776357e-07
-20.12 -3.11614066353106 35.8508070687709
0 0

0101101
*
Ed
 1e-07 1 1 0
1  8 0 0 4.8
2  19 7 0 0 4.8
2  20 2 0 0 4.8
0

0101000
+17 0 -16 0 *
Ed
 1.00000001110223e-07 1 1 0
1  9 0 0 4.2
2  21 4 0 0 4.2
2  22 7 0 0 4.2
2  23 5 0 0 4.2
0

0101000
+24 0 -17 0 *
Ed
 1.00000001332268e-07 1 1 0
1  10 0 0 4.2
2  24 6 0 0 4.2
2  25 7 0 0 4.2
2  26 8 0 0 4.2
2  27 9 0 0 4.2
0

0101000
+23 0 -16 0 *
Wi

0101100
+22 0 -15 0 -14 0 +13 0 *
Fa
0  1e-07 7 0

0101000
+12 0 *
Ed
 1.00000001110223e-07 1 1 0
1  11 0 0 7.65
2  28 4 0 0 7.65
2  29 2 0 0 7.65
2  30 5 0 0 7.65
0

0101000
+17 0 -34 0 *
Ed
 1e-07 1 1 0
1  12 0 0 7.65
2  31 6 0 0 7.65
2  32 2 0 0 7.65
0

0101000
+16 0 -33 0 *
Wi

0101100
+15 0 -32 0 -10 0 +9 0 *
Fa
0  1e-07 2 0

0101000
+8 0 *
Wi

0101100
+28 0 +21 0 +14 0 +10 0 *
Fa
0  1e-07 4 0

0101000
+6 0 *
Wi

0101100
+27 0 +20 0 +13 0 +9 0 *
Fa
0  1e-07 6 0

0101000
+4 0 *
Sh

0101100
+25 0 +18 0 +11 0 +7 0 +5 0 -3 0 *
So

0100000
-2 0 *

+1 0 