DBRep_DrawableShape

CASCADE Topology V3, (c) Open Cascade
Locations 0
Curve2ds 6
1 0 0 0 -1 
1 6.2831853071795862 0 0 -1 
1 0 0 1 0 
2 0 1.7875034412280041e-15 0 1 -1 0 24.48
1 0 -1.1000000000000001 1 0 
2 0 1.7875034412280041e-15 0 1 -1 0 24.48
Curves 3
1 24.48 -8.4690416048342048 39.574629233240579 0 -0.9911434396119978 0.13279564041826891 
2 0 -8.4690416048342048 39.574629233240579 0 -0.9911434396119978 0.13279564041826891 1 0 0 0 0.13279564041826891 0.9911434396119978 24.48
2 0 -9.5592993884074033 39.720704437700675 0 -0.9911434396119978 0.13279564041826891 1 0 0 0 0.13279564041826891 0.9911434396119978 24.48
Polygon3D 0
PolygonOnTriangulations 0
Surfaces 3
2 0 -8.4690416048342048 39.574629233240579 -0 0.9911434396119978 -0.13279564041826891 1 0 0 0 0.13279564041826891 0.9911434396119978 24.48
1 -1.7875034412280041e-15 -8.4690416048342048 39.574629233240579 -0 -0.9911434396119978 0.13279564041826897 0 -0.13279564041826897 -0.9911434396119978 1 0 0 
1 -1.7875034412280041e-15 -9.5592993884074033 39.720704437700675 -0 -0.9911434396119978 0.13279564041826897 0 -0.13279564041826897 -0.9911434396119978 1 0 0 
Triangulations 0

TShapes 13
Ve
1e-07
24.48 -8.4690416048342 39.5746292332406
0 0

0101101
*
Ve
1e-07
24.48 -9.5592993884074 39.7207044377007
0 0

0101101
*
Ed
 1e-07 1 1 0
1  1 0 0 1.1
3  1 2CN 1 0 0 1.1
0

0101000
+13 0 -12 0 *
Ed
 1e-07 1 1 0
1  2 0 0 6.28318530717959
2  3 1 0 0 6.28318530717959
2  4 2 0 0 6.28318530717959
0

0101000
+13 0 -13 0 *
Ed
 1e-07 1 1 0
1  3 0 0 6.28318530717959
2  5 1 0 0 6.28318530717959
2  6 3 0 0 6.28318530717959
0

0101000
+12 0 -12 0 *
Wi

0101100
+11 0 -11 0 -10 0 +9 0 *
Fa
0  1e-07 1 0

0101000
+8 0 *
Wi

0101100
+10 0 *
Fa
0  1e-07 2 0

0101000
+6 0 *
Wi

0101100
+9 0 *
Fa
0  1e-07 3 0

0101000
+4 0 *
Sh

0101100
+7 0 +5 0 -3 0 *
So

0100000
-2 0 *

+1 0 