DBRep_DrawableShape

CASCADE Topology V3, (c) Open Cascade
Locations 0
Curve2ds 26
1 0 0 0 -1 
1 20.860000000000007 4.4408920985006262e-16 0 -1 
1 2.3999999999999986 0 0 -1 
1 0 0 0 -1 
1 10.430000000000003 -1.1999999999999993 0 1 
1 0 0 1 0 
1 10.430000000000003 -1.1999999999999993 0 1 
1 0 -5.7999999999999998 1 0 
1 20.860000000000007 -4.4408920985006262e-16 0 -1 
1 0 0 0 -1 
1 10.430000000000003 1.1999999999999993 -1 0 
1 0 0 1 0 
1 10.430000000000003 1.1999999999999993 -1 0 
1 1.7763568394002505e-15 -5.7999999999999998 1 0 
1 2.3999999999999986 0 0 -1 
1 0 0 0 -1 
1 -10.430000000000003 1.1999999999999993 -0 -1 
1 0 0 1 0 
1 -10.430000000000003 1.1999999999999993 -0 -1 
1 0 -5.7999999999999998 1 0 
1 -10.430000000000003 -1.1999999999999993 1 0 
1 0 0 1 0 
1 -10.430000000000003 -1.1999999999999993 1 0 
1 -1.7763568394002505e-15 -5.7999999999999998 1 0 
1 -10.430000000000003 17.480000000000004 1 0 
1 -10.43000000000001 17.48 1 0 
Curves 12
1 17.48 1.6431637651024247 27.696573729235524 0 -0.9911434396119978 0.13279564041826891 
1 19.879999999999999 1.6431637651024247 27.696573729235524 0 -0.9911434396119978 0.13279564041826891 
1 17.48 1.6431637651024247 27.696573729235524 1 0 0 
1 17.48 -4.1054681846471617 28.466788443661486 1 0 0 
1 19.879999999999999 4.4132808242275141 48.371825879541802 0 -0.9911434396119978 0.13279564041826891 
1 19.879999999999999 1.6431637651024247 27.696573729235524 0 0.13279564041826891 0.9911434396119978 
1 19.879999999999999 -4.1054681846471617 28.466788443661486 0 0.13279564041826891 0.9911434396119978 
1 17.48 4.4132808242275141 48.371825879541802 0 -0.9911434396119978 0.13279564041826891 
1 19.879999999999999 4.4132808242275141 48.371825879541802 -1 0 0 
1 19.879999999999999 -1.335351125522072 49.142040593967764 -1 0 0 
1 17.48 4.4132808242275141 48.371825879541802 0 -0.13279564041826891 -0.9911434396119978 
1 17.48 -1.335351125522072 49.142040593967764 0 -0.13279564041826891 -0.9911434396119978 
Polygon3D 0
PolygonOnTriangulations 0
Surfaces 8
1 17.48 1.6431637651024247 27.696573729235524 -0 0.13279564041826891 0.9911434396119978 1 0 0 0 0.9911434396119978 -0.13279564041826891 
1 17.48 4.4132808242275141 48.371825879541802 1 0 0 0 -0.13279564041826891 -0.9911434396119978 0 0.9911434396119978 -0.13279564041826891 
1 19.879999999999999 1.6431637651024247 27.696573729235524 -1 0 0 0 0.13279564041826891 0.9911434396119978 0 0.9911434396119978 -0.13279564041826891 
1 18.68 3.0282222946649688 38.034199804388663 -0 -0.9911434396119978 0.13279564041826891 0 -0.13279564041826891 -0.9911434396119978 1 0 0 
1 18.68 -2.7204096550846173 38.804414518814625 -0 -0.9911434396119978 0.13279564041826891 0 -0.13279564041826891 -0.9911434396119978 1 0 0 
1 19.879999999999999 4.4132808242275141 48.371825879541802 -0 -0.13279564041826891 -0.9911434396119978 -1 0 0 0 0.9911434396119978 -0.13279564041826891 
1 -1.90252540179398e-15 -2.7204096550846151 38.804414518814625 -0 -0.9911434396119978 0.13279564041826891 0 -0.13279564041826891 -0.9911434396119978 1 0 0 
1 -1.491752871861189e-15 -2.720409655084616 38.804414518814617 -0 -0.9911434396119978 0.13279564041826891 0 -0.13279564041826891 -0.9911434396119978 1 0 0 
Triangulations 0

TShapes 34
Ve
1e-07
17.48 1.64316376510242 27.6965737292355
0 0

0101101
*
Ve
1.00000002220446e-07
17.48 -4.10546818464716 28.4667884436615
0 0

0101101
*
Ed
 1e-07 1 1 0
1  1 0 0 5.8
2  1 1 0 0 5.8
2  2 2 0 0 5.8
0

0101000
+34 0 -33 0 *
Ve
1e-07
19.88 1.64316376510242 27.6965737292355
0 0

0101101
*
Ve
1.00000001776357e-07
19.88 -4.10546818464716 28.4667884436615
0 0

0101101
*
Ed
 1e-07 1 1 0
1  2 0 0 5.8
2  3 1 0 0 5.8
2  4 3 0 0 5.8
0

0101000
+31 0 -30 0 *
Ed
 1e-07 1 1 0
1  3 0 0 2.4
2  5 4 0 0 2.4
2  6 1 0 0 2.4
0

0101000
+34 0 -31 0 *
Ed
 1e-07 1 1 0
1  4 0 0 2.4
2  7 5 0 0 2.4
2  8 1 0 0 2.4
0

0101000
+33 0 -30 0 *
Wi

0101100
+32 0 -29 0 -28 0 +27 0 *
Fa
0  1e-07 1 0

0101000
+26 0 *
Ve
1e-07
19.88 4.41328082422751 48.3718258795418
0 0

0101101
*
Ve
1.00000001998401e-07
19.88 -1.33535112552207 49.1420405939678
0 0

0101101
*
Ed
 1e-07 1 1 0
1  5 0 0 5.8
2  9 3 0 0 5.8
2  10 6 0 0 5.8
0

0101000
+24 0 -23 0 *
Ed
 1e-07 1 1 0
1  6 0 0 20.86
2  11 4 0 0 20.86
2  12 3 0 0 20.86
0

0101000
+31 0 -24 0 *
Ed
 1e-07 1 1 0
1  7 0 0 20.86
2  13 5 0 0 20.86
2  14 3 0 0 20.86
0

0101000
+30 0 -23 0 *
Wi

0101100
+29 0 -22 0 -21 0 +20 0 *
Fa
0  1e-07 3 0

0101000
+19 0 *
Ve
1e-07
17.48 4.41328082422751 48.3718258795418
0 0

0101101
*
Ve
1.00000002220446e-07
17.48 -1.33535112552207 49.1420405939678
0 0

0101101
*
Ed
 1e-07 1 1 0
1  8 0 0 5.8
2  15 6 0 0 5.8
2  16 2 0 0 5.8
0

0101000
+17 0 -16 0 *
Ed
 1e-07 1 1 0
1  9 0 0 2.4
2  17 4 0 0 2.4
2  18 6 0 0 2.4
0

0101000
+24 0 -17 0 *
Ed
 1e-07 1 1 0
1  10 0 0 2.4
2  19 5 0 0 2.4
2  20 6 0 0 2.4
0

0101000
+23 0 -16 0 *
Wi

0101100
+22 0 -15 0 -14 0 +13 0 *
Fa
0  1e-07 6 0

0101000
+12 0 *
Ed
 1e-07 1 1 0
1  11 0 0 20.86
2  21 4 0 0 20.86
2  22 2 0 0 20.86
0

0101000
+17 0 -34 0 *
Ed
 1.00000002220446e-07 1 1 0
1  12 0 0 20.86
2  23 5 0 0 20.86
2  24 2 0 0 20.86
2  25 7 0 0 20.86
2  26 8 0 0 20.86
0

0101000
+16 0 -33 0 *
Wi

0101100
+15 0 -32 0 -10 0 +9 0 *
Fa
0  1e-07 2 0

0101000
+8 0 *
Wi

0101100
+28 0 +21 0 +14 0 +10 0 *
Fa
0  1e-07 4 0

0101000
+6 0 *
Wi

0101100
+27 0 +20 0 +13 0 +9 0 *
Fa
0  1e-07 5 0

0101000
+4 0 *
Sh

0101100
+25 0 +18 0 +11 0 +7 0 +5 0 -3 0 *
So

0100000
-2 0 *

+1 0 