DBRep_DrawableShape

CASCADE Topology V3, (c) Open Cascade
Locations 0
Curve2ds 16
1 8.2500000000000053 0 -2.7755575615628907e-17 -1 
1 0 0 2.7755575615628907e-17 -1 
1 4.1250000000000027 -2.9000000000000021 0 1 
1 4.1250000000000027 -2.9000000000000021 0 1 
1 8.2500000000000053 0 2.7755575615628907e-17 -1 
1 0 0 0 -1 
1 4.1250000000000027 2.9000000000000021 -1 0 
1 0 0 1 0 
1 4.1250000000000027 2.9000000000000021 -1 0 
1 -1.6653345369377348e-15 -2.3000000000000007 1 0 
1 -4.1250000000000027 2.9000000000000021 -0 -1 
1 -4.1250000000000027 2.9000000000000021 -0 -1 
1 0 -2.3000000000000003 1 0 
1 -4.1250000000000027 -2.9000000000000021 1 0 
1 -4.1250000000000027 -2.9000000000000021 1 0 
1 1.6653345369377348e-15 -2.3000000000000007 1 0 
Curves 12
1 -20.920000000000002 4.631434433951866 40.210575423725352 0 -0.99114343961199769 0.13279564041826891 
1 -15.119999999999997 4.631434433951866 40.210575423725352 0 -0.99114343961199769 0.13279564041826891 
1 -20.920000000000002 4.631434433951866 40.210575423725352 1 0 0 
1 -20.920000000000002 2.3518045228442706 40.516005396687369 1 0 0 
1 -15.119999999999997 5.7269984674025851 48.387508800524337 0 -0.99114343961199769 0.13279564041826891 
1 -15.119999999999997 4.631434433951866 40.210575423725352 0 0.13279564041826891 0.9911434396119978 
1 -15.119999999999997 2.3518045228442706 40.516005396687369 0 0.13279564041826891 0.9911434396119978 
1 -20.920000000000002 5.7269984674025851 48.387508800524337 0 -0.99114343961199769 0.13279564041826891 
1 -15.119999999999997 5.7269984674025851 48.387508800524337 -1 0 0 
1 -15.119999999999997 3.4473685562949896 48.692938773486354 -1 0 0 
1 -20.920000000000002 5.7269984674025851 48.387508800524337 0 -0.13279564041826891 -0.9911434396119978 
1 -20.920000000000002 3.4473685562949896 48.692938773486354 0 -0.13279564041826891 -0.9911434396119978 
Polygon3D 0
PolygonOnTriangulations 0
Surfaces 6
1 -20.920000000000002 4.631434433951866 40.210575423725352 -0 0.13279564041826894 0.9911434396119978 1 0 0 0 0.9911434396119978 -0.13279564041826894 
1 -20.920000000000002 5.7269984674025851 48.387508800524337 1 0 0 0 -0.13279564041826891 -0.9911434396119978 0 0.9911434396119978 -0.13279564041826891 
1 -15.119999999999997 4.631434433951866 40.210575423725352 -1 0 0 0 0.13279564041826891 0.9911434396119978 0 0.9911434396119978 -0.13279564041826891 
1 -18.02 5.1792164506772265 44.299042112124845 -0 -0.9911434396119978 0.13279564041826897 0 -0.13279564041826897 -0.9911434396119978 1 0 0 
1 -18.02 2.899586539569631 44.604472085086861 -0 -0.9911434396119978 0.13279564041826897 0 -0.13279564041826897 -0.9911434396119978 1 0 0 
1 -15.119999999999997 5.7269984674025851 48.387508800524337 -0 -0.13279564041826894 -0.9911434396119978 -1 0 0 0 0.9911434396119978 -0.13279564041826894 
Triangulations 0

TShapes 34
Ve
1e-07
-20.92 4.63143443395187 40.2105754237254
0 0

0101101
*
Ve
1e-07
-20.92 2.35180452284427 40.5160053966874
0 0

0101101
*
Ed
 1e-07 1 1 0
1  1 0 0 2.3
2  1 2 0 0 2.3
0

0101000
+34 0 -33 0 *
Ve
1e-07
-15.12 4.63143443395187 40.2105754237254
0 0

0101101
*
Ve
1e-07
-15.12 2.35180452284427 40.5160053966874
0 0

0101101
*
Ed
 1e-07 1 1 0
1  2 0 0 2.3
2  2 3 0 0 2.3
0

0101000
+31 0 -30 0 *
Ed
 1e-07 1 1 0
1  3 0 0 5.8
2  3 4 0 0 5.8
0

0101000
+34 0 -31 0 *
Ed
 1e-07 1 1 0
1  4 0 0 5.8
2  4 5 0 0 5.8
0

0101000
+33 0 -30 0 *
Wi

0101100
+32 0 -29 0 -28 0 +27 0 *
Fa
0  1e-07 1 0

0101000
+26 0 *
Ve
1e-07
-15.12 5.72699846740259 48.3875088005243
0 0

0101101
*
Ve
1e-07
-15.12 3.44736855629499 48.6929387734864
0 0

0101101
*
Ed
 1e-07 1 1 0
1  5 0 0 2.3
2  5 3 0 0 2.3
2  6 6 0 0 2.3
0

0101000
+24 0 -23 0 *
Ed
 1e-07 1 1 0
1  6 0 0 8.25
2  7 4 0 0 8.25
2  8 3 0 0 8.25
0

0101000
+31 0 -24 0 *
Ed
 1e-07 1 1 0
1  7 0 0 8.25
2  9 5 0 0 8.25
2  10 3 0 0 8.25
0

0101000
+30 0 -23 0 *
Wi

0101100
+29 0 -22 0 -21 0 +20 0 *
Fa
0  1e-07 3 0

0101000
+19 0 *
Ve
1e-07
-20.92 5.72699846740259 48.3875088005243
0 0

0101101
*
Ve
1e-07
-20.92 3.44736855629499 48.6929387734864
0 0

0101101
*
Ed
 1e-07 1 1 0
1  8 0 0 2.3
0

0101000
+17 0 -16 0 *
Ed
 1e-07 1 1 0
1  9 0 0 5.8
2  11 4 0 0 5.8
0

0101000
+24 0 -17 0 *
Ed
 1e-07 1 1 0
1  10 0 0 5.8
2  12 5 0 0 5.8
2  13 6 0 0 5.8
0

0101000
+23 0 -16 0 *
Wi

0101100
+22 0 -15 0 -14 0 +13 0 *
Fa
0  1e-07 6 0

0101000
+12 0 *
Ed
 1e-07 1 1 0
1  11 0 0 8.25
2  14 4 0 0 8.25
0

0101000
+17 0 -34 0 *
Ed
 1e-07 1 1 0
1  12 0 0 8.25
2  15 5 0 0 8.25
2  16 2 0 0 8.25
0

0101000
+16 0 -33 0 *
Wi

0101100
+15 0 -32 0 -10 0 +9 0 *
Fa
0  1e-07 2 0

0101000
+8 0 *
Wi

0101100
+28 0 +21 0 +14 0 +10 0 *
Fa
0  1e-07 4 0

0101000
+6 0 *
Wi

0101100
+27 0 +20 0 +13 0 +9 0 *
Fa
0  1e-07 5 0

0101000
+4 0 *
Sh

0101100
+25 0 +18 0 +11 0 +7 0 +5 0 -3 0 *
So

0100000
-2 0 *

+1 0 