DBRep_DrawableShape

CASCADE Topology V3, (c) Open Cascade
Locations 0
Curve2ds 24
1 11 -8.8817841970012523e-16 0 -1 
1 0 0 0 -1 
1 0 0 0 -1 
1 15 0 0 -1 
1 5.499999999999992 -7.5 0 1 
1 0 0 1 0 
1 5.499999999999992 -7.5 0 1 
1 0 -3.5999999999999996 1 0 
1 11 8.8817841970012523e-16 0 -1 
1 0 0 0 -1 
1 5.499999999999992 7.5 -1 0 
1 0 0 1 0 
1 5.499999999999992 7.5 -1 0 
1 5.5511151231257827e-17 -3.5999999999999996 1 0 
1 15 0 0 -1 
1 0 0 0 -1 
1 -5.5000000000000071 7.5 -0 -1 
1 0 0 1 0 
1 -5.5000000000000071 7.5 -0 -1 
1 0 -3.5999999999999996 1 0 
1 -5.5000000000000071 -7.5 1 0 
1 0 0 1 0 
1 -5.5000000000000071 -7.5 1 0 
1 -5.5511151231257827e-17 -3.5999999999999996 1 0 
Curves 12
1 -4.5 4.2224182857243875 45.441216473395002 0 -0.9911434396119978 0.13279564041826891 
1 10.5 4.2224182857243875 45.441216473395002 0 -0.9911434396119978 0.13279564041826891 
1 -4.5 4.2224182857243875 45.441216473395002 1 0 0 
1 -4.5 0.65430190312119585 45.91928077890077 1 0 0 
1 10.5 5.6831703303253462 56.343794309126977 0 -0.9911434396119978 0.13279564041826891 
1 10.5 4.2224182857243875 45.441216473395002 0 0.13279564041826891 0.9911434396119978 
1 10.5 0.65430190312119585 45.91928077890077 0 0.13279564041826891 0.9911434396119978 
1 -4.5 5.6831703303253462 56.343794309126977 0 -0.9911434396119978 0.13279564041826891 
1 10.5 5.6831703303253462 56.343794309126977 -1 0 0 
1 10.5 2.1150539477221546 56.821858614632745 -1 0 0 
1 -4.5 5.6831703303253462 56.343794309126977 0 -0.13279564041826891 -0.9911434396119978 
1 -4.5 2.1150539477221546 56.821858614632745 0 -0.13279564041826891 -0.9911434396119978 
Polygon3D 0
PolygonOnTriangulations 0
Surfaces 6
1 -4.5 4.2224182857243875 45.441216473395002 -0 0.13279564041826891 0.9911434396119978 1 0 0 0 0.9911434396119978 -0.13279564041826891 
1 -4.5 5.6831703303253462 56.343794309126977 1 0 0 0 -0.13279564041826891 -0.9911434396119978 0 0.9911434396119978 -0.13279564041826891 
1 10.5 4.2224182857243875 45.441216473395002 -1 0 0 0 0.13279564041826891 0.9911434396119978 0 0.9911434396119978 -0.13279564041826891 
1 3 4.9527943080248678 50.892505391260983 -0 -0.99114343961199769 0.13279564041826897 0 -0.13279564041826897 -0.99114343961199769 1 0 0 
1 3 1.3846779254216761 51.370569696766751 -0 -0.99114343961199769 0.13279564041826897 0 -0.13279564041826897 -0.99114343961199769 1 0 0 
1 10.5 5.6831703303253462 56.343794309126977 -0 -0.13279564041826891 -0.9911434396119978 -1 0 0 0 0.9911434396119978 -0.13279564041826891 
Triangulations 0

TShapes 34
Ve
1e-07
-4.5 4.22241828572439 45.441216473395
0 0

0101101
*
Ve
1e-07
-4.5 0.654301903121196 45.9192807789008
0 0

0101101
*
Ed
 1e-07 1 1 0
1  1 0 0 3.6
2  1 2 0 0 3.6
2  2 1 0 0 3.6
0

0101000
+34 0 -33 0 *
Ve
1e-07
10.5 4.22241828572439 45.441216473395
0 0

0101101
*
Ve
1e-07
10.5 0.654301903121196 45.9192807789008
0 0

0101101
*
Ed
 1e-07 1 1 0
1  2 0 0 3.6
2  3 3 0 0 3.6
2  4 1 0 0 3.6
0

0101000
+31 0 -30 0 *
Ed
 1e-07 1 1 0
1  3 0 0 15
2  5 4 0 0 15
2  6 1 0 0 15
0

0101000
+34 0 -31 0 *
Ed
 1e-07 1 1 0
1  4 0 0 15
2  7 5 0 0 15
2  8 1 0 0 15
0

0101000
+33 0 -30 0 *
Wi

0101100
+32 0 -29 0 -28 0 +27 0 *
Fa
0  1e-07 1 0

0101000
+26 0 *
Ve
1e-07
10.5 5.68317033032535 56.343794309127
0 0

0101101
*
Ve
1e-07
10.5 2.11505394772215 56.8218586146327
0 0

0101101
*
Ed
 1e-07 1 1 0
1  5 0 0 3.6
2  9 3 0 0 3.6
2  10 6 0 0 3.6
0

0101000
+24 0 -23 0 *
Ed
 1e-07 1 1 0
1  6 0 0 11
2  11 4 0 0 11
2  12 3 0 0 11
0

0101000
+31 0 -24 0 *
Ed
 1e-07 1 1 0
1  7 0 0 11
2  13 5 0 0 11
2  14 3 0 0 11
0

0101000
+30 0 -23 0 *
Wi

0101100
+29 0 -22 0 -21 0 +20 0 *
Fa
0  1e-07 3 0

0101000
+19 0 *
Ve
1e-07
-4.5 5.68317033032535 56.343794309127
0 0

0101101
*
Ve
1e-07
-4.5 2.11505394772215 56.8218586146327
0 0

0101101
*
Ed
 1e-07 1 1 0
1  8 0 0 3.6
2  15 6 0 0 3.6
2  16 2 0 0 3.6
0

0101000
+17 0 -16 0 *
Ed
 1e-07 1 1 0
1  9 0 0 15
2  17 4 0 0 15
2  18 6 0 0 15
0

0101000
+24 0 -17 0 *
Ed
 1e-07 1 1 0
1  10 0 0 15
2  19 5 0 0 15
2  20 6 0 0 15
0

0101000
+23 0 -16 0 *
Wi

0101100
+22 0 -15 0 -14 0 +13 0 *
Fa
0  1e-07 6 0

0101000
+12 0 *
Ed
 1e-07 1 1 0
1  11 0 0 11
2  21 4 0 0 11
2  22 2 0 0 11
0

0101000
+17 0 -34 0 *
Ed
 1e-07 1 1 0
1  12 0 0 11
2  23 5 0 0 11
2  24 2 0 0 11
0

0101000
+16 0 -33 0 *
Wi

0101100
+15 0 -32 0 -10 0 +9 0 *
Fa
0  1e-07 2 0

0101000
+8 0 *
Wi

0101100
+28 0 +21 0 +14 0 +10 0 *
Fa
0  1e-07 4 0

0101000
+6 0 *
Wi

0101100
+27 0 +20 0 +13 0 +9 0 *
Fa
0  1e-07 5 0

0101000
+4 0 *
Sh

0101100
+25 0 +18 0 +11 0 +7 0 +5 0 -3 0 *
So

0100000
-2 0 *

+1 0 