DBRep_DrawableShape

CASCADE Topology V3, (c) Open Cascade
Locations 0
Curve2ds 26
1 7.5000000000000018 -1.1102230246251565e-16 0 -1 
1 0 0 0 -1 
1 0 0 0 -1 
1 8.9399999999999995 0 0 -1 
1 3.75 -4.4699999999999998 0 1 
1 0 0 1 0 
1 -1.6299999999999983 4.4699999999999998 0 -1 
1 3.75 -4.4699999999999998 0 1 
1 0 -3.2599999999999989 1 0 
1 1.6300000000000001 4.4699999999999998 0 -1 
1 7.5000000000000018 1.1102230246251565e-16 0 -1 
1 0 0 0 -1 
1 3.75 4.4699999999999998 -1 0 
1 0 0 1 0 
1 3.75 4.4699999999999998 -1 0 
1 2.2204460492503131e-16 -3.2599999999999989 1 0 
1 0 0 0 -1 
1 8.9399999999999995 0 0 -1 
1 -3.7500000000000018 4.4699999999999998 -0 -1 
1 0 0 1 0 
1 -3.7500000000000018 4.4699999999999998 -0 -1 
1 0 -3.2599999999999998 1 0 
1 -3.7500000000000018 -4.4699999999999998 1 0 
1 0 0 1 0 
1 -3.7500000000000018 -4.4699999999999998 1 0 
1 -1.1102230246251565e-16 -3.2599999999999998 1 0 
Curves 12
1 -4.4699999999999998 -2.6299954151120648 14.779630955477151 0 -0.9911434396119978 0.13279564041826891 
1 4.4699999999999998 -2.6299954151120648 14.779630955477151 0 -0.9911434396119978 0.13279564041826891 
1 -4.4699999999999998 -2.6299954151120648 14.779630955477151 1 0 0 
1 -4.4699999999999998 -5.8611230282471762 15.212544743240707 1 0 0 
1 4.4699999999999998 -1.6340281119750477 22.213206752567135 0 -0.9911434396119978 0.13279564041826891 
1 4.4699999999999998 -2.6299954151120648 14.779630955477151 0 0.13279564041826891 0.9911434396119978 
1 4.4699999999999998 -5.8611230282471762 15.212544743240707 0 0.13279564041826891 0.9911434396119978 
1 -4.4699999999999998 -1.6340281119750477 22.213206752567135 0 -0.9911434396119978 0.13279564041826891 
1 4.4699999999999998 -1.6340281119750477 22.213206752567135 -1 0 0 
1 4.4699999999999998 -4.86515572511016 22.646120540330692 -1 0 0 
1 -4.4699999999999998 -1.6340281119750477 22.213206752567135 0 -0.13279564041826891 -0.9911434396119978 
1 -4.4699999999999998 -4.86515572511016 22.646120540330692 0 -0.13279564041826891 -0.9911434396119978 
Polygon3D 0
PolygonOnTriangulations 0
Surfaces 7
1 -4.4699999999999998 -2.6299954151120648 14.779630955477151 -0 0.13279564041826891 0.9911434396119978 1 0 0 0 0.9911434396119978 -0.13279564041826891 
1 -4.4699999999999998 -1.6340281119750477 22.213206752567135 1 0 0 0 -0.13279564041826891 -0.9911434396119978 0 0.9911434396119978 -0.13279564041826891 
1 4.4699999999999998 -2.6299954151120648 14.779630955477151 -1 0 0 0 0.13279564041826891 0.9911434396119978 0 0.9911434396119978 -0.13279564041826891 
1 0 -2.1320117635435563 18.496418854022142 -0 -0.9911434396119978 0.13279564041826897 0 -0.13279564041826897 -0.9911434396119978 1 0 0 
1 0 -4.2455592216796205 14.996087849358922 -0 -0.132795640418269 -0.99114343961199769 0 -0.99114343961199769 0.132795640418269 -1 0 0 
1 0 -5.3631393766786681 18.929332641785699 -0 -0.9911434396119978 0.13279564041826897 0 -0.13279564041826897 -0.9911434396119978 1 0 0 
1 4.4699999999999998 -1.6340281119750477 22.213206752567135 -0 -0.13279564041826891 -0.9911434396119978 -1 0 0 0 0.9911434396119978 -0.13279564041826891 
Triangulations 0

TShapes 34
Ve
1.00000007160723e-07
-4.47 -2.62999541511206 14.7796309554772
0 0

0101101
*
Ve
1.00000007160723e-07
-4.47 -5.86112302824718 15.2125447432407
0 0

0101101
*
Ed
 1e-07 1 1 0
1  1 0 0 3.26
2  1 2 0 0 3.26
2  2 1 0 0 3.26
0

0101000
+34 0 -33 0 *
Ve
1.00000007160723e-07
4.47 -2.62999541511206 14.7796309554772
0 0

0101101
*
Ve
1.00000007160723e-07
4.47 -5.86112302824718 15.2125447432407
0 0

0101101
*
Ed
 1e-07 1 1 0
1  2 0 0 3.26
2  3 3 0 0 3.26
2  4 1 0 0 3.26
0

0101000
+31 0 -30 0 *
Ed
 1.00000007160723e-07 1 1 0
1  3 0 0 8.94
2  5 4 0 0 8.94
2  6 1 0 0 8.94
2  7 5 0 0 8.94
0

0101000
+34 0 -31 0 *
Ed
 1.00000007160723e-07 1 1 0
1  4 0 0 8.94
2  8 6 0 0 8.94
2  9 1 0 0 8.94
2  10 5 0 0 8.94
0

0101000
+33 0 -30 0 *
Wi

0101100
+32 0 -29 0 -28 0 +27 0 *
Fa
0  1e-07 1 0

0101000
+26 0 *
Ve
1e-07
4.47 -1.63402811197505 22.2132067525671
0 0

0101101
*
Ve
1e-07
4.47 -4.86515572511016 22.6461205403307
0 0

0101101
*
Ed
 1e-07 1 1 0
1  5 0 0 3.26
2  11 3 0 0 3.26
2  12 7 0 0 3.26
0

0101000
+24 0 -23 0 *
Ed
 1e-07 1 1 0
1  6 0 0 7.5
2  13 4 0 0 7.5
2  14 3 0 0 7.5
0

0101000
+31 0 -24 0 *
Ed
 1e-07 1 1 0
1  7 0 0 7.5
2  15 6 0 0 7.5
2  16 3 0 0 7.5
0

0101000
+30 0 -23 0 *
Wi

0101100
+29 0 -22 0 -21 0 +20 0 *
Fa
0  1e-07 3 0

0101000
+19 0 *
Ve
1e-07
-4.47 -1.63402811197505 22.2132067525671
0 0

0101101
*
Ve
1e-07
-4.47 -4.86515572511016 22.6461205403307
0 0

0101101
*
Ed
 1e-07 1 1 0
1  8 0 0 3.26
2  17 2 0 0 3.26
2  18 7 0 0 3.26
0

0101000
+17 0 -16 0 *
Ed
 1e-07 1 1 0
1  9 0 0 8.94
2  19 4 0 0 8.94
2  20 7 0 0 8.94
0

0101000
+24 0 -17 0 *
Ed
 1e-07 1 1 0
1  10 0 0 8.94
2  21 6 0 0 8.94
2  22 7 0 0 8.94
0

0101000
+23 0 -16 0 *
Wi

0101100
+22 0 -15 0 -14 0 +13 0 *
Fa
0  1e-07 7 0

0101000
+12 0 *
Ed
 1e-07 1 1 0
1  11 0 0 7.5
2  23 4 0 0 7.5
2  24 2 0 0 7.5
0

0101000
+17 0 -34 0 *
Ed
 1e-07 1 1 0
1  12 0 0 7.5
2  25 6 0 0 7.5
2  26 2 0 0 7.5
0

0101000
+16 0 -33 0 *
Wi

0101100
+15 0 -32 0 -10 0 +9 0 *
Fa
0  1e-07 2 0

0101000
+8 0 *
Wi

0101100
+28 0 +21 0 +14 0 +10 0 *
Fa
0  1e-07 4 0

0101000
+6 0 *
Wi

0101100
+27 0 +20 0 +13 0 +9 0 *
Fa
0  1e-07 6 0

0101000
+4 0 *
Sh

0101100
+25 0 +18 0 +11 0 +7 0 +5 0 -3 0 *
So

0100000
-2 0 *

+1 0 