DBRep_DrawableShape

CASCADE Topology V3, (c) Open Cascade
Locations 0
Curve2ds 24
1 3.1415926535897931 0 0 -1 
1 0 0 0 -1 
1 0 0 0 -1 
1 5.4000000000000004 0 0 -1 
1 -3.5000000000000009 2.7000000000000002 0 -1 
1 0 0 1 0 
1 -3.5000000000000009 2.7000000000000002 0 -1 
1 0 -40 1 0 
1 3.1415926535897931 0 0 -1 
1 0 -0 0 -1 
1 0 0 1 0 
2 -1.7606244277814612e-15 -2.7000000000000002 -1 0 -0 -1 3.4999999999999991
1 0 -40 1 0 
2 -1.7606244277814612e-15 -2.7000000000000002 -1 0 -0 -1 3.4999999999999991
1 0 0 0 -1 
1 5.4000000000000004 0 0 -1 
1 3.4999999999999982 -2.7000000000000002 0 1 
1 0 -0 1 0 
1 3.4999999999999982 -2.7000000000000002 0 1 
1 0 -40 1 0 
1 0 0 1 0 
2 -1.7606244277814612e-15 2.7000000000000002 1 0 -0 1 3.5000000000000004
1 0 -40 1 0 
2 -1.7606244277814612e-15 2.7000000000000002 1 0 -0 1 3.5000000000000004
Curves 12
1 -2.7000000000000002 -6.0883827997683824 -25.114434476584925 0 0.13279564041826891 0.9911434396119978 
1 2.7000000000000002 -6.0883827997683824 -25.114434476584925 0 0.13279564041826891 0.9911434396119978 
1 -2.7000000000000002 -6.0883827997683824 -25.114434476584925 1 0 0 
1 -2.7000000000000002 -0.77655718303762633 14.531303107894985 1 0 0 
1 2.7000000000000002 -13.026386877052367 -24.184864993657044 0 0.13279564041826891 0.9911434396119978 
2 2.7000000000000002 -9.5573848384103748 -24.649649735120985 0 -0.13279564041826891 -0.9911434396119978 0 0.9911434396119978 -0.13279564041826891 1 0 0 3.5
2 2.7000000000000002 -4.2455592216796187 14.996087849358926 0 -0.13279564041826891 -0.9911434396119978 0 0.9911434396119978 -0.13279564041826891 1 0 0 3.5
1 -2.7000000000000002 -13.026386877052367 -24.184864993657044 0 0.13279564041826891 0.9911434396119978 
1 2.7000000000000002 -13.026386877052367 -24.184864993657044 -1 0 0 
1 2.7000000000000002 -7.7145612603216112 15.460872590822866 -1 0 0 
2 -2.7000000000000002 -9.5573848384103748 -24.649649735120985 0 -0.13279564041826891 -0.9911434396119978 0 -0.9911434396119978 0.13279564041826891 -1 -0 0 3.5
2 -2.7000000000000002 -4.2455592216796187 14.996087849358926 0 -0.13279564041826891 -0.9911434396119978 0 -0.9911434396119978 0.13279564041826891 -1 -0 0 3.5
Polygon3D 0
PolygonOnTriangulations 0
Surfaces 6
1 -2.7000000000000002 -6.0883827997683824 -25.114434476584925 0 0.9911434396119978 -0.13279564041826891 1 0 0 0 -0.13279564041826891 -0.9911434396119978 
2 -2.7000000000000002 -9.5573848384103748 -24.649649735120985 0 -0.13279564041826891 -0.9911434396119978 0 -0.9911434396119978 0.13279564041826891 -1 -0 0 3.5
2 2.7000000000000002 -9.5573848384103748 -24.649649735120985 0 -0.13279564041826891 -0.9911434396119978 0 0.9911434396119978 -0.13279564041826891 1 0 0 3.5
1 0 -9.5573848384103766 -24.649649735120988 -0 -0.132795640418269 -0.99114343961199769 0 -0.99114343961199769 0.132795640418269 -1 0 0 
1 0 -4.2455592216796205 14.996087849358922 -0 -0.132795640418269 -0.99114343961199769 0 -0.99114343961199769 0.132795640418269 -1 0 0 
1 2.7000000000000002 -13.026386877052367 -24.184864993657044 0 -0.9911434396119978 0.13279564041826891 -1 0 0 -0 -0.13279564041826891 -0.9911434396119978 
Triangulations 0

TShapes 34
Ve
1.00000000222045e-07
-2.7 -6.08838279976838 -25.1144344765849
0 0

0101101
*
Ve
1.00000000222045e-07
-2.7 -0.776557183037626 14.531303107895
0 0

0101101
*
Ed
 1.00000000222045e-07 1 1 0
1  1 0 0 40
2  1 2 0 0 40
4 G1 1 0 2 0
2  2 1 0 0 40
0

0101000
+34 0 -33 0 *
Ve
1e-07
2.7 -6.08838279976838 -25.1144344765849
0 0

0101101
*
Ve
1e-07
2.7 -0.776557183037626 14.531303107895
0 0

0101101
*
Ed
 1e-07 1 1 0
1  2 0 0 40
2  3 3 0 0 40
4 G1 1 0 3 0
2  4 1 0 0 40
0

0101000
+31 0 -30 0 *
Ed
 1e-07 1 1 0
1  3 0 0 5.4
2  5 4 0 0 5.4
2  6 1 0 0 5.4
0

0101000
+34 0 -31 0 *
Ed
 1e-07 1 1 0
1  4 0 0 5.4
2  7 5 0 0 5.4
2  8 1 0 0 5.4
0

0101000
+33 0 -30 0 *
Wi

0101100
+32 0 -29 0 -28 0 +27 0 *
Fa
0  1e-07 1 0

0101000
+26 0 *
Ve
1.00000000222045e-07
2.7 -13.0263868770524 -24.184864993657
0 0

0101101
*
Ve
1.00000000222045e-07
2.7 -7.71456126032161 15.4608725908229
0 0

0101101
*
Ed
 1.00000000222045e-07 1 1 0
1  5 0 0 40
2  9 3 0 0 40
4 G1 3 0 6 0
2  10 6 0 0 40
0

0101000
+24 0 -23 0 *
Ed
 1e-07 1 1 0
1  6 0 0 3.14159265358979
2  11 3 0 0 3.14159265358979
2  12 4 0 0 3.14159265358979
0

0101000
+31 0 -24 0 *
Ed
 1e-07 1 1 0
1  7 0 0 3.14159265358979
2  13 3 0 0 3.14159265358979
2  14 5 0 0 3.14159265358979
0

0101000
+30 0 -23 0 *
Wi

0101100
+29 0 -22 0 -21 0 +20 0 *
Fa
0  1e-07 3 0

0101000
+19 0 *
Ve
1e-07
-2.7 -13.0263868770524 -24.184864993657
0 0

0101101
*
Ve
1e-07
-2.7 -7.71456126032161 15.4608725908229
0 0

0101101
*
Ed
 1e-07 1 1 0
1  8 0 0 40
2  15 2 0 0 40
4 G1 6 0 2 0
2  16 6 0 0 40
0

0101000
+17 0 -16 0 *
Ed
 1e-07 1 1 0
1  9 0 0 5.4
2  17 4 0 0 5.4
2  18 6 0 0 5.4
0

0101000
+24 0 -17 0 *
Ed
 1e-07 1 1 0
1  10 0 0 5.4
2  19 5 0 0 5.4
2  20 6 0 0 5.4
0

0101000
+23 0 -16 0 *
Wi

0101100
+22 0 -15 0 -14 0 +13 0 *
Fa
0  1e-07 6 0

0101000
+12 0 *
Ed
 1e-07 1 1 0
1  11 0 0 3.14159265358979
2  21 2 0 0 3.14159265358979
2  22 4 0 0 3.14159265358979
0

0101000
+17 0 -34 0 *
Ed
 1e-07 1 1 0
1  12 0 0 3.14159265358979
2  23 2 0 0 3.14159265358979
2  24 5 0 0 3.14159265358979
0

0101000
+16 0 -33 0 *
Wi

0101100
+15 0 -32 0 -10 0 +9 0 *
Fa
0  1e-07 2 0

0101000
+8 0 *
Wi

0101100
+28 0 +21 0 +14 0 +10 0 *
Fa
0  1e-07 4 0

0101000
+6 0 *
Wi

0101100
+27 0 +20 0 +13 0 +9 0 *
Fa
0  1e-07 5 0

0101000
+4 0 *
Sh

0101100
+25 0 +18 0 +11 0 +7 0 +5 0 -3 0 *
So

0100000
+2 0 *

+1 0 