<svg xmlns="http://www.w3.org/2000/svg" viewBox="0 0 420 297" width="420mm" height="297mm">
<style>
        .bgf{fill:#0b3d91;stroke:none}
        .tbf{fill:#0d4299;stroke:#ffffff;stroke-width:0.6}
        .fr1{fill:none;stroke:#ffffff;stroke-width:0.25}
        .fr2{fill:none;stroke:#ffffff;stroke-width:0.7}
        .fr2t{fill:none;stroke:#ffffff;stroke-width:0.35}
        .o{fill:none;stroke:#ffffff;stroke-width:0.5;stroke-linejoin:round;stroke-linecap:round}
        .ob{fill:#0b3d91;stroke:#ffffff;stroke-width:0.5;stroke-linejoin:round;stroke-linecap:round}
        .o2{fill:none;stroke:#ffffff;stroke-width:0.32;stroke-linejoin:round;stroke-linecap:round}
        .o2b{fill:#0b3d91;stroke:#ffffff;stroke-width:0.32;stroke-linejoin:round}
        .o3{fill:none;stroke:#ffffff;stroke-width:0.2;stroke-linejoin:round;stroke-linecap:round}
        .t{fill:none;stroke:#a9dcff;stroke-width:0.2}
        .h{fill:none;stroke:#ffffff;stroke-width:0.28;stroke-dasharray:1.6 0.9;stroke-opacity:0.85}
        .c{fill:none;stroke:#a9dcff;stroke-width:0.18;stroke-dasharray:7 1.2 1.2 1.2}
        .ph{fill:none;stroke:#a9dcff;stroke-width:0.22;stroke-dasharray:5 1 1 1 1 1}
        .cut{fill:none;stroke:#ffe08a;stroke-width:0.3;stroke-dasharray:9 1.5 1.5 1.5}
        .cutw{fill:none;stroke:#ffe08a;stroke-width:0.9;stroke-linecap:butt}
        .ah{fill:#a9dcff;stroke:none}
        .bal{fill:#0b3d91;stroke:#ffffff;stroke-width:0.35}
        .gl{fill:#7fd0ff;fill-opacity:0.22;stroke:#ffffff;stroke-width:0.4}
        .f2{fill:#ffffff;fill-opacity:0.07;stroke:#ffffff;stroke-width:0.4}
        .fb{fill:#ffe08a;fill-opacity:0.1;stroke:#ffffff;stroke-width:0.4}
        .solid{fill:#ffffff;stroke:none}
        text{white-space:pre}
        .tx{fill:#ffffff;font-family:'DejaVu Sans Mono','Liberation Mono',monospace}
        .td{fill:#a9dcff;font-family:'DejaVu Sans Mono','Liberation Mono',monospace}
        .ta{fill:#ffe08a;font-family:'DejaVu Sans Mono','Liberation Mono',monospace}
        </style>
<defs>
        <pattern id="hA" patternUnits="userSpaceOnUse" width="1.1" height="1.1" patternTransform="rotate(45)">
          <line x1="0" y1="0" x2="0" y2="1.1" stroke="#ffffff" stroke-width="0.16" stroke-opacity="0.85"/></pattern>
        <pattern id="hB" patternUnits="userSpaceOnUse" width="1.1" height="1.1" patternTransform="rotate(-45)">
          <line x1="0" y1="0" x2="0" y2="1.1" stroke="#ffffff" stroke-width="0.16" stroke-opacity="0.85"/></pattern>
        <pattern id="hC" patternUnits="userSpaceOnUse" width="0.8" height="0.8" patternTransform="rotate(45)">
          <line x1="0" y1="0" x2="0" y2="0.8" stroke="#ffffff" stroke-width="0.12" stroke-opacity="0.8"/>
          <line x1="0" y1="0" x2="0.8" y2="0" stroke="#ffffff" stroke-width="0.12" stroke-opacity="0.8"/></pattern>
        <pattern id="hD" patternUnits="userSpaceOnUse" width="2.2" height="2.2" patternTransform="rotate(45)">
          <line x1="0" y1="0" x2="0" y2="2.2" stroke="#ffffff" stroke-width="0.14" stroke-opacity="0.6"/></pattern>
        <pattern id="hS" patternUnits="userSpaceOnUse" width="0.7" height="0.7" patternTransform="rotate(45)">
          <line x1="0" y1="0" x2="0" y2="0.7" stroke="#ffffff" stroke-width="0.22"/></pattern>
        <clipPath id="clp1"><path d="M272 152 L272.021 150.429 L272.082 148.86 L272.185 147.292 L272.329 145.728 L272.513 144.168 L272.739 142.614 L273.005 141.066 L273.311 139.525 L273.658 137.993 L274.044 136.471 L274.471 134.959 L274.937 133.459 L275.442 131.972 L275.985 130.498 L276.567 129.039 L277.187 127.596 L277.845 126.169 L278.54 124.761 L279.271 123.37 L280.038 122 L280.842 120.65 L281.68 119.322 L282.552 118.016 L283.459 116.733 L284.399 115.474 L285.371 114.241 L286.376 113.033 L287.411 111.852 L288.478 110.699 L289.574 109.574 L290.699 108.478 L291.852 107.411 L293.033 106.376 L294.241 105.371 L295.474 104.399 L296.733 103.459 L298.016 102.552 L299.322 101.68 L300.65 100.842 L302 100.038 L303.37 99.271 L304.761 98.54 L306.169 97.845 L307.596 97.187 L309.039 96.567 L310.498 95.985 L311.972 95.442 L313.459 94.937 L314.959 94.471 L316.471 94.044 L317.993 93.658 L319.525 93.311 L321.066 93.005 L322.614 92.739 L324.168 92.513 L325.728 92.329 L327.292 92.185 L328.86 92.082 L330.429 92.021 L332 92 L333.571 92.021 L335.14 92.082 L336.708 92.185 L338.272 92.329 L339.832 92.513 L341.386 92.739 L342.934 93.005 L344.475 93.311 L346.007 93.658 L347.529 94.044 L349.041 94.471 L350.541 94.937 L352.028 95.442 L353.502 95.985 L354.961 96.567 L356.404 97.187 L357.831 97.845 L359.239 98.54 L360.63 99.271 L362 100.038 L363.35 100.842 L364.678 101.68 L365.984 102.552 L367.267 103.459 L368.526 104.399 L369.759 105.371 L370.967 106.376 L372.148 107.411 L373.301 108.478 L374.426 109.574 L375.522 110.699 L376.589 111.852 L377.624 113.033 L378.629 114.241 L379.601 115.474 L380.541 116.733 L381.448 118.016 L382.32 119.322 L383.158 120.65 L383.962 122 L384.729 123.37 L385.46 124.761 L386.155 126.169 L386.813 127.596 L387.433 129.039 L388.015 130.498 L388.558 131.972 L389.063 133.459 L389.529 134.959 L389.956 136.471 L390.342 137.993 L390.689 139.525 L390.995 141.066 L391.261 142.614 L391.487 144.168 L391.671 145.728 L391.815 147.292 L391.918 148.86 L391.979 150.429 L392 152 L391.984 156.611 L391.937 159.857 L391.858 162.729 L391.747 165.378 L391.605 167.87 L391.431 170.242 L391.226 172.515 L390.989 174.704 L390.721 176.82 L390.421 178.87 L390.09 180.861 L389.728 182.796 L389.335 184.679 L388.91 186.514 L388.455 188.301 L387.969 190.044 L387.451 191.743 L386.903 193.4 L386.325 195.016 L385.715 196.591 L385.076 198.127 L384.405 199.623 L383.705 201.081 L382.974 202.5 L382.213 203.88 L381.422 205.223 L380.601 206.528 L379.75 207.794 L378.87 209.023 L377.959 210.215 L377.019 211.368 L376.048 212.484 L375.048 213.562 L374.018 214.602 L372.958 215.603 L371.868 216.567 L370.748 217.493 L369.597 218.38 L368.416 219.229 L367.204 220.039 L365.96 220.811 L364.684 221.544 L363.376 222.238 L362.035 222.893 L360.659 223.51 L359.248 224.086 L357.799 224.624 L356.313 225.122 L354.785 225.581 L353.213 226 L351.595 226.379 L349.924 226.719 L348.196 227.019 L346.401 227.279 L344.529 227.499 L342.561 227.68 L340.47 227.82 L338.203 227.92 L335.641 227.98 L332 228 L328.359 227.98 L325.797 227.92 L323.53 227.82 L321.439 227.68 L319.471 227.499 L317.599 227.279 L315.804 227.019 L314.076 226.719 L312.405 226.379 L310.787 226 L309.215 225.581 L307.687 225.122 L306.201 224.624 L304.752 224.086 L303.341 223.51 L301.965 222.893 L300.624 222.238 L299.316 221.544 L298.04 220.811 L296.796 220.039 L295.584 219.229 L294.403 218.38 L293.252 217.493 L292.132 216.567 L291.042 215.603 L289.982 214.602 L288.952 213.562 L287.952 212.484 L286.981 211.368 L286.041 210.215 L285.13 209.023 L284.25 207.794 L283.399 206.528 L282.578 205.223 L281.787 203.88 L281.026 202.5 L280.295 201.081 L279.595 199.623 L278.924 198.127 L278.285 196.591 L277.675 195.016 L277.097 193.4 L276.549 191.743 L276.031 190.044 L275.545 188.301 L275.09 186.514 L274.665 184.679 L274.272 182.796 L273.91 180.861 L273.579 178.87 L273.279 176.82 L273.011 174.704 L272.774 172.515 L272.569 170.242 L272.395 167.87 L272.253 165.378 L272.142 162.729 L272.063 159.857 L272.016 156.611 Z"/></clipPath></defs>
<rect class="bgf" x="0" y="0" width="420" height="297" rx="0" />
<g><line x1="10" y1="10" x2="10" y2="287" stroke="#ffffff" stroke-opacity="0.11" stroke-width="0.16"/><line x1="15" y1="10" x2="15" y2="287" stroke="#ffffff" stroke-opacity="0.055" stroke-width="0.1"/><line x1="20" y1="10" x2="20" y2="287" stroke="#ffffff" stroke-opacity="0.055" stroke-width="0.1"/><line x1="25" y1="10" x2="25" y2="287" stroke="#ffffff" stroke-opacity="0.055" stroke-width="0.1"/><line x1="30" y1="10" x2="30" y2="287" stroke="#ffffff" stroke-opacity="0.055" stroke-width="0.1"/><line x1="35" y1="10" x2="35" y2="287" stroke="#ffffff" stroke-opacity="0.11" stroke-width="0.16"/><line x1="40" y1="10" x2="40" y2="287" stroke="#ffffff" stroke-opacity="0.055" stroke-width="0.1"/><line x1="45" y1="10" x2="45" y2="287" stroke="#ffffff" stroke-opacity="0.055" stroke-width="0.1"/><line x1="50" y1="10" x2="50" y2="287" stroke="#ffffff" stroke-opacity="0.055" stroke-width="0.1"/><line x1="55" y1="10" x2="55" y2="287" stroke="#ffffff" stroke-opacity="0.055" stroke-width="0.1"/><line x1="60" y1="10" x2="60" y2="287" stroke="#ffffff" stroke-opacity="0.11" stroke-width="0.16"/><line x1="65" y1="10" x2="65" y2="287" stroke="#ffffff" stroke-opacity="0.055" stroke-width="0.1"/><line x1="70" y1="10" x2="70" y2="287" stroke="#ffffff" stroke-opacity="0.055" stroke-width="0.1"/><line x1="75" y1="10" x2="75" y2="287" stroke="#ffffff" stroke-opacity="0.055" stroke-width="0.1"/><line x1="80" y1="10" x2="80" y2="287" stroke="#ffffff" stroke-opacity="0.055" stroke-width="0.1"/><line x1="85" y1="10" x2="85" y2="287" stroke="#ffffff" stroke-opacity="0.11" stroke-width="0.16"/><line x1="90" y1="10" x2="90" y2="287" stroke="#ffffff" stroke-opacity="0.055" stroke-width="0.1"/><line x1="95" y1="10" x2="95" y2="287" stroke="#ffffff" stroke-opacity="0.055" stroke-width="0.1"/><line x1="100" y1="10" x2="100" y2="287" stroke="#ffffff" stroke-opacity="0.055" stroke-width="0.1"/><line x1="105" y1="10" x2="105" y2="287" stroke="#ffffff" stroke-opacity="0.055" stroke-width="0.1"/><line x1="110" y1="10" x2="110" y2="287" stroke="#ffffff" stroke-opacity="0.11" stroke-width="0.16"/><line x1="115" y1="10" x2="115" y2="287" stroke="#ffffff" stroke-opacity="0.055" stroke-width="0.1"/><line x1="120" y1="10" x2="120" y2="287" stroke="#ffffff" stroke-opacity="0.055" stroke-width="0.1"/><line x1="125" y1="10" x2="125" y2="287" stroke="#ffffff" stroke-opacity="0.055" stroke-width="0.1"/><line x1="130" y1="10" x2="130" y2="287" stroke="#ffffff" stroke-opacity="0.055" stroke-width="0.1"/><line x1="135" y1="10" x2="135" y2="287" stroke="#ffffff" stroke-opacity="0.11" stroke-width="0.16"/><line x1="140" y1="10" x2="140" y2="287" stroke="#ffffff" stroke-opacity="0.055" stroke-width="0.1"/><line x1="145" y1="10" x2="145" y2="287" stroke="#ffffff" stroke-opacity="0.055" stroke-width="0.1"/><line x1="150" y1="10" x2="150" y2="287" stroke="#ffffff" stroke-opacity="0.055" stroke-width="0.1"/><line x1="155" y1="10" x2="155" y2="287" stroke="#ffffff" stroke-opacity="0.055" stroke-width="0.1"/><line x1="160" y1="10" x2="160" y2="287" stroke="#ffffff" stroke-opacity="0.11" stroke-width="0.16"/><line x1="165" y1="10" x2="165" y2="287" stroke="#ffffff" stroke-opacity="0.055" stroke-width="0.1"/><line x1="170" y1="10" x2="170" y2="287" stroke="#ffffff" stroke-opacity="0.055" stroke-width="0.1"/><line x1="175" y1="10" x2="175" y2="287" stroke="#ffffff" stroke-opacity="0.055" stroke-width="0.1"/><line x1="180" y1="10" x2="180" y2="287" stroke="#ffffff" stroke-opacity="0.055" stroke-width="0.1"/><line x1="185" y1="10" x2="185" y2="287" stroke="#ffffff" stroke-opacity="0.11" stroke-width="0.16"/><line x1="190" y1="10" x2="190" y2="287" stroke="#ffffff" stroke-opacity="0.055" stroke-width="0.1"/><line x1="195" y1="10" x2="195" y2="287" stroke="#ffffff" stroke-opacity="0.055" stroke-width="0.1"/><line x1="200" y1="10" x2="200" y2="287" stroke="#ffffff" stroke-opacity="0.055" stroke-width="0.1"/><line x1="205" y1="10" x2="205" y2="287" stroke="#ffffff" stroke-opacity="0.055" stroke-width="0.1"/><line x1="210" y1="10" x2="210" y2="287" stroke="#ffffff" stroke-opacity="0.11" stroke-width="0.16"/><line x1="215" y1="10" x2="215" y2="287" stroke="#ffffff" stroke-opacity="0.055" stroke-width="0.1"/><line x1="220" y1="10" x2="220" y2="287" stroke="#ffffff" stroke-opacity="0.055" stroke-width="0.1"/><line x1="225" y1="10" x2="225" y2="287" stroke="#ffffff" stroke-opacity="0.055" stroke-width="0.1"/><line x1="230" y1="10" x2="230" y2="287" stroke="#ffffff" stroke-opacity="0.055" stroke-width="0.1"/><line x1="235" y1="10" x2="235" y2="287" stroke="#ffffff" stroke-opacity="0.11" stroke-width="0.16"/><line x1="240" y1="10" x2="240" y2="287" stroke="#ffffff" stroke-opacity="0.055" stroke-width="0.1"/><line x1="245" y1="10" x2="245" y2="287" stroke="#ffffff" stroke-opacity="0.055" stroke-width="0.1"/><line x1="250" y1="10" x2="250" y2="287" stroke="#ffffff" stroke-opacity="0.055" stroke-width="0.1"/><line x1="255" y1="10" x2="255" y2="287" stroke="#ffffff" stroke-opacity="0.055" stroke-width="0.1"/><line x1="260" y1="10" x2="260" y2="287" stroke="#ffffff" stroke-opacity="0.11" stroke-width="0.16"/><line x1="265" y1="10" x2="265" y2="287" stroke="#ffffff" stroke-opacity="0.055" stroke-width="0.1"/><line x1="270" y1="10" x2="270" y2="287" stroke="#ffffff" stroke-opacity="0.055" stroke-width="0.1"/><line x1="275" y1="10" x2="275" y2="287" stroke="#ffffff" stroke-opacity="0.055" stroke-width="0.1"/><line x1="280" y1="10" x2="280" y2="287" stroke="#ffffff" stroke-opacity="0.055" stroke-width="0.1"/><line x1="285" y1="10" x2="285" y2="287" stroke="#ffffff" stroke-opacity="0.11" stroke-width="0.16"/><line x1="290" y1="10" x2="290" y2="287" stroke="#ffffff" stroke-opacity="0.055" stroke-width="0.1"/><line x1="295" y1="10" x2="295" y2="287" stroke="#ffffff" stroke-opacity="0.055" stroke-width="0.1"/><line x1="300" y1="10" x2="300" y2="287" stroke="#ffffff" stroke-opacity="0.055" stroke-width="0.1"/><line x1="305" y1="10" x2="305" y2="287" stroke="#ffffff" stroke-opacity="0.055" stroke-width="0.1"/><line x1="310" y1="10" x2="310" y2="287" stroke="#ffffff" stroke-opacity="0.11" stroke-width="0.16"/><line x1="315" y1="10" x2="315" y2="287" stroke="#ffffff" stroke-opacity="0.055" stroke-width="0.1"/><line x1="320" y1="10" x2="320" y2="287" stroke="#ffffff" stroke-opacity="0.055" stroke-width="0.1"/><line x1="325" y1="10" x2="325" y2="287" stroke="#ffffff" stroke-opacity="0.055" stroke-width="0.1"/><line x1="330" y1="10" x2="330" y2="287" stroke="#ffffff" stroke-opacity="0.055" stroke-width="0.1"/><line x1="335" y1="10" x2="335" y2="287" stroke="#ffffff" stroke-opacity="0.11" stroke-width="0.16"/><line x1="340" y1="10" x2="340" y2="287" stroke="#ffffff" stroke-opacity="0.055" stroke-width="0.1"/><line x1="345" y1="10" x2="345" y2="287" stroke="#ffffff" stroke-opacity="0.055" stroke-width="0.1"/><line x1="350" y1="10" x2="350" y2="287" stroke="#ffffff" stroke-opacity="0.055" stroke-width="0.1"/><line x1="355" y1="10" x2="355" y2="287" stroke="#ffffff" stroke-opacity="0.055" stroke-width="0.1"/><line x1="360" y1="10" x2="360" y2="287" stroke="#ffffff" stroke-opacity="0.11" stroke-width="0.16"/><line x1="365" y1="10" x2="365" y2="287" stroke="#ffffff" stroke-opacity="0.055" stroke-width="0.1"/><line x1="370" y1="10" x2="370" y2="287" stroke="#ffffff" stroke-opacity="0.055" stroke-width="0.1"/><line x1="375" y1="10" x2="375" y2="287" stroke="#ffffff" stroke-opacity="0.055" stroke-width="0.1"/><line x1="380" y1="10" x2="380" y2="287" stroke="#ffffff" stroke-opacity="0.055" stroke-width="0.1"/><line x1="385" y1="10" x2="385" y2="287" stroke="#ffffff" stroke-opacity="0.11" stroke-width="0.16"/><line x1="390" y1="10" x2="390" y2="287" stroke="#ffffff" stroke-opacity="0.055" stroke-width="0.1"/><line x1="395" y1="10" x2="395" y2="287" stroke="#ffffff" stroke-opacity="0.055" stroke-width="0.1"/><line x1="400" y1="10" x2="400" y2="287" stroke="#ffffff" stroke-opacity="0.055" stroke-width="0.1"/><line x1="405" y1="10" x2="405" y2="287" stroke="#ffffff" stroke-opacity="0.055" stroke-width="0.1"/><line x1="410" y1="10" x2="410" y2="287" stroke="#ffffff" stroke-opacity="0.11" stroke-width="0.16"/><line x1="10" y1="10" x2="410" y2="10" stroke="#ffffff" stroke-opacity="0.11" stroke-width="0.16"/><line x1="10" y1="15" x2="410" y2="15" stroke="#ffffff" stroke-opacity="0.055" stroke-width="0.1"/><line x1="10" y1="20" x2="410" y2="20" stroke="#ffffff" stroke-opacity="0.055" stroke-width="0.1"/><line x1="10" y1="25" x2="410" y2="25" stroke="#ffffff" stroke-opacity="0.055" stroke-width="0.1"/><line x1="10" y1="30" x2="410" y2="30" stroke="#ffffff" stroke-opacity="0.055" stroke-width="0.1"/><line x1="10" y1="35" x2="410" y2="35" stroke="#ffffff" stroke-opacity="0.11" stroke-width="0.16"/><line x1="10" y1="40" x2="410" y2="40" stroke="#ffffff" stroke-opacity="0.055" stroke-width="0.1"/><line x1="10" y1="45" x2="410" y2="45" stroke="#ffffff" stroke-opacity="0.055" stroke-width="0.1"/><line x1="10" y1="50" x2="410" y2="50" stroke="#ffffff" stroke-opacity="0.055" stroke-width="0.1"/><line x1="10" y1="55" x2="410" y2="55" stroke="#ffffff" stroke-opacity="0.055" stroke-width="0.1"/><line x1="10" y1="60" x2="410" y2="60" stroke="#ffffff" stroke-opacity="0.11" stroke-width="0.16"/><line x1="10" y1="65" x2="410" y2="65" stroke="#ffffff" stroke-opacity="0.055" stroke-width="0.1"/><line x1="10" y1="70" x2="410" y2="70" stroke="#ffffff" stroke-opacity="0.055" stroke-width="0.1"/><line x1="10" y1="75" x2="410" y2="75" stroke="#ffffff" stroke-opacity="0.055" stroke-width="0.1"/><line x1="10" y1="80" x2="410" y2="80" stroke="#ffffff" stroke-opacity="0.055" stroke-width="0.1"/><line x1="10" y1="85" x2="410" y2="85" stroke="#ffffff" stroke-opacity="0.11" stroke-width="0.16"/><line x1="10" y1="90" x2="410" y2="90" stroke="#ffffff" stroke-opacity="0.055" stroke-width="0.1"/><line x1="10" y1="95" x2="410" y2="95" stroke="#ffffff" stroke-opacity="0.055" stroke-width="0.1"/><line x1="10" y1="100" x2="410" y2="100" stroke="#ffffff" stroke-opacity="0.055" stroke-width="0.1"/><line x1="10" y1="105" x2="410" y2="105" stroke="#ffffff" stroke-opacity="0.055" stroke-width="0.1"/><line x1="10" y1="110" x2="410" y2="110" stroke="#ffffff" stroke-opacity="0.11" stroke-width="0.16"/><line x1="10" y1="115" x2="410" y2="115" stroke="#ffffff" stroke-opacity="0.055" stroke-width="0.1"/><line x1="10" y1="120" x2="410" y2="120" stroke="#ffffff" stroke-opacity="0.055" stroke-width="0.1"/><line x1="10" y1="125" x2="410" y2="125" stroke="#ffffff" stroke-opacity="0.055" stroke-width="0.1"/><line x1="10" y1="130" x2="410" y2="130" stroke="#ffffff" stroke-opacity="0.055" stroke-width="0.1"/><line x1="10" y1="135" x2="410" y2="135" stroke="#ffffff" stroke-opacity="0.11" stroke-width="0.16"/><line x1="10" y1="140" x2="410" y2="140" stroke="#ffffff" stroke-opacity="0.055" stroke-width="0.1"/><line x1="10" y1="145" x2="410" y2="145" stroke="#ffffff" stroke-opacity="0.055" stroke-width="0.1"/><line x1="10" y1="150" x2="410" y2="150" stroke="#ffffff" stroke-opacity="0.055" stroke-width="0.1"/><line x1="10" y1="155" x2="410" y2="155" stroke="#ffffff" stroke-opacity="0.055" stroke-width="0.1"/><line x1="10" y1="160" x2="410" y2="160" stroke="#ffffff" stroke-opacity="0.11" stroke-width="0.16"/><line x1="10" y1="165" x2="410" y2="165" stroke="#ffffff" stroke-opacity="0.055" stroke-width="0.1"/><line x1="10" y1="170" x2="410" y2="170" stroke="#ffffff" stroke-opacity="0.055" stroke-width="0.1"/><line x1="10" y1="175" x2="410" y2="175" stroke="#ffffff" stroke-opacity="0.055" stroke-width="0.1"/><line x1="10" y1="180" x2="410" y2="180" stroke="#ffffff" stroke-opacity="0.055" stroke-width="0.1"/><line x1="10" y1="185" x2="410" y2="185" stroke="#ffffff" stroke-opacity="0.11" stroke-width="0.16"/><line x1="10" y1="190" x2="410" y2="190" stroke="#ffffff" stroke-opacity="0.055" stroke-width="0.1"/><line x1="10" y1="195" x2="410" y2="195" stroke="#ffffff" stroke-opacity="0.055" stroke-width="0.1"/><line x1="10" y1="200" x2="410" y2="200" stroke="#ffffff" stroke-opacity="0.055" stroke-width="0.1"/><line x1="10" y1="205" x2="410" y2="205" stroke="#ffffff" stroke-opacity="0.055" stroke-width="0.1"/><line x1="10" y1="210" x2="410" y2="210" stroke="#ffffff" stroke-opacity="0.11" stroke-width="0.16"/><line x1="10" y1="215" x2="410" y2="215" stroke="#ffffff" stroke-opacity="0.055" stroke-width="0.1"/><line x1="10" y1="220" x2="410" y2="220" stroke="#ffffff" stroke-opacity="0.055" stroke-width="0.1"/><line x1="10" y1="225" x2="410" y2="225" stroke="#ffffff" stroke-opacity="0.055" stroke-width="0.1"/><line x1="10" y1="230" x2="410" y2="230" stroke="#ffffff" stroke-opacity="0.055" stroke-width="0.1"/><line x1="10" y1="235" x2="410" y2="235" stroke="#ffffff" stroke-opacity="0.11" stroke-width="0.16"/><line x1="10" y1="240" x2="410" y2="240" stroke="#ffffff" stroke-opacity="0.055" stroke-width="0.1"/><line x1="10" y1="245" x2="410" y2="245" stroke="#ffffff" stroke-opacity="0.055" stroke-width="0.1"/><line x1="10" y1="250" x2="410" y2="250" stroke="#ffffff" stroke-opacity="0.055" stroke-width="0.1"/><line x1="10" y1="255" x2="410" y2="255" stroke="#ffffff" stroke-opacity="0.055" stroke-width="0.1"/><line x1="10" y1="260" x2="410" y2="260" stroke="#ffffff" stroke-opacity="0.11" stroke-width="0.16"/><line x1="10" y1="265" x2="410" y2="265" stroke="#ffffff" stroke-opacity="0.055" stroke-width="0.1"/><line x1="10" y1="270" x2="410" y2="270" stroke="#ffffff" stroke-opacity="0.055" stroke-width="0.1"/><line x1="10" y1="275" x2="410" y2="275" stroke="#ffffff" stroke-opacity="0.055" stroke-width="0.1"/><line x1="10" y1="280" x2="410" y2="280" stroke="#ffffff" stroke-opacity="0.055" stroke-width="0.1"/><line x1="10" y1="285" x2="410" y2="285" stroke="#ffffff" stroke-opacity="0.11" stroke-width="0.16"/></g>
<rect class="fr1" x="5" y="5" width="410" height="287" rx="0" />
<rect class="fr2" x="10" y="10" width="400" height="277" rx="0" />
<line class="fr1" x1="60" y1="5" x2="60" y2="10" />
<line class="fr1" x1="60" y1="287" x2="60" y2="292" />
<line class="fr1" x1="110" y1="5" x2="110" y2="10" />
<line class="fr1" x1="110" y1="287" x2="110" y2="292" />
<line class="fr1" x1="160" y1="5" x2="160" y2="10" />
<line class="fr1" x1="160" y1="287" x2="160" y2="292" />
<line class="fr1" x1="210" y1="5" x2="210" y2="10" />
<line class="fr1" x1="210" y1="287" x2="210" y2="292" />
<line class="fr1" x1="260" y1="5" x2="260" y2="10" />
<line class="fr1" x1="260" y1="287" x2="260" y2="292" />
<line class="fr1" x1="310" y1="5" x2="310" y2="10" />
<line class="fr1" x1="310" y1="287" x2="310" y2="292" />
<line class="fr1" x1="360" y1="5" x2="360" y2="10" />
<line class="fr1" x1="360" y1="287" x2="360" y2="292" />
<text class="td" x="35" y="8.6" font-size="2.4" text-anchor="middle" >1</text>
<text class="td" x="35" y="290.6" font-size="2.4" text-anchor="middle" >1</text>
<text class="td" x="85" y="8.6" font-size="2.4" text-anchor="middle" >2</text>
<text class="td" x="85" y="290.6" font-size="2.4" text-anchor="middle" >2</text>
<text class="td" x="135" y="8.6" font-size="2.4" text-anchor="middle" >3</text>
<text class="td" x="135" y="290.6" font-size="2.4" text-anchor="middle" >3</text>
<text class="td" x="185" y="8.6" font-size="2.4" text-anchor="middle" >4</text>
<text class="td" x="185" y="290.6" font-size="2.4" text-anchor="middle" >4</text>
<text class="td" x="235" y="8.6" font-size="2.4" text-anchor="middle" >5</text>
<text class="td" x="235" y="290.6" font-size="2.4" text-anchor="middle" >5</text>
<text class="td" x="285" y="8.6" font-size="2.4" text-anchor="middle" >6</text>
<text class="td" x="285" y="290.6" font-size="2.4" text-anchor="middle" >6</text>
<text class="td" x="335" y="8.6" font-size="2.4" text-anchor="middle" >7</text>
<text class="td" x="335" y="290.6" font-size="2.4" text-anchor="middle" >7</text>
<text class="td" x="385" y="8.6" font-size="2.4" text-anchor="middle" >8</text>
<text class="td" x="385" y="290.6" font-size="2.4" text-anchor="middle" >8</text>
<line class="fr1" x1="5" y1="56.167" x2="10" y2="56.167" />
<line class="fr1" x1="410" y1="56.167" x2="415" y2="56.167" />
<line class="fr1" x1="5" y1="102.333" x2="10" y2="102.333" />
<line class="fr1" x1="410" y1="102.333" x2="415" y2="102.333" />
<line class="fr1" x1="5" y1="148.5" x2="10" y2="148.5" />
<line class="fr1" x1="410" y1="148.5" x2="415" y2="148.5" />
<line class="fr1" x1="5" y1="194.667" x2="10" y2="194.667" />
<line class="fr1" x1="410" y1="194.667" x2="415" y2="194.667" />
<line class="fr1" x1="5" y1="240.833" x2="10" y2="240.833" />
<line class="fr1" x1="410" y1="240.833" x2="415" y2="240.833" />
<text class="td" x="7.5" y="33.983" font-size="2.4" text-anchor="middle" >A</text>
<text class="td" x="412.5" y="33.983" font-size="2.4" text-anchor="middle" >A</text>
<text class="td" x="7.5" y="80.15" font-size="2.4" text-anchor="middle" >B</text>
<text class="td" x="412.5" y="80.15" font-size="2.4" text-anchor="middle" >B</text>
<text class="td" x="7.5" y="126.317" font-size="2.4" text-anchor="middle" >C</text>
<text class="td" x="412.5" y="126.317" font-size="2.4" text-anchor="middle" >C</text>
<text class="td" x="7.5" y="172.483" font-size="2.4" text-anchor="middle" >D</text>
<text class="td" x="412.5" y="172.483" font-size="2.4" text-anchor="middle" >D</text>
<text class="td" x="7.5" y="218.65" font-size="2.4" text-anchor="middle" >E</text>
<text class="td" x="412.5" y="218.65" font-size="2.4" text-anchor="middle" >E</text>
<text class="td" x="7.5" y="264.817" font-size="2.4" text-anchor="middle" >F</text>
<text class="td" x="412.5" y="264.817" font-size="2.4" text-anchor="middle" >F</text>
<line class="fr2" x1="210" y1="0" x2="210" y2="10" />
<line class="fr2" x1="210" y1="287" x2="210" y2="297" />
<line class="fr2" x1="0" y1="148.5" x2="10" y2="148.5" />
<line class="fr2" x1="410" y1="148.5" x2="420" y2="148.5" />
<path class="o" d="M152 152 L151.979 150.429 L151.918 148.86 L151.815 147.292 L151.671 145.728 L151.487 144.168 L151.261 142.614 L150.995 141.066 L150.689 139.525 L150.342 137.993 L149.956 136.471 L149.529 134.959 L149.063 133.459 L148.558 131.972 L148.015 130.498 L147.433 129.039 L146.813 127.596 L146.155 126.169 L145.46 124.761 L144.729 123.37 L143.962 122 L143.158 120.65 L142.32 119.322 L141.448 118.016 L140.541 116.733 L139.601 115.474 L138.629 114.241 L137.624 113.033 L136.589 111.852 L135.522 110.699 L134.426 109.574 L133.301 108.478 L132.148 107.411 L130.967 106.376 L129.759 105.371 L128.526 104.399 L127.267 103.459 L125.984 102.552 L124.678 101.68 L123.35 100.842 L122 100.038 L120.63 99.271 L119.239 98.54 L117.831 97.845 L116.404 97.187 L114.961 96.567 L113.502 95.985 L112.028 95.442 L110.541 94.937 L109.041 94.471 L107.529 94.044 L106.007 93.658 L104.475 93.311 L102.934 93.005 L101.386 92.739 L99.832 92.513 L98.272 92.329 L96.708 92.185 L95.14 92.082 L93.571 92.021 L92 92 L90.429 92.021 L88.86 92.082 L87.292 92.185 L85.728 92.329 L84.168 92.513 L82.614 92.739 L81.066 93.005 L79.525 93.311 L77.993 93.658 L76.471 94.044 L74.959 94.471 L73.459 94.937 L71.972 95.442 L70.498 95.985 L69.039 96.567 L67.596 97.187 L66.169 97.845 L64.761 98.54 L63.37 99.271 L62 100.038 L60.65 100.842 L59.322 101.68 L58.016 102.552 L56.733 103.459 L55.474 104.399 L54.241 105.371 L53.033 106.376 L51.852 107.411 L50.699 108.478 L49.574 109.574 L48.478 110.699 L47.411 111.852 L46.376 113.033 L45.371 114.241 L44.399 115.474 L43.459 116.733 L42.552 118.016 L41.68 119.322 L40.842 120.65 L40.038 122 L39.271 123.37 L38.54 124.761 L37.845 126.169 L37.187 127.596 L36.567 129.039 L35.985 130.498 L35.442 131.972 L34.937 133.459 L34.471 134.959 L34.044 136.471 L33.658 137.993 L33.311 139.525 L33.005 141.066 L32.739 142.614 L32.513 144.168 L32.329 145.728 L32.185 147.292 L32.082 148.86 L32.021 150.429 L32 152 L32.016 156.611 L32.063 159.857 L32.142 162.729 L32.253 165.378 L32.395 167.87 L32.569 170.242 L32.774 172.515 L33.011 174.704 L33.279 176.82 L33.579 178.87 L33.91 180.861 L34.272 182.796 L34.665 184.679 L35.09 186.514 L35.545 188.301 L36.031 190.044 L36.549 191.743 L37.097 193.4 L37.675 195.016 L38.285 196.591 L38.924 198.127 L39.595 199.623 L40.295 201.081 L41.026 202.5 L41.787 203.88 L42.578 205.223 L43.399 206.528 L44.25 207.794 L45.13 209.023 L46.041 210.215 L46.981 211.368 L47.952 212.484 L48.952 213.562 L49.982 214.602 L51.042 215.603 L52.132 216.567 L53.252 217.493 L54.403 218.38 L55.584 219.229 L56.796 220.039 L58.04 220.811 L59.316 221.544 L60.624 222.238 L61.965 222.893 L63.341 223.51 L64.752 224.086 L66.201 224.624 L67.687 225.122 L69.215 225.581 L70.787 226 L72.405 226.379 L74.076 226.719 L75.804 227.019 L77.599 227.279 L79.471 227.499 L81.439 227.68 L83.53 227.82 L85.797 227.92 L88.359 227.98 L92 228 L95.641 227.98 L98.203 227.92 L100.47 227.82 L102.561 227.68 L104.529 227.499 L106.401 227.279 L108.196 227.019 L109.924 226.719 L111.595 226.379 L113.213 226 L114.785 225.581 L116.313 225.122 L117.799 224.624 L119.248 224.086 L120.659 223.51 L122.035 222.893 L123.376 222.238 L124.684 221.544 L125.96 220.811 L127.204 220.039 L128.416 219.229 L129.597 218.38 L130.748 217.493 L131.868 216.567 L132.958 215.603 L134.018 214.602 L135.048 213.562 L136.048 212.484 L137.019 211.368 L137.959 210.215 L138.87 209.023 L139.75 207.794 L140.601 206.528 L141.422 205.223 L142.213 203.88 L142.974 202.5 L143.705 201.081 L144.405 199.623 L145.076 198.127 L145.715 196.591 L146.325 195.016 L146.903 193.4 L147.451 191.743 L147.969 190.044 L148.455 188.301 L148.91 186.514 L149.335 184.679 L149.728 182.796 L150.09 180.861 L150.421 178.87 L150.721 176.82 L150.989 174.704 L151.226 172.515 L151.431 170.242 L151.605 167.87 L151.747 165.378 L151.858 162.729 L151.937 159.857 L151.984 156.611 Z" />
<path class="o3" d="M144 152.006 L143.982 150.639 L143.929 149.279 L143.84 147.92 L143.715 146.565 L143.555 145.213 L143.36 143.865 L143.129 142.524 L142.864 141.189 L142.563 139.861 L142.228 138.541 L141.859 137.231 L141.455 135.931 L141.017 134.642 L140.546 133.365 L140.042 132.1 L139.504 130.85 L138.934 129.613 L138.332 128.392 L137.698 127.188 L137.033 126 L136.337 124.83 L135.611 123.679 L134.855 122.547 L134.069 121.435 L133.254 120.344 L132.412 119.275 L131.541 118.229 L130.644 117.205 L129.719 116.206 L128.77 115.23 L127.794 114.281 L126.795 113.356 L125.771 112.459 L124.725 111.588 L123.656 110.746 L122.565 109.931 L121.453 109.145 L120.321 108.389 L119.17 107.663 L118 106.967 L116.812 106.302 L115.608 105.668 L114.387 105.066 L113.15 104.496 L111.9 103.958 L110.635 103.454 L109.358 102.983 L108.069 102.545 L106.769 102.141 L105.459 101.772 L104.139 101.437 L102.811 101.136 L101.476 100.871 L100.135 100.64 L98.787 100.445 L97.435 100.285 L96.08 100.16 L94.721 100.071 L93.361 100.018 L92 100 L90.639 100.018 L89.279 100.071 L87.92 100.16 L86.565 100.285 L85.213 100.445 L83.865 100.64 L82.524 100.871 L81.189 101.136 L79.861 101.437 L78.541 101.772 L77.231 102.141 L75.931 102.545 L74.642 102.983 L73.365 103.454 L72.1 103.958 L70.85 104.496 L69.613 105.066 L68.392 105.668 L67.188 106.302 L66 106.967 L64.83 107.663 L63.679 108.389 L62.547 109.145 L61.435 109.931 L60.344 110.746 L59.275 111.588 L58.229 112.459 L57.205 113.356 L56.206 114.281 L55.23 115.23 L54.281 116.206 L53.356 117.205 L52.459 118.229 L51.588 119.275 L50.746 120.344 L49.931 121.435 L49.145 122.547 L48.389 123.679 L47.663 124.83 L46.967 126 L46.302 127.188 L45.668 128.392 L45.066 129.613 L44.496 130.85 L43.958 132.1 L43.454 133.365 L42.983 134.642 L42.545 135.931 L42.141 137.231 L41.772 138.541 L41.437 139.861 L41.136 141.189 L40.871 142.524 L40.64 143.865 L40.445 145.213 L40.285 146.565 L40.16 147.92 L40.071 149.279 L40.018 150.639 L40 152.006 L40.016 156.547 L40.062 159.692 L40.138 162.454 L40.243 164.985 L40.378 167.351 L40.543 169.591 L40.735 171.726 L40.957 173.772 L41.206 175.74 L41.483 177.637 L41.788 179.47 L42.12 181.243 L42.478 182.961 L42.864 184.625 L43.275 186.239 L43.712 187.805 L44.174 189.323 L44.661 190.796 L45.173 192.225 L45.709 193.611 L46.268 194.954 L46.851 196.256 L47.458 197.517 L48.086 198.738 L48.737 199.92 L49.411 201.062 L50.106 202.167 L50.822 203.234 L51.561 204.264 L52.32 205.258 L53.101 206.215 L53.903 207.138 L54.727 208.025 L55.572 208.879 L56.44 209.699 L57.33 210.486 L58.243 211.241 L59.18 211.963 L60.142 212.654 L61.129 213.314 L62.142 213.943 L63.183 214.541 L64.254 215.109 L65.355 215.647 L66.489 216.155 L67.658 216.633 L68.863 217.08 L70.108 217.497 L71.395 217.884 L72.729 218.24 L74.114 218.564 L75.555 218.857 L77.06 219.118 L78.637 219.347 L80.3 219.542 L82.068 219.704 L83.971 219.832 L86.062 219.924 L88.463 219.981 L92 220 L95.537 219.981 L97.938 219.924 L100.029 219.832 L101.932 219.704 L103.7 219.542 L105.363 219.347 L106.94 219.118 L108.445 218.857 L109.886 218.564 L111.271 218.24 L112.605 217.884 L113.892 217.497 L115.137 217.08 L116.342 216.633 L117.511 216.155 L118.645 215.647 L119.746 215.109 L120.817 214.541 L121.858 213.943 L122.871 213.314 L123.858 212.654 L124.82 211.963 L125.757 211.241 L126.67 210.486 L127.56 209.699 L128.428 208.879 L129.273 208.025 L130.097 207.138 L130.899 206.215 L131.68 205.258 L132.439 204.264 L133.178 203.234 L133.894 202.167 L134.589 201.062 L135.263 199.92 L135.914 198.738 L136.542 197.517 L137.149 196.256 L137.732 194.954 L138.291 193.611 L138.827 192.225 L139.339 190.796 L139.826 189.323 L140.288 187.805 L140.725 186.239 L141.136 184.625 L141.522 182.961 L141.88 181.243 L142.212 179.47 L142.517 177.637 L142.794 175.74 L143.043 173.772 L143.265 171.726 L143.457 169.591 L143.622 167.351 L143.757 164.985 L143.862 162.454 L143.938 159.692 L143.984 156.547 Z" />
<path class="o" d="M142.76 152 L142.69 149.343 L142.482 146.694 L142.135 144.059 L141.651 141.446 L141.03 138.862 L140.276 136.314 L139.389 133.809 L138.372 131.354 L137.227 128.955 L135.959 126.62 L134.571 124.354 L133.066 122.164 L131.448 120.056 L129.722 118.035 L127.893 116.107 L125.965 114.278 L123.944 112.552 L121.836 110.934 L119.646 109.429 L117.38 108.041 L115.045 106.773 L112.646 105.628 L110.191 104.611 L107.686 103.724 L105.138 102.97 L102.554 102.349 L99.941 101.865 L97.306 101.518 L94.657 101.31 L92 101.24 L89.343 101.31 L86.694 101.518 L84.059 101.865 L81.446 102.349 L78.862 102.97 L76.314 103.724 L73.809 104.611 L71.354 105.628 L68.955 106.773 L66.62 108.041 L64.354 109.429 L62.164 110.934 L60.056 112.552 L58.035 114.278 L56.107 116.107 L54.278 118.035 L52.552 120.056 L50.934 122.164 L49.429 124.354 L48.041 126.62 L46.773 128.955 L45.628 131.354 L44.611 133.809 L43.724 136.314 L42.97 138.862 L42.349 141.446 L41.865 144.059 L41.518 146.694 L41.31 149.343 L41.24 152 L41.31 154.657 L41.518 157.306 L41.865 159.941 L42.349 162.554 L42.97 165.138 L43.724 167.686 L44.611 170.191 L45.628 172.646 L46.773 175.045 L48.041 177.38 L49.429 179.646 L50.934 181.836 L52.552 183.944 L54.278 185.965 L56.107 187.893 L58.035 189.722 L60.056 191.448 L62.164 193.066 L64.354 194.571 L66.62 195.959 L68.955 197.227 L71.354 198.372 L73.809 199.389 L76.314 200.276 L78.862 201.03 L81.446 201.651 L84.059 202.135 L86.694 202.482 L89.343 202.69 L92 202.76 L94.657 202.69 L97.306 202.482 L99.941 202.135 L102.554 201.651 L105.138 201.03 L107.686 200.276 L110.191 199.389 L112.646 198.372 L115.045 197.227 L117.38 195.959 L119.646 194.571 L121.836 193.066 L123.944 191.448 L125.965 189.722 L127.893 187.893 L129.722 185.965 L131.448 183.944 L133.066 181.836 L134.571 179.646 L135.959 177.38 L137.227 175.045 L138.372 172.646 L139.389 170.191 L140.276 167.686 L141.03 165.138 L141.651 162.554 L142.135 159.941 L142.482 157.306 L142.69 154.657 L142.76 152 Z" />
<path class="o2" d="M140.96 152 L140.893 149.438 L140.692 146.882 L140.357 144.341 L139.89 141.821 L139.292 139.328 L138.564 136.871 L137.708 134.454 L136.727 132.086 L135.624 129.773 L134.401 127.52 L133.061 125.334 L131.609 123.222 L130.049 121.188 L128.384 119.239 L126.62 117.38 L124.761 115.616 L122.812 113.951 L120.778 112.391 L118.666 110.939 L116.48 109.599 L114.227 108.376 L111.914 107.273 L109.546 106.292 L107.129 105.436 L104.672 104.708 L102.179 104.11 L99.659 103.643 L97.118 103.308 L94.562 103.107 L92 103.04 L89.438 103.107 L86.882 103.308 L84.341 103.643 L81.821 104.11 L79.328 104.708 L76.871 105.436 L74.454 106.292 L72.086 107.273 L69.773 108.376 L67.52 109.599 L65.334 110.939 L63.222 112.391 L61.188 113.951 L59.239 115.616 L57.38 117.38 L55.616 119.239 L53.951 121.188 L52.391 123.222 L50.939 125.334 L49.599 127.52 L48.376 129.773 L47.273 132.086 L46.292 134.454 L45.436 136.871 L44.708 139.328 L44.11 141.821 L43.643 144.341 L43.308 146.882 L43.107 149.438 L43.04 152 L43.107 154.562 L43.308 157.118 L43.643 159.659 L44.11 162.179 L44.708 164.672 L45.436 167.129 L46.292 169.546 L47.273 171.914 L48.376 174.227 L49.599 176.48 L50.939 178.666 L52.391 180.778 L53.951 182.812 L55.616 184.761 L57.38 186.62 L59.239 188.384 L61.188 190.049 L63.222 191.609 L65.334 193.061 L67.52 194.401 L69.773 195.624 L72.086 196.727 L74.454 197.708 L76.871 198.564 L79.328 199.292 L81.821 199.89 L84.341 200.357 L86.882 200.692 L89.438 200.893 L92 200.96 L94.562 200.893 L97.118 200.692 L99.659 200.357 L102.179 199.89 L104.672 199.292 L107.129 198.564 L109.546 197.708 L111.914 196.727 L114.227 195.624 L116.48 194.401 L118.666 193.061 L120.778 191.609 L122.812 190.049 L124.761 188.384 L126.62 186.62 L128.384 184.761 L130.049 182.812 L131.609 180.778 L133.061 178.666 L134.401 176.48 L135.624 174.227 L136.727 171.914 L137.708 169.546 L138.564 167.129 L139.292 164.672 L139.89 162.179 L140.357 159.659 L140.692 157.118 L140.893 154.562 L140.96 152 Z" />
<path class="ph" d="M135.76 152 L135.7 149.71 L135.52 147.426 L135.221 145.154 L134.804 142.902 L134.269 140.674 L133.618 138.477 L132.853 136.318 L131.977 134.201 L130.99 132.133 L129.897 130.12 L128.7 128.167 L127.403 126.279 L126.008 124.461 L124.52 122.719 L122.943 121.057 L121.281 119.48 L119.539 117.992 L117.721 116.597 L115.833 115.3 L113.88 114.103 L111.867 113.01 L109.799 112.023 L107.682 111.147 L105.523 110.382 L103.326 109.731 L101.098 109.196 L98.846 108.779 L96.574 108.48 L94.29 108.3 L92 108.24 L89.71 108.3 L87.426 108.48 L85.154 108.779 L82.902 109.196 L80.674 109.731 L78.477 110.382 L76.318 111.147 L74.201 112.023 L72.133 113.01 L70.12 114.103 L68.167 115.3 L66.279 116.597 L64.461 117.992 L62.719 119.48 L61.057 121.057 L59.48 122.719 L57.992 124.461 L56.597 126.279 L55.3 128.167 L54.103 130.12 L53.01 132.133 L52.023 134.201 L51.147 136.318 L50.382 138.477 L49.731 140.674 L49.196 142.902 L48.779 145.154 L48.48 147.426 L48.3 149.71 L48.24 152 L48.3 154.29 L48.48 156.574 L48.779 158.846 L49.196 161.098 L49.731 163.326 L50.382 165.523 L51.147 167.682 L52.023 169.799 L53.01 171.867 L54.103 173.88 L55.3 175.833 L56.597 177.721 L57.992 179.539 L59.48 181.281 L61.057 182.943 L62.719 184.52 L64.461 186.008 L66.279 187.403 L68.167 188.7 L70.12 189.897 L72.133 190.99 L74.201 191.977 L76.318 192.853 L78.477 193.618 L80.674 194.269 L82.902 194.804 L85.154 195.221 L87.426 195.52 L89.71 195.7 L92 195.76 L94.29 195.7 L96.574 195.52 L98.846 195.221 L101.098 194.804 L103.326 194.269 L105.523 193.618 L107.682 192.853 L109.799 191.977 L111.867 190.99 L113.88 189.897 L115.833 188.7 L117.721 187.403 L119.539 186.008 L121.281 184.52 L122.943 182.943 L124.52 181.281 L126.008 179.539 L127.403 177.721 L128.7 175.833 L129.897 173.88 L130.99 171.867 L131.977 169.799 L132.853 167.682 L133.618 165.523 L134.269 163.326 L134.804 161.098 L135.221 158.846 L135.52 156.574 L135.7 154.29 L135.76 152 Z" />
<path class="ph" d="M85 143.9 L84.748 141.985 L84.009 140.2 L82.833 138.667 L81.3 137.491 L79.515 136.752 L77.6 136.5 L75.685 136.752 L73.9 137.491 L72.367 138.667 L71.191 140.2 L70.452 141.985 L70.2 143.9 L70.2 154.1 L70.452 156.015 L71.191 157.8 L72.367 159.333 L73.9 160.509 L75.685 161.248 L77.6 161.5 L79.515 161.248 L81.3 160.509 L82.833 159.333 L84.009 157.8 L84.748 156.015 L85 154.1 Z" />
<path class="ph" d="M82.4 143 L82.233 142.158 L81.756 141.444 L81.042 140.967 L80.2 140.8 L79.358 140.967 L78.644 141.444 L78.167 142.158 L78 143 L78.167 143.842 L78.644 144.556 L79.358 145.033 L80.2 145.2 L81.042 145.033 L81.756 144.556 L82.233 143.842 L82.4 143 Z" />
<path class="ph" d="M113.8 143.9 L113.548 141.985 L112.809 140.2 L111.633 138.667 L110.1 137.491 L108.315 136.752 L106.4 136.5 L104.485 136.752 L102.7 137.491 L101.167 138.667 L99.991 140.2 L99.252 141.985 L99 143.9 L99 154.1 L99.252 156.015 L99.991 157.8 L101.167 159.333 L102.7 160.509 L104.485 161.248 L106.4 161.5 L108.315 161.248 L110.1 160.509 L111.633 159.333 L112.809 157.8 L113.548 156.015 L113.8 154.1 Z" />
<path class="ph" d="M106 143 L105.833 142.158 L105.356 141.444 L104.642 140.967 L103.8 140.8 L102.958 140.967 L102.244 141.444 L101.767 142.158 L101.6 143 L101.767 143.842 L102.244 144.556 L102.958 145.033 L103.8 145.2 L104.642 145.033 L105.356 144.556 L105.833 143.842 L106 143 Z" />
<line class="c" x1="92" y1="86" x2="92" y2="234" />
<line class="c" x1="24" y1="152" x2="160" y2="152" />
<line class="c" x1="24" y1="160" x2="38" y2="160" />
<line class="c" x1="146" y1="160" x2="160" y2="160" />
<line class="o2" x1="145.269" y1="124.388" x2="142.783" y2="125.677" />
<line class="o2" x1="136.166" y1="111.387" x2="134.105" y2="113.283" />
<path class="h" d="M142.783 125.677 L142.189 124.56 L141.57 123.458 L140.927 122.369 L140.26 121.295 L139.569 120.235 L138.855 119.191 L138.119 118.164 L137.36 117.152 L136.578 116.158 L135.775 115.182 L134.95 114.223 L134.105 113.283" />
<line class="h" x1="122" y1="100.038" x2="119" y2="105.235" />
<line class="h" x1="62" y1="100.038" x2="65" y2="105.235" />
<circle class="o2" cx="77.729" cy="210.278" r="0.8" />
<circle class="o2" cx="81.251" cy="211.029" r="0.8" />
<circle class="o2" cx="84.813" cy="211.568" r="0.8" />
<circle class="o2" cx="88.4" cy="211.892" r="0.8" />
<circle class="o2" cx="92" cy="212" r="0.8" />
<circle class="o2" cx="95.6" cy="211.892" r="0.8" />
<circle class="o2" cx="99.187" cy="211.568" r="0.8" />
<circle class="o2" cx="102.749" cy="211.029" r="0.8" />
<circle class="o2" cx="106.271" cy="210.278" r="0.8" />
<line class="cut" x1="92" y1="80" x2="92" y2="240" />
<line class="cutw" x1="92" y1="80" x2="85" y2="80" />
<path class="ah" d="M85 80 L88.2 78.9 L88.2 81.1 Z" />
<text class="tx" x="81.5" y="81.47" font-size="4.2" text-anchor="middle" font-weight="bold" >A</text>
<line class="cutw" x1="92" y1="240" x2="85" y2="240" />
<path class="ah" d="M85 240 L88.2 238.9 L88.2 241.1 Z" />
<text class="tx" x="81.5" y="241.47" font-size="4.2" text-anchor="middle" font-weight="bold" >A</text>
<line class="t" x1="24" y1="152" x2="18.4" y2="152" />
<line class="t" x1="24" y1="160" x2="18.4" y2="160" />
<line class="t" x1="20" y1="152" x2="20" y2="160" />
<path class="ah" d="M20 152 L20.55 154.3 L19.45 154.3 Z" />
<path class="ah" d="M20 160 L19.45 157.7 L20.55 157.7 Z" />
<text class="td" x="19.1" y="156" font-size="2.6" text-anchor="middle" transform="rotate(-90 19.1 156)" >4.0</text>
<text class="td" x="24.2" y="161.2" font-size="1.9" text-anchor="start" >BODY CL</text>
<text class="td" x="24.2" y="151.1" font-size="1.9" text-anchor="start" >DISPLAY CL</text>
<line class="t" x1="92" y1="152" x2="68.556" y2="96.77" />
<path class="ah" d="M68.556 96.77 L69.961 98.672 L68.949 99.102 Z" />
<text class="td" x="83.8" y="121" font-size="2.6" text-anchor="middle" >R30</text>
<line class="t" x1="62" y1="100.038" x2="44.492" y2="88" />
<path class="ah" d="M62 100.038 L59.793 99.189 L60.416 98.282 Z" />
<line class="t" x1="44.492" y1="88" x2="41.492" y2="88" />
<text class="td" x="40.692" y="88.805" font-size="2.3" text-anchor="end" >2× MIC PORT Ø0.8 (E)</text>
<line class="t" x1="48.041" y1="126.62" x2="43.107" y2="97" />
<path class="ah" d="M48.041 126.62 L47.12 124.442 L48.205 124.261 Z" />
<line class="t" x1="43.107" y1="97" x2="40.107" y2="97" />
<text class="td" x="39.307" y="97.805" font-size="2.3" text-anchor="end" >Ø50.76 FROSTED LIP</text>
<text class="td" x="39.307" y="100.68" font-size="2.3" text-anchor="end" >0.4 PROUD (0.3-0.5)</text>
<line class="t" x1="45.993" y1="135.255" x2="41.723" y2="107" />
<path class="ah" d="M45.993 135.255 L45.105 133.063 L46.193 132.898 Z" />
<line class="t" x1="41.723" y1="107" x2="38.723" y2="107" />
<text class="td" x="37.923" y="107.805" font-size="2.3" text-anchor="end" >Ø48.96 COVER GLASS</text>
<text class="td" x="37.923" y="110.68" font-size="2.3" text-anchor="end" >FLUSH, t1.10 (V)</text>
<line class="t" x1="59.48" y1="181.281" x2="41.723" y2="212" />
<path class="ah" d="M59.48 181.281 L58.805 183.548 L57.853 182.997 Z" />
<line class="t" x1="41.723" y1="212" x2="38.723" y2="212" />
<text class="td" x="37.923" y="212.805" font-size="2.3" text-anchor="end" >Ø43.76 ACTIVE AREA</text>
<text class="td" x="37.923" y="215.68" font-size="2.3" text-anchor="end" >466×466 px (V)</text>
<line class="t" x1="77.729" y1="210.278" x2="41.723" y2="224" />
<path class="ah" d="M77.729 210.278 L75.775 211.611 L75.384 210.583 Z" />
<line class="t" x1="41.723" y1="224" x2="38.723" y2="224" />
<text class="td" x="37.923" y="224.805" font-size="2.3" text-anchor="end" >SPEAKER GRILLE</text>
<text class="td" x="37.923" y="227.68" font-size="2.3" text-anchor="end" >9× Ø0.8 ON R30 (E)</text>
<line class="t" x1="139.281" y1="115.06" x2="156" y2="104" />
<path class="ah" d="M139.281 115.06 L140.895 113.333 L141.502 114.25 Z" />
<line class="t" x1="156" y1="104" x2="159" y2="104" />
<text class="td" x="159.8" y="104.805" font-size="2.3" text-anchor="start" >BUTTON 8×2.5, FLUSH</text>
<text class="td" x="159.8" y="107.68" font-size="2.3" text-anchor="start" >HOLD = TALK</text>
<text class="td" x="159.8" y="110.555" font-size="2.3" text-anchor="start" >HW MIC GATE (E)</text>
<line class="t" x1="134.018" y1="214.602" x2="156" y2="216" />
<path class="ah" d="M134.018 214.602 L136.348 214.199 L136.279 215.296 Z" />
<line class="t" x1="156" y1="216" x2="159" y2="216" />
<text class="td" x="159.8" y="216.805" font-size="2.3" text-anchor="start" >LOWER LOBE</text>
<text class="td" x="159.8" y="219.68" font-size="2.3" text-anchor="start" >SUPERELLIPSE</text>
<text class="td" x="159.8" y="222.555" font-size="2.3" text-anchor="start" >n2.6, 30×38 (E)</text>
<text class="tx" x="122" y="236.5" font-size="3.2" text-anchor="middle" font-weight="bold" >FRONT VIEW</text>
<path class="o" d="M92 70 L144 70 L144.784 69.961 L145.561 69.846 L146.322 69.656 L147.061 69.391 L147.771 69.055 L148.445 68.652 L149.075 68.184 L149.657 67.657 L150.184 67.075 L150.652 66.445 L151.055 65.771 L151.391 65.061 L151.656 64.322 L151.846 63.561 L151.961 62.784 L152 62 L152 47.778 L151.983 47.324 L151.931 46.872 L151.846 46.426 L151.726 45.987 L151.574 45.558 L151.39 45.143 L151.175 44.742 L150.931 44.359 L150.658 43.996 L150.358 43.654 L150.033 43.336 L149.685 43.043 L149.316 42.778 L148.928 42.541 L148.523 42.334 L148.104 42.159 L148.104 42.159 L147.208 41.827 L146.311 41.5 L145.411 41.178 L144.509 40.862 L143.606 40.551 L142.701 40.245 L141.794 39.945 L140.885 39.651 L139.974 39.362 L139.062 39.078 L138.148 38.8 L137.233 38.527 L136.315 38.259 L135.397 37.998 L134.476 37.741 L133.554 37.49 L132.631 37.245 L131.706 37.005 L130.78 36.771 L129.853 36.542 L128.924 36.319 L127.993 36.101 L127.062 35.889 L126.129 35.682 L125.195 35.481 L124.26 35.286 L123.324 35.096 L122.386 34.912 L121.448 34.733 L120.508 34.56 L119.568 34.393 L118.626 34.231 L117.683 34.075 L116.74 33.924 L115.796 33.779 L114.851 33.64 L113.905 33.506 L112.958 33.379 L112.01 33.256 L111.062 33.14 L110.113 33.029 L109.164 32.923 L108.213 32.824 L107.263 32.73 L106.311 32.641 L105.36 32.559 L104.407 32.482 L103.455 32.411 L102.502 32.345 L101.548 32.285 L100.594 32.231 L99.64 32.183 L98.686 32.14 L97.731 32.103 L96.776 32.071 L95.821 32.046 L94.866 32.026 L93.911 32.011 L92.955 32.003 L92 32 L91.045 32.003 L90.089 32.011 L89.134 32.026 L88.179 32.046 L87.224 32.071 L86.269 32.103 L85.314 32.14 L84.36 32.183 L83.406 32.231 L82.452 32.285 L81.498 32.345 L80.545 32.411 L79.593 32.482 L78.64 32.559 L77.689 32.641 L76.737 32.73 L75.787 32.824 L74.836 32.923 L73.887 33.029 L72.938 33.14 L71.99 33.256 L71.042 33.379 L70.095 33.506 L69.149 33.64 L68.204 33.779 L67.26 33.924 L66.317 34.075 L65.374 34.231 L64.432 34.393 L63.492 34.56 L62.552 34.733 L61.614 34.912 L60.676 35.096 L59.74 35.286 L58.805 35.481 L57.871 35.682 L56.938 35.889 L56.007 36.101 L55.076 36.319 L54.147 36.542 L53.22 36.771 L52.294 37.005 L51.369 37.245 L50.446 37.49 L49.524 37.741 L48.603 37.998 L47.685 38.259 L46.767 38.527 L45.852 38.8 L44.938 39.078 L44.026 39.362 L43.115 39.651 L42.206 39.945 L41.299 40.245 L40.394 40.551 L39.491 40.862 L38.589 41.178 L37.689 41.5 L36.792 41.827 L35.896 42.159 L35.896 42.159 L35.477 42.334 L35.072 42.541 L34.684 42.778 L34.315 43.043 L33.967 43.336 L33.642 43.654 L33.342 43.996 L33.069 44.359 L32.825 44.742 L32.61 45.143 L32.426 45.558 L32.274 45.987 L32.154 46.426 L32.069 46.872 L32.017 47.324 L32 47.778 L32 62 L32.039 62.784 L32.154 63.561 L32.344 64.322 L32.609 65.061 L32.945 65.771 L33.348 66.445 L33.816 67.075 L34.343 67.657 L34.925 68.184 L35.555 68.652 L36.229 69.055 L36.939 69.391 L37.678 69.656 L38.439 69.846 L39.216 69.961 L40 70 Z" />
<path class="o" d="M41.24 70 L41.24 70.8 L142.76 70.8 L142.76 70" />
<line class="o2" x1="32" y1="56" x2="152" y2="56" />
<line class="o3" x1="32" y1="62" x2="152" y2="62" />
<line class="o3" x1="35.896" y1="42.159" x2="148.104" y2="42.159" />
<circle class="o2" cx="122" cy="59" r="0.8" />
<circle class="o2" cx="62" cy="59" r="0.8" />
<path class="o2" d="M136.166 60.8 L145.269 60.8 L145.269 57 L136.166 57 Z" />
<path class="h" d="M82 53 L102 53 L102 45 L82 45 Z" />
<line class="c" x1="92" y1="75" x2="92" y2="27" />
<line class="t" x1="32" y1="57" x2="32" y2="22.4" />
<line class="t" x1="152" y1="57" x2="152" y2="22.4" />
<line class="t" x1="32" y1="24" x2="152" y2="24" />
<path class="ah" d="M32 24 L34.3 23.45 L34.3 24.55 Z" />
<path class="ah" d="M152 24 L149.7 24.55 L149.7 23.45 Z" />
<text class="td" x="92" y="23.1" font-size="2.6" text-anchor="middle" >60.0</text>
<line class="t" x1="34.896" y1="42.159" x2="23.4" y2="42.159" />
<line class="t" x1="39" y1="70" x2="23.4" y2="70" />
<line class="t" x1="25" y1="42.159" x2="25" y2="70" />
<path class="ah" d="M25 42.159 L25.55 44.459 L24.45 44.459 Z" />
<path class="ah" d="M25 70 L24.45 67.7 L25.55 67.7 Z" />
<text class="td" x="24.1" y="56.079" font-size="2.6" text-anchor="middle" transform="rotate(-90 24.1 56.079)" >≈13.9 (E)</text>
<line class="t" x1="128" y1="36.103" x2="156" y2="36" />
<path class="ah" d="M128 36.103 L130.298 35.544 L130.302 36.644 Z" />
<line class="t" x1="156" y1="36" x2="159" y2="36" />
<text class="td" x="159.8" y="36.805" font-size="2.3" text-anchor="start" >BACK DOME R80 (E)</text>
<line class="t" x1="102" y1="49" x2="156" y2="46" />
<path class="ah" d="M102 49 L104.266 48.323 L104.327 49.422 Z" />
<line class="t" x1="156" y1="46" x2="159" y2="46" />
<text class="td" x="159.8" y="46.805" font-size="2.3" text-anchor="start" >STRAP BAR POCKET</text>
<text class="td" x="159.8" y="49.68" font-size="2.3" text-anchor="start" >10×3.5, HIDDEN</text>
<line class="t" x1="152" y1="56" x2="156" y2="58" />
<path class="ah" d="M152 56 L154.303 56.537 L153.811 57.521 Z" />
<line class="t" x1="156" y1="58" x2="159" y2="58" />
<text class="td" x="159.8" y="58.805" font-size="2.3" text-anchor="start" >PARTING LINE</text>
<text class="td" x="159.8" y="61.68" font-size="2.3" text-anchor="start" >z −7.0 (E)</text>
<text class="tx" x="92" y="19" font-size="3.2" text-anchor="middle" font-weight="bold" >TOP VIEW</text>
<path class="o" d="M190 160 L190 100 L190.039 99.216 L190.154 98.439 L190.344 97.678 L190.609 96.939 L190.945 96.229 L191.348 95.555 L191.816 94.925 L192.343 94.343 L192.925 93.816 L193.555 93.348 L194.229 92.945 L194.939 92.609 L195.678 92.344 L196.439 92.154 L197.216 92.039 L198 92 L208.968 92 L209.401 92.016 L209.832 92.063 L210.259 92.14 L210.679 92.249 L211.09 92.388 L211.489 92.555 L211.876 92.752 L212.247 92.975 L212.602 93.225 L212.937 93.5 L213.251 93.799 L213.544 94.119 L213.812 94.459 L214.055 94.818 L214.272 95.194 L214.46 95.584 L214.46 95.584 L214.902 96.597 L215.336 97.613 L215.763 98.632 L216.184 99.654 L216.597 100.679 L217.003 101.707 L217.402 102.737 L217.794 103.77 L218.179 104.806 L218.556 105.844 L218.927 106.885 L219.29 107.929 L219.646 108.975 L219.995 110.023 L220.336 111.074 L220.67 112.127 L220.997 113.183 L221.317 114.24 L221.629 115.3 L221.934 116.362 L222.232 117.426 L222.522 118.493 L222.805 119.561 L223.081 120.631 L223.349 121.703 L223.61 122.776 L223.863 123.852 L224.109 124.929 L224.347 126.008 L224.579 127.088 L224.802 128.171 L225.018 129.254 L225.227 130.339 L225.428 131.426 L225.621 132.514 L225.807 133.603 L225.986 134.693 L226.157 135.785 L226.32 136.878 L226.476 137.971 L226.625 139.066 L226.765 140.162 L226.899 141.259 L227.024 142.357 L227.142 143.456 L227.253 144.555 L227.356 145.655 L227.451 146.756 L227.539 147.857 L227.619 148.959 L227.691 150.062 L227.756 151.165 L227.813 152.268 L227.863 153.372 L227.905 154.476 L227.939 155.581 L227.966 156.685 L227.985 157.79 L227.996 158.895 L228 160 L227.996 161.105 L227.985 162.21 L227.966 163.315 L227.939 164.419 L227.905 165.524 L227.863 166.628 L227.813 167.732 L227.756 168.835 L227.691 169.938 L227.619 171.041 L227.539 172.143 L227.451 173.244 L227.356 174.345 L227.253 175.445 L227.142 176.544 L227.024 177.643 L226.899 178.741 L226.765 179.838 L226.625 180.934 L226.476 182.029 L226.32 183.122 L226.157 184.215 L225.986 185.307 L225.807 186.397 L225.621 187.486 L225.428 188.574 L225.227 189.661 L225.018 190.746 L224.802 191.829 L224.579 192.912 L224.347 193.992 L224.109 195.071 L223.863 196.148 L223.61 197.224 L223.349 198.297 L223.081 199.369 L222.805 200.439 L222.522 201.507 L222.232 202.574 L221.934 203.638 L221.629 204.7 L221.317 205.76 L220.997 206.817 L220.67 207.873 L220.336 208.926 L219.995 209.977 L219.646 211.025 L219.29 212.071 L218.927 213.115 L218.556 214.156 L218.179 215.194 L217.794 216.23 L217.402 217.263 L217.003 218.293 L216.597 219.321 L216.184 220.346 L215.763 221.368 L215.336 222.387 L214.902 223.403 L214.46 224.416 L214.46 224.416 L214.272 224.806 L214.055 225.182 L213.812 225.541 L213.544 225.881 L213.251 226.201 L212.937 226.5 L212.602 226.775 L212.247 227.025 L211.876 227.248 L211.489 227.445 L211.09 227.612 L210.679 227.751 L210.259 227.86 L209.832 227.937 L209.401 227.984 L208.968 228 L198 228 L197.216 227.961 L196.439 227.846 L195.678 227.656 L194.939 227.391 L194.229 227.055 L193.555 226.652 L192.925 226.184 L192.343 225.657 L191.816 225.075 L191.348 224.445 L190.945 223.771 L190.609 223.061 L190.344 222.322 L190.154 221.561 L190.039 220.784 L190 220 Z" />
<path class="o" d="M190 202.76 L189.2 202.76 L189.2 101.24 L190 101.24" />
<line class="o2" x1="204" y1="228" x2="204" y2="92" />
<line class="o3" x1="198" y1="228" x2="198" y2="92" />
<line class="o3" x1="214.46" y1="224.416" x2="214.46" y2="95.584" />
<path class="o" d="M199.2 124.388 L199.2 111.387 L203 111.387 L203 124.388 Z" />
<circle class="o2" cx="201" cy="100.038" r="0.8" />
<path class="h" d="M207 101 L207 94 L215 94 L215 101 Z" />
<line class="c" x1="185" y1="160" x2="233" y2="160" />
<line class="c" x1="185" y1="152" x2="196" y2="152" />
<line class="t" x1="204.4" y1="92" x2="236.6" y2="92" />
<line class="t" x1="204.4" y1="228" x2="236.6" y2="228" />
<line class="t" x1="235" y1="92" x2="235" y2="228" />
<path class="ah" d="M235 92 L235.55 94.3 L234.45 94.3 Z" />
<path class="ah" d="M235 228 L234.45 225.7 L235.55 225.7 Z" />
<text class="td" x="234.1" y="160" font-size="2.6" text-anchor="middle" transform="rotate(-90 234.1 160)" >68.0</text>
<line class="t" x1="190" y1="178" x2="226.984" y2="178" />
<path class="ah" d="M190 178 L192.3 177.45 L192.3 178.55 Z" />
<path class="ah" d="M226.984 178 L224.684 178.55 L224.684 177.45 Z" />
<text class="td" x="209" y="177" font-size="2.6" text-anchor="middle" >19.0</text>
<text class="td" x="209" y="181.2" font-size="2" text-anchor="middle" >@ CL</text>
<line class="t" x1="190" y1="99" x2="190" y2="84.4" />
<line class="t" x1="214.46" y1="94.584" x2="214.46" y2="84.4" />
<line class="t" x1="190" y1="86" x2="214.46" y2="86" />
<path class="ah" d="M190 86 L192.3 85.45 L192.3 86.55 Z" />
<path class="ah" d="M214.46 86 L212.16 86.55 L212.16 85.45 Z" />
<text class="td" x="202.23" y="85.1" font-size="2.6" text-anchor="middle" >≈12.2 (E)</text>
<line class="t" x1="189.2" y1="108" x2="240" y2="112" />
<path class="ah" d="M189.2 108 L191.536 107.632 L191.45 108.729 Z" />
<line class="t" x1="240" y1="112" x2="243" y2="112" />
<text class="td" x="243.8" y="112.805" font-size="2.3" text-anchor="start" >LIP 0.4</text>
<line class="t" x1="201" y1="113.387" x2="240" y2="122" />
<path class="ah" d="M201 113.387 L203.364 113.346 L203.127 114.42 Z" />
<line class="t" x1="240" y1="122" x2="243" y2="122" />
<text class="td" x="243.8" y="122.805" font-size="2.3" text-anchor="start" >BUTTON</text>
<line class="t" x1="226.19" y1="136" x2="240" y2="150" />
<path class="ah" d="M226.19 136 L228.197 137.251 L227.413 138.024 Z" />
<line class="t" x1="240" y1="150" x2="243" y2="150" />
<text class="td" x="243.8" y="150.805" font-size="2.3" text-anchor="start" >R80 (E)</text>
<line class="t" x1="204" y1="188" x2="240" y2="176" />
<path class="ah" d="M204 188 L206.008 186.751 L206.356 187.794 Z" />
<line class="t" x1="240" y1="176" x2="243" y2="176" />
<text class="td" x="243.8" y="176.805" font-size="2.3" text-anchor="start" >PARTING</text>
<text class="td" x="243.8" y="179.68" font-size="2.3" text-anchor="start" >z −7.0</text>
<line class="t" x1="212.41" y1="226.915" x2="240" y2="222" />
<path class="ah" d="M212.41 226.915 L214.577 225.97 L214.77 227.053 Z" />
<line class="t" x1="240" y1="222" x2="243" y2="222" />
<text class="td" x="243.8" y="222.805" font-size="2.3" text-anchor="start" >R3 BACK</text>
<line class="t" x1="192.343" y1="225.657" x2="240" y2="230" />
<path class="ah" d="M192.343 225.657 L194.684 225.318 L194.584 226.413 Z" />
<line class="t" x1="240" y1="230" x2="243" y2="230" />
<text class="td" x="243.8" y="230.805" font-size="2.3" text-anchor="start" >R4 FRONT</text>
<text class="tx" x="209" y="236.5" font-size="3.2" text-anchor="middle" font-weight="bold" >RIGHT SIDE</text>
<path class="o" d="M272 152 L272.021 150.429 L272.082 148.86 L272.185 147.292 L272.329 145.728 L272.513 144.168 L272.739 142.614 L273.005 141.066 L273.311 139.525 L273.658 137.993 L274.044 136.471 L274.471 134.959 L274.937 133.459 L275.442 131.972 L275.985 130.498 L276.567 129.039 L277.187 127.596 L277.845 126.169 L278.54 124.761 L279.271 123.37 L280.038 122 L280.842 120.65 L281.68 119.322 L282.552 118.016 L283.459 116.733 L284.399 115.474 L285.371 114.241 L286.376 113.033 L287.411 111.852 L288.478 110.699 L289.574 109.574 L290.699 108.478 L291.852 107.411 L293.033 106.376 L294.241 105.371 L295.474 104.399 L296.733 103.459 L298.016 102.552 L299.322 101.68 L300.65 100.842 L302 100.038 L303.37 99.271 L304.761 98.54 L306.169 97.845 L307.596 97.187 L309.039 96.567 L310.498 95.985 L311.972 95.442 L313.459 94.937 L314.959 94.471 L316.471 94.044 L317.993 93.658 L319.525 93.311 L321.066 93.005 L322.614 92.739 L324.168 92.513 L325.728 92.329 L327.292 92.185 L328.86 92.082 L330.429 92.021 L332 92 L333.571 92.021 L335.14 92.082 L336.708 92.185 L338.272 92.329 L339.832 92.513 L341.386 92.739 L342.934 93.005 L344.475 93.311 L346.007 93.658 L347.529 94.044 L349.041 94.471 L350.541 94.937 L352.028 95.442 L353.502 95.985 L354.961 96.567 L356.404 97.187 L357.831 97.845 L359.239 98.54 L360.63 99.271 L362 100.038 L363.35 100.842 L364.678 101.68 L365.984 102.552 L367.267 103.459 L368.526 104.399 L369.759 105.371 L370.967 106.376 L372.148 107.411 L373.301 108.478 L374.426 109.574 L375.522 110.699 L376.589 111.852 L377.624 113.033 L378.629 114.241 L379.601 115.474 L380.541 116.733 L381.448 118.016 L382.32 119.322 L383.158 120.65 L383.962 122 L384.729 123.37 L385.46 124.761 L386.155 126.169 L386.813 127.596 L387.433 129.039 L388.015 130.498 L388.558 131.972 L389.063 133.459 L389.529 134.959 L389.956 136.471 L390.342 137.993 L390.689 139.525 L390.995 141.066 L391.261 142.614 L391.487 144.168 L391.671 145.728 L391.815 147.292 L391.918 148.86 L391.979 150.429 L392 152 L391.984 156.611 L391.937 159.857 L391.858 162.729 L391.747 165.378 L391.605 167.87 L391.431 170.242 L391.226 172.515 L390.989 174.704 L390.721 176.82 L390.421 178.87 L390.09 180.861 L389.728 182.796 L389.335 184.679 L388.91 186.514 L388.455 188.301 L387.969 190.044 L387.451 191.743 L386.903 193.4 L386.325 195.016 L385.715 196.591 L385.076 198.127 L384.405 199.623 L383.705 201.081 L382.974 202.5 L382.213 203.88 L381.422 205.223 L380.601 206.528 L379.75 207.794 L378.87 209.023 L377.959 210.215 L377.019 211.368 L376.048 212.484 L375.048 213.562 L374.018 214.602 L372.958 215.603 L371.868 216.567 L370.748 217.493 L369.597 218.38 L368.416 219.229 L367.204 220.039 L365.96 220.811 L364.684 221.544 L363.376 222.238 L362.035 222.893 L360.659 223.51 L359.248 224.086 L357.799 224.624 L356.313 225.122 L354.785 225.581 L353.213 226 L351.595 226.379 L349.924 226.719 L348.196 227.019 L346.401 227.279 L344.529 227.499 L342.561 227.68 L340.47 227.82 L338.203 227.92 L335.641 227.98 L332 228 L328.359 227.98 L325.797 227.92 L323.53 227.82 L321.439 227.68 L319.471 227.499 L317.599 227.279 L315.804 227.019 L314.076 226.719 L312.405 226.379 L310.787 226 L309.215 225.581 L307.687 225.122 L306.201 224.624 L304.752 224.086 L303.341 223.51 L301.965 222.893 L300.624 222.238 L299.316 221.544 L298.04 220.811 L296.796 220.039 L295.584 219.229 L294.403 218.38 L293.252 217.493 L292.132 216.567 L291.042 215.603 L289.982 214.602 L288.952 213.562 L287.952 212.484 L286.981 211.368 L286.041 210.215 L285.13 209.023 L284.25 207.794 L283.399 206.528 L282.578 205.223 L281.787 203.88 L281.026 202.5 L280.295 201.081 L279.595 199.623 L278.924 198.127 L278.285 196.591 L277.675 195.016 L277.097 193.4 L276.549 191.743 L276.031 190.044 L275.545 188.301 L275.09 186.514 L274.665 184.679 L274.272 182.796 L273.91 180.861 L273.579 178.87 L273.279 176.82 L273.011 174.704 L272.774 172.515 L272.569 170.242 L272.395 167.87 L272.253 165.378 L272.142 162.729 L272.063 159.857 L272.016 156.611 Z" />
<path class="o3" d="M275.8 152.003 L275.819 150.529 L275.877 149.059 L275.973 147.591 L276.108 146.126 L276.281 144.664 L276.492 143.208 L276.741 141.758 L277.028 140.315 L277.353 138.88 L277.715 137.454 L278.114 136.038 L278.551 134.633 L279.024 133.24 L279.533 131.86 L280.078 130.493 L280.659 129.141 L281.275 127.805 L281.925 126.486 L282.61 125.184 L283.329 123.9 L284.082 122.636 L284.867 121.391 L285.684 120.168 L286.533 118.966 L287.414 117.788 L288.324 116.632 L289.265 115.501 L290.235 114.395 L291.234 113.314 L292.261 112.261 L293.314 111.234 L294.395 110.235 L295.501 109.265 L296.632 108.324 L297.788 107.414 L298.966 106.533 L300.168 105.684 L301.391 104.867 L302.636 104.082 L303.9 103.329 L305.184 102.61 L306.486 101.925 L307.805 101.275 L309.141 100.659 L310.493 100.078 L311.86 99.533 L313.24 99.024 L314.633 98.551 L316.038 98.114 L317.454 97.715 L318.88 97.353 L320.315 97.028 L321.758 96.741 L323.208 96.492 L324.664 96.281 L326.126 96.108 L327.591 95.973 L329.059 95.877 L330.529 95.819 L332 95.8 L333.471 95.819 L334.941 95.877 L336.409 95.973 L337.874 96.108 L339.336 96.281 L340.792 96.492 L342.242 96.741 L343.685 97.028 L345.12 97.353 L346.546 97.715 L347.962 98.114 L349.367 98.551 L350.76 99.024 L352.14 99.533 L353.507 100.078 L354.859 100.659 L356.195 101.275 L357.514 101.925 L358.816 102.61 L360.1 103.329 L361.364 104.082 L362.609 104.867 L363.832 105.684 L365.034 106.533 L366.212 107.414 L367.368 108.324 L368.499 109.265 L369.605 110.235 L370.686 111.234 L371.739 112.261 L372.766 113.314 L373.765 114.395 L374.735 115.501 L375.676 116.632 L376.586 117.788 L377.467 118.966 L378.316 120.168 L379.133 121.391 L379.918 122.636 L380.671 123.9 L381.39 125.184 L382.075 126.486 L382.725 127.805 L383.341 129.141 L383.922 130.493 L384.467 131.86 L384.976 133.24 L385.449 134.633 L385.886 136.038 L386.285 137.454 L386.647 138.88 L386.972 140.315 L387.259 141.758 L387.508 143.208 L387.719 144.664 L387.892 146.126 L388.027 147.591 L388.123 149.059 L388.181 150.529 L388.2 152.003 L388.184 156.581 L388.138 159.779 L388.06 162.598 L387.952 165.191 L387.813 167.624 L387.644 169.933 L387.444 172.14 L387.215 174.261 L386.955 176.307 L386.667 178.284 L386.348 180.2 L386 182.058 L385.623 183.863 L385.218 185.617 L384.783 187.322 L384.32 188.98 L383.829 190.594 L383.31 192.163 L382.763 193.69 L382.189 195.176 L381.587 196.62 L380.958 198.024 L380.303 199.388 L379.62 200.713 L378.912 201.999 L378.177 203.247 L377.415 204.456 L376.628 205.628 L375.815 206.763 L374.976 207.86 L374.112 208.921 L373.221 209.944 L372.305 210.932 L371.363 211.883 L370.394 212.799 L369.399 213.679 L368.377 214.523 L367.328 215.332 L366.251 216.106 L365.146 216.845 L364.012 217.549 L362.847 218.218 L361.652 218.852 L360.424 219.451 L359.164 220.016 L357.868 220.546 L356.535 221.041 L355.163 221.5 L353.749 221.925 L352.291 222.314 L350.783 222.667 L349.221 222.985 L347.599 223.266 L345.908 223.511 L344.135 223.72 L342.262 223.891 L340.261 224.025 L338.077 224.122 L335.591 224.18 L332 224.2 L328.409 224.18 L325.923 224.122 L323.739 224.025 L321.738 223.891 L319.865 223.72 L318.092 223.511 L316.401 223.266 L314.779 222.985 L313.217 222.667 L311.709 222.314 L310.251 221.925 L308.837 221.5 L307.465 221.041 L306.132 220.546 L304.836 220.016 L303.576 219.451 L302.348 218.852 L301.153 218.218 L299.988 217.549 L298.854 216.845 L297.749 216.106 L296.672 215.332 L295.623 214.523 L294.601 213.679 L293.606 212.799 L292.637 211.883 L291.695 210.932 L290.779 209.944 L289.888 208.921 L289.024 207.86 L288.185 206.763 L287.372 205.628 L286.585 204.456 L285.823 203.247 L285.088 201.999 L284.38 200.713 L283.697 199.388 L283.042 198.024 L282.413 196.62 L281.811 195.176 L281.237 193.69 L280.69 192.163 L280.171 190.594 L279.68 188.98 L279.217 187.322 L278.782 185.617 L278.377 183.863 L278 182.058 L277.652 180.2 L277.333 178.284 L277.045 176.307 L276.785 174.261 L276.556 172.14 L276.356 169.933 L276.187 167.624 L276.048 165.191 L275.94 162.598 L275.862 159.779 L275.816 156.581 Z" />
<g clip-path="url(#clp1)">
<path class="ph" d="M306.781 160 L306.842 158.241 L307.026 156.49 L307.332 154.757 L307.758 153.049 L308.302 151.375 L308.961 149.742 L309.733 148.16 L310.613 146.636 L311.597 145.177 L312.681 143.79 L313.859 142.481 L315.125 141.259 L316.474 140.127 L317.898 139.092 L319.39 138.16 L320.945 137.333 L322.553 136.617 L324.207 136.015 L325.899 135.53 L327.621 135.164 L329.364 134.919 L331.12 134.796 L332.88 134.796 L334.636 134.919 L336.379 135.164 L338.101 135.53 L339.793 136.015 L341.447 136.617 L343.055 137.333 L344.61 138.16 L346.102 139.092 L347.526 140.127 L348.875 141.259 L350.141 142.481 L351.319 143.79 L352.403 145.177 L353.387 146.636 L354.267 148.16 L355.039 149.742 L355.698 151.375 L356.242 153.049 L356.668 154.757 L356.974 156.49 L357.158 158.241 L357.219 160 L357.158 161.759 L356.974 163.51 L356.668 165.243 L356.242 166.951 L355.698 168.625 L355.039 170.258 L354.267 171.84 L353.387 173.364 L352.403 174.823 L351.319 176.21 L350.141 177.519 L348.875 178.741 L347.526 179.873 L346.102 180.908 L344.61 181.84 L343.055 182.667 L341.447 183.383 L339.793 183.985 L338.101 184.47 L336.379 184.836 L334.636 185.081 L332.88 185.204 L331.12 185.204 L329.364 185.081 L327.621 184.836 L325.899 184.47 L324.207 183.985 L322.553 183.383 L320.945 182.667 L319.39 181.84 L317.898 180.908 L316.474 179.873 L315.125 178.741 L313.859 177.519 L312.681 176.21 L311.597 174.823 L310.613 173.364 L309.733 171.84 L308.961 170.258 L308.302 168.625 L307.758 166.951 L307.332 165.243 L307.026 163.51 L306.842 161.759 L306.781 160 Z" />
<path class="ph" d="M296.447 160 L296.534 157.52 L296.793 155.052 L297.224 152.608 L297.824 150.2 L298.591 147.84 L299.521 145.539 L300.609 143.309 L301.85 141.16 L303.237 139.103 L304.765 137.147 L306.425 135.303 L308.211 133.579 L310.112 131.984 L312.119 130.525 L314.224 129.21 L316.415 128.045 L318.682 127.036 L321.014 126.187 L323.399 125.503 L325.826 124.987 L328.284 124.642 L330.759 124.469 L333.241 124.469 L335.716 124.642 L338.174 124.987 L340.601 125.503 L342.986 126.187 L345.318 127.036 L347.585 128.045 L349.776 129.21 L351.881 130.525 L353.888 131.984 L355.789 133.579 L357.575 135.303 L359.235 137.147 L360.763 139.103 L362.15 141.16 L363.391 143.309 L364.479 145.539 L365.409 147.84 L366.176 150.2 L366.776 152.608 L367.207 155.052 L367.466 157.52 L367.553 160 L367.466 162.48 L367.207 164.948 L366.776 167.392 L366.176 169.8 L365.409 172.16 L364.479 174.461 L363.391 176.691 L362.15 178.84 L360.763 180.897 L359.235 182.853 L357.575 184.697 L355.789 186.421 L353.888 188.016 L351.881 189.475 L349.776 190.79 L347.585 191.955 L345.318 192.964 L342.986 193.813 L340.601 194.497 L338.174 195.013 L335.716 195.358 L333.241 195.531 L330.759 195.531 L328.284 195.358 L325.826 195.013 L323.399 194.497 L321.014 193.813 L318.682 192.964 L316.415 191.955 L314.224 190.79 L312.119 189.475 L310.112 188.016 L308.211 186.421 L306.425 184.697 L304.765 182.853 L303.237 180.897 L301.85 178.84 L300.609 176.691 L299.521 174.461 L298.591 172.16 L297.824 169.8 L297.224 167.392 L296.793 164.948 L296.534 162.48 L296.447 160 Z" />
<path class="ph" d="M288.595 160 L288.701 156.972 L289.017 153.959 L289.543 150.976 L290.276 148.036 L291.213 145.155 L292.347 142.346 L293.676 139.623 L295.19 136.999 L296.885 134.487 L298.75 132.1 L300.777 129.848 L302.956 127.744 L305.277 125.796 L307.728 124.016 L310.297 122.41 L312.972 120.988 L315.74 119.756 L318.587 118.719 L321.499 117.884 L324.463 117.254 L327.463 116.833 L330.485 116.621 L333.515 116.621 L336.537 116.833 L339.537 117.254 L342.501 117.884 L345.413 118.719 L348.26 119.756 L351.028 120.988 L353.703 122.41 L356.272 124.016 L358.723 125.796 L361.044 127.744 L363.223 129.848 L365.25 132.1 L367.115 134.487 L368.81 136.999 L370.324 139.623 L371.653 142.346 L372.787 145.155 L373.724 148.036 L374.457 150.976 L374.983 153.959 L375.299 156.972 L375.405 160 L375.299 163.028 L374.983 166.041 L374.457 169.024 L373.724 171.964 L372.787 174.845 L371.653 177.654 L370.324 180.377 L368.81 183.001 L367.115 185.513 L365.25 187.9 L363.223 190.152 L361.044 192.256 L358.723 194.204 L356.272 195.984 L353.703 197.59 L351.028 199.012 L348.26 200.244 L345.413 201.281 L342.501 202.116 L339.537 202.746 L336.537 203.167 L333.515 203.379 L330.485 203.379 L327.463 203.167 L324.463 202.746 L321.499 202.116 L318.587 201.281 L315.74 200.244 L312.972 199.012 L310.297 197.59 L307.728 195.984 L305.277 194.204 L302.956 192.256 L300.777 190.152 L298.75 187.9 L296.885 185.513 L295.19 183.001 L293.676 180.377 L292.347 177.654 L291.213 174.845 L290.276 171.964 L289.543 169.024 L289.017 166.041 L288.701 163.028 L288.595 160 Z" />
<path class="ph" d="M282.04 160 L282.162 156.515 L282.526 153.047 L283.132 149.613 L283.975 146.229 L285.053 142.913 L286.359 139.679 L287.888 136.545 L289.632 133.525 L291.582 130.634 L293.728 127.886 L296.062 125.295 L298.57 122.872 L301.242 120.631 L304.063 118.581 L307.02 116.733 L310.099 115.096 L313.285 113.678 L316.562 112.485 L319.914 111.524 L323.325 110.799 L326.778 110.314 L330.256 110.07 L333.744 110.07 L337.222 110.314 L340.675 110.799 L344.086 111.524 L347.438 112.485 L350.715 113.678 L353.901 115.096 L356.98 116.733 L359.937 118.581 L362.758 120.631 L365.43 122.872 L367.938 125.295 L370.272 127.886 L372.418 130.634 L374.368 133.525 L376.112 136.545 L377.641 139.679 L378.947 142.913 L380.025 146.229 L380.868 149.613 L381.474 153.047 L381.838 156.515 L381.96 160 L381.838 163.485 L381.474 166.953 L380.868 170.387 L380.025 173.771 L378.947 177.087 L377.641 180.321 L376.112 183.455 L374.368 186.475 L372.418 189.366 L370.272 192.114 L367.938 194.705 L365.43 197.128 L362.758 199.369 L359.937 201.419 L356.98 203.267 L353.901 204.904 L350.715 206.322 L347.438 207.515 L344.086 208.476 L340.675 209.201 L337.222 209.686 L333.744 209.93 L330.256 209.93 L326.778 209.686 L323.325 209.201 L319.914 208.476 L316.562 207.515 L313.285 206.322 L310.099 204.904 L307.02 203.267 L304.063 201.419 L301.242 199.369 L298.57 197.128 L296.062 194.705 L293.728 192.114 L291.582 189.366 L289.632 186.475 L287.888 183.455 L286.359 180.321 L285.053 177.087 L283.975 173.771 L283.132 170.387 L282.526 166.953 L282.162 163.485 L282.04 160 Z" />
<path class="ph" d="M276.322 160 L276.458 156.116 L276.864 152.251 L277.539 148.424 L278.479 144.653 L279.68 140.957 L281.136 137.354 L282.84 133.861 L284.783 130.495 L286.956 127.274 L289.348 124.211 L291.949 121.323 L294.744 118.623 L297.721 116.125 L300.865 113.841 L304.161 111.782 L307.593 109.957 L311.143 108.377 L314.795 107.047 L318.53 105.976 L322.332 105.168 L326.18 104.627 L330.057 104.356 L333.943 104.356 L337.82 104.627 L341.668 105.168 L345.47 105.976 L349.205 107.047 L352.857 108.377 L356.407 109.957 L359.839 111.782 L363.135 113.841 L366.279 116.125 L369.256 118.623 L372.051 121.323 L374.652 124.211 L377.044 127.274 L379.217 130.495 L381.16 133.861 L382.864 137.354 L384.32 140.957 L385.521 144.653 L386.461 148.424 L387.136 152.251 L387.542 156.116 L387.678 160 L387.542 163.884 L387.136 167.749 L386.461 171.576 L385.521 175.347 L384.32 179.043 L382.864 182.646 L381.16 186.139 L379.217 189.505 L377.044 192.726 L374.652 195.789 L372.051 198.677 L369.256 201.377 L366.279 203.875 L363.135 206.159 L359.839 208.218 L356.407 210.043 L352.857 211.623 L349.205 212.953 L345.47 214.024 L341.668 214.832 L337.82 215.373 L333.943 215.644 L330.057 215.644 L326.18 215.373 L322.332 214.832 L318.53 214.024 L314.795 212.953 L311.143 211.623 L307.593 210.043 L304.161 208.218 L300.865 206.159 L297.721 203.875 L294.744 201.377 L291.949 198.677 L289.348 195.789 L286.956 192.726 L284.783 189.505 L282.84 186.139 L281.136 182.646 L279.68 179.043 L278.479 175.347 L277.539 171.576 L276.864 167.749 L276.458 163.884 L276.322 160 Z" />
</g>
<path class="h" d="M308 160 L308.091 157.908 L308.365 155.832 L308.818 153.788 L309.447 151.792 L310.249 149.857 L311.215 148 L312.34 146.234 L313.615 144.573 L315.029 143.029 L316.573 141.615 L318.234 140.34 L320 139.215 L321.857 138.249 L323.792 137.447 L325.788 136.818 L327.832 136.365 L329.908 136.091 L332 136 L334.092 136.091 L336.168 136.365 L338.212 136.818 L340.208 137.447 L342.143 138.249 L344 139.215 L345.766 140.34 L347.427 141.615 L348.971 143.029 L350.385 144.573 L351.66 146.234 L352.785 148 L353.751 149.857 L354.553 151.792 L355.182 153.788 L355.635 155.832 L355.909 157.908 L356 160 L355.909 162.092 L355.635 164.168 L355.182 166.212 L354.553 168.208 L353.751 170.143 L352.785 172 L351.66 173.766 L350.385 175.427 L348.971 176.971 L347.427 178.385 L345.766 179.66 L344 180.785 L342.143 181.751 L340.208 182.553 L338.212 183.182 L336.168 183.635 L334.092 183.909 L332 184 L329.908 183.909 L327.832 183.635 L325.788 183.182 L323.792 182.553 L321.857 181.751 L320 180.785 L318.234 179.66 L316.573 178.385 L315.029 176.971 L313.615 175.427 L312.34 173.766 L311.215 172 L310.249 170.143 L309.447 168.208 L308.818 166.212 L308.365 164.168 L308.091 162.092 L308 160 Z" />
<path class="h" d="M360 182 L382 182 L382 138 L360 138 Z" />
<path class="h" d="M304 182 L282 182 L282 138 L304 138 Z" />
<circle class="o" cx="332" cy="190" r="2.5" />
<circle class="solid" cx="332" cy="190" r="1.4" />
<circle class="o" cx="332" cy="198" r="2.5" />
<circle class="solid" cx="332" cy="198" r="1.4" />
<circle class="o" cx="296" cy="116" r="3" />
<line class="o3" x1="294.6" y1="116" x2="297.4" y2="116" />
<line class="o3" x1="295.3" y1="114.788" x2="296.7" y2="117.212" />
<line class="o3" x1="296.7" y1="114.788" x2="295.3" y2="117.212" />
<circle class="o" cx="368" cy="116" r="3" />
<line class="o3" x1="366.6" y1="116" x2="369.4" y2="116" />
<line class="o3" x1="367.3" y1="114.788" x2="368.7" y2="117.212" />
<line class="o3" x1="368.7" y1="114.788" x2="367.3" y2="117.212" />
<circle class="o" cx="302" cy="208" r="3" />
<line class="o3" x1="300.6" y1="208" x2="303.4" y2="208" />
<line class="o3" x1="301.3" y1="206.788" x2="302.7" y2="209.212" />
<line class="o3" x1="302.7" y1="206.788" x2="301.3" y2="209.212" />
<circle class="o" cx="362" cy="208" r="3" />
<line class="o3" x1="360.6" y1="208" x2="363.4" y2="208" />
<line class="o3" x1="361.3" y1="206.788" x2="362.7" y2="209.212" />
<line class="o3" x1="362.7" y1="206.788" x2="361.3" y2="209.212" />
<path class="o" d="M325.5 101 L324.418 100.829 L323.443 100.332 L322.668 99.557 L322.171 98.582 L322 97.5 L322.171 96.418 L322.668 95.443 L323.443 94.668 L324.418 94.171 L325.5 94 L338.5 94 L339.582 94.171 L340.557 94.668 L341.332 95.443 L341.829 96.418 L342 97.5 L341.829 98.582 L341.332 99.557 L340.557 100.332 L339.582 100.829 L338.5 101 Z" />
<line class="o2" x1="341.4" y1="99.2" x2="322.6" y2="99.2" />
<line class="o2" x1="341.4" y1="96" x2="322.6" y2="96" />
<text class="tx" x="332" y="150" font-size="5.2" text-anchor="middle" style="fill:none;stroke:#ffffff;stroke-width:0.22" letter-spacing="0.8">SOUL</text>
<path class="ph" d="M348 221 L316 221 L316 214 L348 214 Z" />
<line class="c" x1="332" y1="86" x2="332" y2="234" />
<line class="c" x1="264" y1="160" x2="400" y2="160" />
<line class="t" x1="393.701" y1="199.925" x2="334.5" y2="198" />
<circle class="ah" cx="334.5" cy="198" r="0.45" />
<circle class="bal" cx="396" cy="200" r="2.3" />
<text class="tx" x="396" y="200.95" font-size="2.6" text-anchor="middle" font-weight="bold" >a</text>
<line class="t" x1="389.786" y1="217.379" x2="364.2" y2="210.2" />
<circle class="ah" cx="364.2" cy="210.2" r="0.45" />
<circle class="bal" cx="392" cy="218" r="2.3" />
<text class="tx" x="392" y="218.95" font-size="2.6" text-anchor="middle" font-weight="bold" >b</text>
<line class="t" x1="369.841" y1="83.792" x2="342" y2="94" />
<circle class="ah" cx="342" cy="94" r="0.45" />
<circle class="bal" cx="372" cy="83" r="2.3" />
<text class="tx" x="372" y="83.95" font-size="2.6" text-anchor="middle" font-weight="bold" >c</text>
<line class="t" x1="399.732" y1="134.385" x2="349" y2="143" />
<circle class="ah" cx="349" cy="143" r="0.45" />
<circle class="bal" cx="402" cy="134" r="2.3" />
<text class="tx" x="402" y="134.95" font-size="2.6" text-anchor="middle" font-weight="bold" >d</text>
<line class="t" x1="264.029" y1="129.082" x2="292" y2="144" />
<circle class="ah" cx="292" cy="144" r="0.45" />
<circle class="bal" cx="262" cy="128" r="2.3" />
<text class="tx" x="262" y="128.95" font-size="2.6" text-anchor="middle" font-weight="bold" >e</text>
<line class="t" x1="397.703" y1="173.881" x2="365.2" y2="172.2" />
<circle class="ah" cx="365.2" cy="172.2" r="0.45" />
<circle class="bal" cx="400" cy="174" r="2.3" />
<text class="tx" x="400" y="174.95" font-size="2.6" text-anchor="middle" font-weight="bold" >f</text>
<line class="t" x1="286.247" y1="227.508" x2="316" y2="221" />
<circle class="ah" cx="316" cy="221" r="0.45" />
<circle class="bal" cx="284" cy="228" r="2.3" />
<text class="tx" x="284" y="228.95" font-size="2.6" text-anchor="middle" font-weight="bold" >g</text>
<text class="tx" x="332" y="236.5" font-size="3.2" text-anchor="middle" font-weight="bold" >REAR VIEW</text>
<text class="tx" x="196" y="18" font-size="3" text-anchor="start" font-weight="bold" >GENERAL NOTES</text>
<text class="tx" x="196" y="23.5" font-size="2.1" text-anchor="start" >1. THIRD-ANGLE PROJECTION. mm. A3, SCALE 2:1.</text>
<text class="tx" x="196" y="26.9" font-size="2.1" text-anchor="start" >2. DISPLAY 1.75" ROUND AMOLED 466×466 (~270 ppi).</text>
<text class="tx" x="196" y="30.3" font-size="2.1" text-anchor="start" >   GLASS Ø48.96×1.10, ACTIVE Ø43.76, MODULE Ø46.0 (V)</text>
<text class="tx" x="196" y="33.7" font-size="2.1" text-anchor="start" >3. DISPLAY CL 4.0 ABOVE BODY CL; UPPER OUTLINE</text>
<text class="tx" x="196" y="37.1" font-size="2.1" text-anchor="start" >   R30 CONCENTRIC WITH THE DISPLAY.</text>
<text class="tx" x="196" y="40.5" font-size="2.1" text-anchor="start" >4. FROSTED TRANSLUCENT PC, RF-TRANSPARENT, 2-PART</text>
<text class="tx" x="196" y="43.9" font-size="2.1" text-anchor="start" >   SHELL. WALL 1.5, DOME R80, ROUNDS R4 / R3 (E).</text>
<text class="tx" x="196" y="47.3" font-size="2.1" text-anchor="start" >5. GLASS FLUSH; FROSTED LIP 0.4 PROUD (0.3-0.5).</text>
<text class="tx" x="196" y="50.7" font-size="2.1" text-anchor="start" >6. INPUTS: TOUCH, 1 FLUSH BUTTON, IMU, BACK TOUCH.</text>
<text class="tx" x="196" y="54.1" font-size="2.1" text-anchor="start" >7. CHARGING: POGO PADS ON BACK (MAGNETIC DOCK).</text>
<text class="tx" x="196" y="57.5" font-size="2.1" text-anchor="start" >   USB-C ONLY ON DEV UNITS, UNDER THE STRAP BAR.</text>
<text class="tx" x="196" y="60.9" font-size="2.1" text-anchor="start" >8. SECTION A-A: SHEET 2 · PARTS LIST: SHEET 3.</text>
<text class="ta" x="196" y="65.5" font-size="2.1" text-anchor="start" >(V) VERIFIED STEP  (K) SPEC SHEET  (E) ESTIMATE</text>
<text class="tx" x="312" y="18" font-size="3" text-anchor="start" font-weight="bold" >REAR VIEW KEY</text>
<circle class="bal" cx="314.2" cy="23.6" r="2" />
<text class="tx" x="314.2" y="24.5" font-size="2.4" text-anchor="middle" font-weight="bold" >a</text>
<text class="tx" x="318" y="23.6" font-size="2.1" text-anchor="start" >2× CHARGE PAD Ø2.5 Au, flush</text>
<text class="td" x="318" y="26.8" font-size="2" text-anchor="start" >on CL at y −15 / −19 (E)</text>
<circle class="bal" cx="314.2" cy="30.6" r="2" />
<text class="tx" x="314.2" y="31.5" font-size="2.4" text-anchor="middle" font-weight="bold" >b</text>
<text class="tx" x="318" y="30.6" font-size="2.1" text-anchor="start" >4× M1.6×4 TORX, battery access</text>
<text class="td" x="318" y="33.8" font-size="2" text-anchor="start" >(±18, 22) (±15, −24) (E)</text>
<circle class="bal" cx="314.2" cy="37.6" r="2" />
<text class="tx" x="314.2" y="38.5" font-size="2.4" text-anchor="middle" font-weight="bold" >c</text>
<text class="tx" x="318" y="37.6" font-size="2.1" text-anchor="start" >STRAP BAR POCKET 10×3.5</text>
<text class="td" x="318" y="40.8" font-size="2" text-anchor="start" >Ø1.6 SS bar across (E)</text>
<circle class="bal" cx="314.2" cy="44.6" r="2" />
<text class="tx" x="314.2" y="45.5" font-size="2.4" text-anchor="middle" font-weight="bold" >d</text>
<text class="tx" x="318" y="44.6" font-size="2.1" text-anchor="start" >BALLAST / CLIP PLATE Ø24</text>
<text class="td" x="318" y="47.8" font-size="2" text-anchor="start" >SUS430 magnetic, hidden (E)</text>
<circle class="bal" cx="314.2" cy="51.6" r="2" />
<text class="tx" x="314.2" y="52.5" font-size="2.4" text-anchor="middle" font-weight="bold" >e</text>
<text class="tx" x="318" y="51.6" font-size="2.1" text-anchor="start" >2× BACK-TOUCH ELECTRODE</text>
<text class="td" x="318" y="54.8" font-size="2" text-anchor="start" >Cu foil inside shell, hidden</text>
<circle class="bal" cx="314.2" cy="58.6" r="2" />
<text class="tx" x="314.2" y="59.5" font-size="2.4" text-anchor="middle" font-weight="bold" >f</text>
<text class="tx" x="318" y="58.6" font-size="2.1" text-anchor="start" >DOME CONTOURS, 1 mm STEPS</text>
<text class="td" x="318" y="61.8" font-size="2" text-anchor="start" >sphere R80, apex at body CL</text>
<circle class="bal" cx="314.2" cy="65.6" r="2" />
<text class="tx" x="314.2" y="66.5" font-size="2.4" text-anchor="middle" font-weight="bold" >g</text>
<text class="tx" x="318" y="65.6" font-size="2.1" text-anchor="start" >REGULATORY MARK ZONE 16×3.5</text>
<text class="td" x="318" y="68.8" font-size="2" text-anchor="start" >laser mark (E)</text>
<text class="tx" x="16" y="247" font-size="2.8" text-anchor="start" font-weight="bold" >KEY DATA · PRODUCTION TARGET</text>
<line class="fr1" x1="16" y1="255.3" x2="230" y2="255.3" />
<text class="td" x="16" y="253" font-size="2.3" text-anchor="start" >ENVELOPE</text>
<text class="tx" x="52" y="253" font-size="2.5" text-anchor="start" >68.0 × 60.0 × 19.0 (+0.4 lip) · edge ≈12 · R80 back</text>
<line class="fr1" x1="16" y1="262.3" x2="230" y2="262.3" />
<text class="td" x="16" y="260" font-size="2.3" text-anchor="start" >MASS</text>
<text class="tx" x="52" y="260" font-size="2.5" text-anchor="start" >target 75-90 g · parts-list estimate ≈73 g (E)</text>
<line class="fr1" x1="16" y1="269.3" x2="230" y2="269.3" />
<text class="td" x="16" y="267" font-size="2.3" text-anchor="start" >BATTERY</text>
<text class="tx" x="52" y="267" font-size="2.5" text-anchor="start" >1000 mAh LiPo 523450, 5.2×34×50, ~19 g (K)</text>
<line class="fr1" x1="16" y1="276.3" x2="230" y2="276.3" />
<text class="td" x="16" y="274" font-size="2.3" text-anchor="start" >AUDIO / HAPTIC</text>
<text class="tx" x="52" y="274" font-size="2.5" text-anchor="start" >sealed 1813 speaker + LRA Ø10 in the lower lobe (E)</text>
<line class="fr1" x1="16" y1="283.3" x2="230" y2="283.3" />
<text class="td" x="16" y="281" font-size="2.3" text-anchor="start" >RADIO</text>
<text class="tx" x="52" y="281" font-size="2.5" text-anchor="start" >ESP32-S3 Wi-Fi / BLE · antenna keep-out at top edge</text>
<rect class="tbf" x="240" y="241" width="170" height="46" rx="0" />
<line class="fr2t" x1="332" y1="241" x2="332" y2="287" />
<line class="fr2t" x1="371" y1="241" x2="371" y2="287" />
<line class="fr2t" x1="240" y1="258" x2="410" y2="258" />
<line class="fr2t" x1="240" y1="273" x2="410" y2="273" />
<text class="tx" x="243" y="253.8" font-size="10.5" text-anchor="start" font-weight="bold" letter-spacing="1.2">SOUL</text>
<text class="td" x="276" y="248.2" font-size="2.3" text-anchor="start" >palm-sized AI companion</text>
<text class="td" x="276" y="252" font-size="2.3" text-anchor="start" >round AMOLED · two living eyes</text>
<text class="td" x="276" y="255.8" font-size="2.3" text-anchor="start" >DWG SOUL-GA-001</text>
<text class="td" x="241.4" y="261" font-size="1.8" text-anchor="start" >TITLE</text>
<text class="tx" x="241.4" y="266.3" font-size="3.3" text-anchor="start" font-weight="bold" >GENERAL ARRANGEMENT</text>
<text class="tx" x="241.4" y="271" font-size="2.5" text-anchor="start" >PRODUCTION TARGET · 68 × 60 × 19</text>
<text class="td" x="241.4" y="276" font-size="1.8" text-anchor="start" >MATERIAL / FINISH</text>
<text class="tx" x="241.4" y="280.6" font-size="2.6" text-anchor="start" >see notes &amp; parts list</text>
<text class="td" x="241.4" y="284.6" font-size="2.1" text-anchor="start" >tol. unless noted ±0.2 · (E) = estimate</text>
<text class="td" x="333.4" y="244" font-size="1.8" text-anchor="start" >SCALE</text>
<text class="tx" x="333.4" y="249.3" font-size="3.3" text-anchor="start" font-weight="bold" >2:1</text>
<text class="td" x="372.4" y="244" font-size="1.8" text-anchor="start" >UNITS</text>
<text class="tx" x="372.4" y="249.3" font-size="3.3" text-anchor="start" font-weight="bold" >mm</text>
<text class="td" x="333.4" y="261" font-size="1.8" text-anchor="start" >REV</text>
<text class="tx" x="333.4" y="266.3" font-size="3.3" text-anchor="start" font-weight="bold" >A</text>
<text class="td" x="372.4" y="261" font-size="1.8" text-anchor="start" >DATE</text>
<text class="tx" x="372.4" y="266" font-size="3" text-anchor="start" font-weight="bold" >2026-09-24</text>
<text class="td" x="333.4" y="276" font-size="1.8" text-anchor="start" >SHEET</text>
<text class="tx" x="333.4" y="281.3" font-size="3.3" text-anchor="start" font-weight="bold" >1 / 4</text>
<text class="td" x="372.4" y="276" font-size="1.8" text-anchor="start" >SIZE / PROJ.</text>
<text class="tx" x="372.4" y="281.3" font-size="3.3" text-anchor="start" font-weight="bold" >A3</text>
<path class="o2" d="M389 283.688 L394.76 285.2 L394.76 280.16 L389 281.672 Z" />
<circle class="o2" cx="398.72" cy="282.68" r="2.52" />
<circle class="o2" cx="398.72" cy="282.68" r="1.008" />
<line class="c" x1="387.92" y1="282.68" x2="402.32" y2="282.68" />
<line class="c" x1="398.72" y1="279.08" x2="398.72" y2="286.28" />
</svg>
