DBRep_DrawableShape

CASCADE Topology V3, (c) Open Cascade
Locations 0
Curve2ds 24
1 0 0 0 -1 
1 4.0000000000000062 8.8817841970012523e-16 0 -1 
1 4 0 0 -1 
1 0 0 0 -1 
1 1.9999999999999962 -2.0000000000000018 0 1 
1 0 0 1 0 
1 1.9999999999999962 -2.0000000000000018 0 1 
1 0 -2.0000000000000004 1 0 
1 4.0000000000000062 -8.8817841970012523e-16 0 -1 
1 0 0 0 -1 
1 1.9999999999999962 1.9999999999999982 -1 0 
1 0 0 1 0 
1 1.9999999999999962 1.9999999999999982 -1 0 
1 7.7715611723760958e-16 -2.0000000000000004 1 0 
1 4 0 0 -1 
1 0 0 0 -1 
1 -2.0000000000000102 1.9999999999999982 -0 -1 
1 0 0 1 0 
1 -2.0000000000000102 1.9999999999999982 -0 -1 
1 0 -2.0000000000000004 1 0 
1 -2.0000000000000102 -2.0000000000000018 1 0 
1 0 0 1 0 
1 -2.0000000000000102 -2.0000000000000018 1 0 
1 -7.7715611723760958e-16 -2.0000000000000004 1 0 
Curves 12
1 -13.584511408999067 0.64206633767826993 54.111362959873034 0 -0.9911434396119978 0.13279564041826891 
1 -9.5845114089990666 0.64206633767826993 54.111362959873034 0 -0.9911434396119978 0.13279564041826891 
1 -13.584511408999067 0.64206633767826993 54.111362959873034 1 0 0 
1 -13.584511408999067 -1.3402205415457256 54.376954240709573 1 0 0 
1 -9.5845114089990666 1.1732488993513455 58.075936718321032 0 -0.9911434396119978 0.13279564041826891 
1 -9.5845114089990666 0.64206633767826993 54.111362959873034 0 0.13279564041826891 0.9911434396119978 
1 -9.5845114089990666 -1.3402205415457256 54.376954240709573 0 0.13279564041826891 0.9911434396119978 
1 -13.584511408999067 1.1732488993513455 58.075936718321032 0 -0.9911434396119978 0.13279564041826891 
1 -9.5845114089990666 1.1732488993513455 58.075936718321032 -1 0 0 
1 -9.5845114089990666 -0.80903797987265014 58.34152799915757 -1 0 0 
1 -13.584511408999067 1.1732488993513455 58.075936718321032 0 -0.13279564041826891 -0.9911434396119978 
1 -13.584511408999067 -0.80903797987265014 58.34152799915757 0 -0.13279564041826891 -0.9911434396119978 
Polygon3D 0
PolygonOnTriangulations 0
Surfaces 6
1 -13.584511408999067 0.64206633767826993 54.111362959873034 -0 0.13279564041826891 0.9911434396119978 1 0 0 0 0.9911434396119978 -0.13279564041826891 
1 -13.584511408999067 1.1732488993513455 58.075936718321032 1 0 0 0 -0.13279564041826891 -0.9911434396119978 0 0.9911434396119978 -0.13279564041826891 
1 -9.5845114089990666 0.64206633767826993 54.111362959873034 -1 0 0 0 0.13279564041826891 0.9911434396119978 0 0.9911434396119978 -0.13279564041826891 
1 -11.584511408999065 0.90765761851480764 56.093649839097026 -0 -0.9911434396119978 0.13279564041826872 0 -0.13279564041826872 -0.9911434396119978 1 0 0 
1 -11.584511408999065 -1.0746292607091879 56.359241119933564 -0 -0.9911434396119978 0.13279564041826872 0 -0.13279564041826872 -0.9911434396119978 1 0 0 
1 -9.5845114089990666 1.1732488993513455 58.075936718321032 -0 -0.13279564041826891 -0.9911434396119978 -1 0 0 0 0.9911434396119978 -0.13279564041826891 
Triangulations 0

TShapes 34
Ve
1e-07
-13.5845114089991 0.64206633767827 54.111362959873
0 0

0101101
*
Ve
1e-07
-13.5845114089991 -1.34022054154573 54.3769542407096
0 0

0101101
*
Ed
 1e-07 1 1 0
1  1 0 0 2
2  1 1 0 0 2
2  2 2 0 0 2
0

0101000
+34 0 -33 0 *
Ve
1e-07
-9.58451140899907 0.64206633767827 54.111362959873
0 0

0101101
*
Ve
1e-07
-9.58451140899907 -1.34022054154573 54.3769542407096
0 0

0101101
*
Ed
 1e-07 1 1 0
1  2 0 0 2
2  3 1 0 0 2
2  4 3 0 0 2
0

0101000
+31 0 -30 0 *
Ed
 1e-07 1 1 0
1  3 0 0 4
2  5 4 0 0 4
2  6 1 0 0 4
0

0101000
+34 0 -31 0 *
Ed
 1e-07 1 1 0
1  4 0 0 4
2  7 5 0 0 4
2  8 1 0 0 4
0

0101000
+33 0 -30 0 *
Wi

0101100
+32 0 -29 0 -28 0 +27 0 *
Fa
0  1e-07 1 0

0101000
+26 0 *
Ve
1e-07
-9.58451140899907 1.17324889935135 58.075936718321
0 0

0101101
*
Ve
1e-07
-9.58451140899907 -0.80903797987265 58.3415279991576
0 0

0101101
*
Ed
 1e-07 1 1 0
1  5 0 0 2
2  9 3 0 0 2
2  10 6 0 0 2
0

0101000
+24 0 -23 0 *
Ed
 1e-07 1 1 0
1  6 0 0 4
2  11 4 0 0 4
2  12 3 0 0 4
0

0101000
+31 0 -24 0 *
Ed
 1e-07 1 1 0
1  7 0 0 4
2  13 5 0 0 4
2  14 3 0 0 4
0

0101000
+30 0 -23 0 *
Wi

0101100
+29 0 -22 0 -21 0 +20 0 *
Fa
0  1e-07 3 0

0101000
+19 0 *
Ve
1e-07
-13.5845114089991 1.17324889935135 58.075936718321
0 0

0101101
*
Ve
1e-07
-13.5845114089991 -0.80903797987265 58.3415279991576
0 0

0101101
*
Ed
 1e-07 1 1 0
1  8 0 0 2
2  15 6 0 0 2
2  16 2 0 0 2
0

0101000
+17 0 -16 0 *
Ed
 1e-07 1 1 0
1  9 0 0 4
2  17 4 0 0 4
2  18 6 0 0 4
0

0101000
+24 0 -17 0 *
Ed
 1e-07 1 1 0
1  10 0 0 4
2  19 5 0 0 4
2  20 6 0 0 4
0

0101000
+23 0 -16 0 *
Wi

0101100
+22 0 -15 0 -14 0 +13 0 *
Fa
0  1e-07 6 0

0101000
+12 0 *
Ed
 1e-07 1 1 0
1  11 0 0 4
2  21 4 0 0 4
2  22 2 0 0 4
0

0101000
+17 0 -34 0 *
Ed
 1e-07 1 1 0
1  12 0 0 4
2  23 5 0 0 4
2  24 2 0 0 4
0

0101000
+16 0 -33 0 *
Wi

0101100
+15 0 -32 0 -10 0 +9 0 *
Fa
0  1e-07 2 0

0101000
+8 0 *
Wi

0101100
+28 0 +21 0 +14 0 +10 0 *
Fa
0  1e-07 4 0

0101000
+6 0 *
Wi

0101100
+27 0 +20 0 +13 0 +9 0 *
Fa
0  1e-07 5 0

0101000
+4 0 *
Sh

0101100
+25 0 +18 0 +11 0 +7 0 +5 0 -3 0 *
So

0100000
-2 0 *

+1 0 