DBRep_DrawableShape

CASCADE Topology V3, (c) Open Cascade
Locations 0
Curve2ds 6
1 0 0 0 -1 
1 6.2831853071795862 0 0 -1 
1 0 0 1 0 
2 7.1604439331756102e-15 1.491752871861189e-15 0 1 -1 0 22
1 0 -1.7999999999999989 1 0 
2 7.1604439331756102e-15 1.491752871861189e-15 0 1 -1 0 22
Curves 3
1 22 -1.3328088396278188 38.618500622229043 0 -0.9911434396119978 0.13279564041826891 
2 0 -1.3328088396278188 38.618500622229043 0 -0.9911434396119978 0.13279564041826891 1 0 0 0 0.13279564041826891 0.9911434396119978 22
2 0 -3.1168670309294138 38.857532774981927 0 -0.9911434396119978 0.13279564041826891 1 0 0 0 0.13279564041826891 0.9911434396119978 22
Polygon3D 0
PolygonOnTriangulations 0
Surfaces 3
2 0 -1.3328088396278188 38.618500622229043 -0 0.9911434396119978 -0.13279564041826891 1 0 0 0 0.13279564041826891 0.9911434396119978 22
1 -1.491752871861189e-15 -1.332808839627819 38.61850062222905 -0 -0.9911434396119978 0.13279564041826891 0 -0.13279564041826891 -0.9911434396119978 1 0 0 
1 -1.491752871861189e-15 -3.1168670309294138 38.857532774981934 -0 -0.9911434396119978 0.13279564041826891 0 -0.13279564041826891 -0.9911434396119978 1 0 0 
Triangulations 0

TShapes 13
Ve
1e-07
22 -1.33280883962782 38.618500622229
0 0

0101101
*
Ve
1.00000001332268e-07
22 -3.11686703092941 38.8575327749819
0 0

0101101
*
Ed
 1e-07 1 1 0
1  1 0 0 1.8
3  1 2CN 1 0 0 1.8
0

0101000
+13 0 -12 0 *
Ed
 1e-07 1 1 0
1  2 0 0 6.28318530717959
2  3 1 0 0 6.28318530717959
2  4 2 0 0 6.28318530717959
0

0101000
+13 0 -13 0 *
Ed
 1e-07 1 1 0
1  3 0 0 6.28318530717959
2  5 1 0 0 6.28318530717959
2  6 3 0 0 6.28318530717959
0

0101000
+12 0 -12 0 *
Wi

0101100
+11 0 -11 0 -10 0 +9 0 *
Fa
0  1e-07 1 0

0101000
+8 0 *
Wi

0101100
+10 0 *
Fa
0  1e-07 2 0

0101000
+6 0 *
Wi

0101100
+9 0 *
Fa
0  1e-07 3 0

0101000
+4 0 *
Sh

0101100
+7 0 +5 0 -3 0 *
So

0100000
-2 0 *

+1 0 