DBRep_DrawableShape

CASCADE Topology V3, (c) Open Cascade
Locations 0
Curve2ds 32
1 0 0 0 -1 
1 7.6500000000000039 4.4408920985006262e-16 0 -1 
1 4.2000000000000028 0 0 -1 
1 0 0 0 -1 
1 3.825000000000002 -2.100000000000005 0 1 
1 0 0 1 0 
1 3.8250000000000091 -2.1000000000000014 0 1 
1 3.825000000000002 -2.100000000000005 0 1 
1 0 -4.799999999999998 1 0 
1 -2.6699999999999982 -20.119999999999997 0 1 
1 -2.669999999999991 -20.120000000000001 0 1 
1 7.6500000000000039 -4.4408920985006262e-16 0 -1 
1 0 0 0 -1 
1 3.825000000000002 2.0999999999999979 -1 0 
1 0 0 1 0 
1 3.8250000000000091 2.1000000000000014 -1 0 
1 3.825000000000002 2.0999999999999979 -1 0 
1 -2.2204460492503131e-15 -4.7999999999999989 1 0 
1 -2.6699999999999982 -15.919999999999996 -1 0 
1 -2.669999999999991 -15.919999999999996 -1 0 
1 4.2000000000000028 0 0 -1 
1 0 0 0 -1 
1 -3.825000000000002 2.0999999999999979 -0 -1 
1 0 0 1 0 
1 -3.8249999999999944 2.1000000000000014 -0 -1 
1 -3.825000000000002 2.0999999999999979 -0 -1 
1 0 -4.7999999999999989 1 0 
1 -3.825000000000002 -2.100000000000005 1 0 
1 0 0 1 0 
1 -3.8249999999999944 -2.1000000000000014 1 0 
1 -3.825000000000002 -2.100000000000005 1 0 
1 2.2204460492503131e-15 -4.7999999999999989 1 0 
Curves 12
1 -20.120000000000001 1.9951858391249515 40.86646668473827 0 -0.9911434396119978 0.13279564041826891 
1 -15.919999999999998 1.9951858391249515 40.86646668473827 0 -0.9911434396119978 0.13279564041826891 
1 -20.120000000000001 1.9951858391249515 40.86646668473827 1 0 0 
1 -20.120000000000001 -2.762302671012637 41.503885758745959 1 0 0 
1 -15.919999999999998 3.0110724883247086 48.448713997770056 0 -0.9911434396119978 0.13279564041826891 
1 -15.919999999999998 1.9951858391249515 40.86646668473827 0 0.13279564041826891 0.9911434396119978 
1 -15.919999999999998 -2.762302671012637 41.503885758745959 0 0.13279564041826891 0.9911434396119978 
1 -20.120000000000001 3.0110724883247086 48.448713997770056 0 -0.9911434396119978 0.13279564041826891 
1 -15.919999999999998 3.0110724883247086 48.448713997770056 -1 0 0 
1 -15.919999999999998 -1.7464160218128799 49.086133071777745 -1 0 0 
1 -20.120000000000001 3.0110724883247086 48.448713997770056 0 -0.13279564041826891 -0.9911434396119978 
1 -20.120000000000001 -1.7464160218128799 49.086133071777745 0 -0.13279564041826891 -0.9911434396119978 
Polygon3D 0
PolygonOnTriangulations 0
Surfaces 9
1 -20.120000000000001 1.9951858391249515 40.86646668473827 -0 0.13279564041826891 0.9911434396119978 1 0 0 0 0.9911434396119978 -0.13279564041826891 
1 -20.120000000000001 3.0110724883247086 48.448713997770056 1 0 0 0 -0.13279564041826891 -0.9911434396119978 0 0.9911434396119978 -0.13279564041826891 
1 -15.919999999999998 1.9951858391249515 40.86646668473827 -1 0 0 0 0.13279564041826891 0.9911434396119978 0 0.9911434396119978 -0.13279564041826891 
1 -18.019999999999996 2.5031291637248301 44.657590341254163 -0 -0.9911434396119978 0.13279564041826888 0 -0.13279564041826888 -0.9911434396119978 1 0 0 
1 -18.02 2.5031291637248314 44.657590341254171 -0 -0.9911434396119978 0.13279564041826897 0 -0.13279564041826897 -0.9911434396119978 1 0 0 
1 -18.019999999999996 -2.2543593464127585 45.295009415261852 -0 -0.9911434396119978 0.13279564041826888 0 -0.13279564041826888 -0.9911434396119978 1 0 0 
1 -1.90252540179398e-15 -3.1168670309294146 38.857532774981927 -0 -0.9911434396119978 0.13279564041826891 0 -0.13279564041826891 -0.9911434396119978 1 0 0 
1 -1.491752871861189e-15 -3.1168670309294138 38.857532774981934 -0 -0.9911434396119978 0.13279564041826891 0 -0.13279564041826891 -0.9911434396119978 1 0 0 
1 -15.919999999999998 3.0110724883247086 48.448713997770056 -0 -0.13279564041826891 -0.9911434396119978 -1 0 0 0 0.9911434396119978 -0.13279564041826891 
Triangulations 0

TShapes 34
Ve
1.00000000888178e-07
-20.12 1.99518583912495 40.8664666847383
0 0

0101101
*
Ve
1.00000000888178e-07
-20.12 -2.76230267101264 41.503885758746
0 0

0101101
*
Ed
 1e-07 1 1 0
1  1 0 0 4.8
2  1 1 0 0 4.8
2  2 2 0 0 4.8
0

0101000
+34 0 -33 0 *
Ve
1.00000000444089e-07
-15.92 1.99518583912495 40.8664666847383
0 0

0101101
*
Ve
1.00000000444089e-07
-15.92 -2.76230267101264 41.503885758746
0 0

0101101
*
Ed
 1e-07 1 1 0
1  2 0 0 4.8
2  3 1 0 0 4.8
2  4 3 0 0 4.8
0

0101000
+31 0 -30 0 *
Ed
 1e-07 1 1 0
1  3 0 0 4.2
2  5 4 0 0 4.2
2  6 1 0 0 4.2
2  7 5 0 0 4.2
0

0101000
+34 0 -31 0 *
Ed
 1e-07 1 1 0
1  4 0 0 4.2
2  8 6 0 0 4.2
2  9 1 0 0 4.2
2  10 7 0 0 4.2
2  11 8 0 0 4.2
0

0101000
+33 0 -30 0 *
Wi

0101100
+32 0 -29 0 -28 0 +27 0 *
Fa
0  1e-07 1 0

0101000
+26 0 *
Ve
1.00000000888178e-07
-15.92 3.01107248832471 48.4487139977701
0 0

0101101
*
Ve
1.00000000666134e-07
-15.92 -1.74641602181288 49.0861330717777
0 0

0101101
*
Ed
 1e-07 1 1 0
1  5 0 0 4.8
2  12 3 0 0 4.8
2  13 9 0 0 4.8
0

0101000
+24 0 -23 0 *
Ed
 1.00000000444089e-07 1 1 0
1  6 0 0 7.65
2  14 4 0 0 7.65
2  15 3 0 0 7.65
2  16 5 0 0 7.65
0

0101000
+31 0 -24 0 *
Ed
 1.00000000444089e-07 1 1 0
1  7 0 0 7.65
2  17 6 0 0 7.65
2  18 3 0 0 7.65
2  19 7 0 0 7.65
2  20 8 0 0 7.65
0

0101000
+30 0 -23 0 *
Wi

0101100
+29 0 -22 0 -21 0 +20 0 *
Fa
0  1e-07 3 0

0101000
+19 0 *
Ve
1.00000000888178e-07
-20.12 3.01107248832471 48.4487139977701
0 0

0101101
*
Ve
1.00000000888178e-07
-20.12 -1.74641602181288 49.0861330717777
0 0

0101101
*
Ed
 1e-07 1 1 0
1  8 0 0 4.8
2  21 9 0 0 4.8
2  22 2 0 0 4.8
0

0101000
+17 0 -16 0 *
Ed
 1.00000000888178e-07 1 1 0
1  9 0 0 4.2
2  23 4 0 0 4.2
2  24 9 0 0 4.2
2  25 5 0 0 4.2
0

0101000
+24 0 -17 0 *
Ed
 1e-07 1 1 0
1  10 0 0 4.2
2  26 6 0 0 4.2
2  27 9 0 0 4.2
0

0101000
+23 0 -16 0 *
Wi

0101100
+22 0 -15 0 -14 0 +13 0 *
Fa
0  1e-07 9 0

0101000
+12 0 *
Ed
 1.00000000888178e-07 1 1 0
1  11 0 0 7.65
2  28 4 0 0 7.65
2  29 2 0 0 7.65
2  30 5 0 0 7.65
0

0101000
+17 0 -34 0 *
Ed
 1e-07 1 1 0
1  12 0 0 7.65
2  31 6 0 0 7.65
2  32 2 0 0 7.65
0

0101000
+16 0 -33 0 *
Wi

0101100
+15 0 -32 0 -10 0 +9 0 *
Fa
0  1e-07 2 0

0101000
+8 0 *
Wi

0101100
+28 0 +21 0 +14 0 +10 0 *
Fa
0  1e-07 4 0

0101000
+6 0 *
Wi

0101100
+27 0 +20 0 +13 0 +9 0 *
Fa
0  1e-07 6 0

0101000
+4 0 *
Sh

0101100
+25 0 +18 0 +11 0 +7 0 +5 0 -3 0 *
So

0100000
-2 0 *

+1 0 