DBRep_DrawableShape

CASCADE Topology V3, (c) Open Cascade
Locations 0
Curve2ds 24
1 0 0 0 -1 
1 8.2500000000000018 -4.4408920985006262e-16 -2.7755575615628907e-17 -1 
1 5.8000000000000043 0 0 -1 
1 0 0 2.7755575615628907e-17 -1 
1 4.1249999999999982 -2.8999999999999986 0 1 
1 0 0 1 0 
1 4.1249999999999982 -2.8999999999999986 0 1 
1 0 -2.3000000000000007 1 0 
1 8.2500000000000018 4.4408920985006262e-16 2.7755575615628907e-17 -1 
1 0 0 0 -1 
1 4.1249999999999982 2.9000000000000057 -1 0 
1 0 0 1 0 
1 4.1249999999999982 2.9000000000000057 -1 0 
1 -1.6653345369377348e-15 -2.3000000000000007 1 0 
1 5.8000000000000043 0 0 -1 
1 0 0 -2.7755575615628907e-17 -1 
1 -4.1250000000000018 2.9000000000000057 -0 -1 
1 0 0 1 0 
1 -4.1250000000000018 2.9000000000000057 -0 -1 
1 0 -2.3000000000000007 1 0 
1 -4.1250000000000018 -2.8999999999999986 1 0 
1 0 0 1 0 
1 -4.1250000000000018 -2.8999999999999986 1 0 
1 1.6653345369377348e-15 -2.3000000000000007 1 0 
Curves 12
1 -20.920000000000002 2.4687950405440908 27.081485933053091 0 -0.99114343961199769 0.13279564041826891 
1 -15.119999999999997 2.4687950405440908 27.081485933053091 0 -0.99114343961199769 0.13279564041826891 
1 -20.920000000000002 2.4687950405440908 27.081485933053091 1 0 0 
1 -20.920000000000002 0.18916512943649533 27.386915906015108 1 0 0 
1 -15.119999999999997 3.5643590739948099 35.258419309852073 0 -0.99114343961199769 0.13279564041826891 
1 -15.119999999999997 2.4687950405440908 27.081485933053091 0 0.13279564041826891 0.9911434396119978 
1 -15.119999999999997 0.18916512943649533 27.386915906015108 0 0.13279564041826891 0.9911434396119978 
1 -20.920000000000002 3.5643590739948099 35.258419309852073 0 -0.99114343961199769 0.13279564041826891 
1 -15.119999999999997 3.5643590739948099 35.258419309852073 -1 0 0 
1 -15.119999999999997 1.2847291628872144 35.56384928281409 -1 0 0 
1 -20.920000000000002 3.5643590739948099 35.258419309852073 0 -0.13279564041826891 -0.9911434396119978 
1 -20.920000000000002 1.2847291628872144 35.56384928281409 0 -0.13279564041826891 -0.9911434396119978 
Polygon3D 0
PolygonOnTriangulations 0
Surfaces 6
1 -20.920000000000002 2.4687950405440908 27.081485933053091 -0 0.13279564041826894 0.9911434396119978 1 0 0 0 0.9911434396119978 -0.13279564041826894 
1 -20.920000000000002 3.5643590739948099 35.258419309852073 1 0 0 0 -0.13279564041826891 -0.9911434396119978 0 0.9911434396119978 -0.13279564041826891 
1 -15.119999999999997 2.4687950405440908 27.081485933053091 -1 0 0 0 0.13279564041826891 0.9911434396119978 0 0.9911434396119978 -0.13279564041826891 
1 -18.020000000000003 3.0165770572694508 31.16995262145258 -0 -0.99114343961199769 0.13279564041826902 0 -0.13279564041826902 -0.99114343961199769 1 0 0 
1 -18.020000000000003 0.7369471461618553 31.475382594414597 -0 -0.99114343961199769 0.13279564041826902 0 -0.13279564041826902 -0.99114343961199769 1 0 0 
1 -15.119999999999997 3.5643590739948099 35.258419309852073 -0 -0.13279564041826894 -0.9911434396119978 -1 0 0 0 0.9911434396119978 -0.13279564041826894 
Triangulations 0

TShapes 34
Ve
1e-07
-20.92 2.46879504054409 27.0814859330531
0 0

0101101
*
Ve
1e-07
-20.92 0.189165129436495 27.3869159060151
0 0

0101101
*
Ed
 1e-07 1 1 0
1  1 0 0 2.3
2  1 1 0 0 2.3
2  2 2 0 0 2.3
0

0101000
+34 0 -33 0 *
Ve
1e-07
-15.12 2.46879504054409 27.0814859330531
0 0

0101101
*
Ve
1e-07
-15.12 0.189165129436495 27.3869159060151
0 0

0101101
*
Ed
 1e-07 1 1 0
1  2 0 0 2.3
2  3 1 0 0 2.3
2  4 3 0 0 2.3
0

0101000
+31 0 -30 0 *
Ed
 1e-07 1 1 0
1  3 0 0 5.8
2  5 4 0 0 5.8
2  6 1 0 0 5.8
0

0101000
+34 0 -31 0 *
Ed
 1e-07 1 1 0
1  4 0 0 5.8
2  7 5 0 0 5.8
2  8 1 0 0 5.8
0

0101000
+33 0 -30 0 *
Wi

0101100
+32 0 -29 0 -28 0 +27 0 *
Fa
0  1e-07 1 0

0101000
+26 0 *
Ve
1e-07
-15.12 3.56435907399481 35.2584193098521
0 0

0101101
*
Ve
1e-07
-15.12 1.28472916288721 35.5638492828141
0 0

0101101
*
Ed
 1e-07 1 1 0
1  5 0 0 2.3
2  9 3 0 0 2.3
2  10 6 0 0 2.3
0

0101000
+24 0 -23 0 *
Ed
 1e-07 1 1 0
1  6 0 0 8.25
2  11 4 0 0 8.25
2  12 3 0 0 8.25
0

0101000
+31 0 -24 0 *
Ed
 1e-07 1 1 0
1  7 0 0 8.25
2  13 5 0 0 8.25
2  14 3 0 0 8.25
0

0101000
+30 0 -23 0 *
Wi

0101100
+29 0 -22 0 -21 0 +20 0 *
Fa
0  1e-07 3 0

0101000
+19 0 *
Ve
1e-07
-20.92 3.56435907399481 35.2584193098521
0 0

0101101
*
Ve
1e-07
-20.92 1.28472916288721 35.5638492828141
0 0

0101101
*
Ed
 1e-07 1 1 0
1  8 0 0 2.3
2  15 6 0 0 2.3
2  16 2 0 0 2.3
0

0101000
+17 0 -16 0 *
Ed
 1e-07 1 1 0
1  9 0 0 5.8
2  17 4 0 0 5.8
2  18 6 0 0 5.8
0

0101000
+24 0 -17 0 *
Ed
 1e-07 1 1 0
1  10 0 0 5.8
2  19 5 0 0 5.8
2  20 6 0 0 5.8
0

0101000
+23 0 -16 0 *
Wi

0101100
+22 0 -15 0 -14 0 +13 0 *
Fa
0  1e-07 6 0

0101000
+12 0 *
Ed
 1e-07 1 1 0
1  11 0 0 8.25
2  21 4 0 0 8.25
2  22 2 0 0 8.25
0

0101000
+17 0 -34 0 *
Ed
 1e-07 1 1 0
1  12 0 0 8.25
2  23 5 0 0 8.25
2  24 2 0 0 8.25
0

0101000
+16 0 -33 0 *
Wi

0101100
+15 0 -32 0 -10 0 +9 0 *
Fa
0  1e-07 2 0

0101000
+8 0 *
Wi

0101100
+28 0 +21 0 +14 0 +10 0 *
Fa
0  1e-07 4 0

0101000
+6 0 *
Wi

0101100
+27 0 +20 0 +13 0 +9 0 *
Fa
0  1e-07 5 0

0101000
+4 0 *
Sh

0101100
+25 0 +18 0 +11 0 +7 0 +5 0 -3 0 *
So

0100000
-2 0 *

+1 0 