DBRep_DrawableShape

CASCADE Topology V3, (c) Open Cascade
Locations 0
Curve2ds 56
1 0 0 0 -1 
1 6.2831853071795862 0 0 -1 
1 0 0 1 0 
2 0 0 0 1 -1 0 2.5
1 0 -3.0000000000000004 1 0 
2 0 0 0 1 -1 0 2.5
2 -7.064718357738763e-15 0 0 1 1 -0 1.1000000000000001
1 6.2831853071795862 -0.20000000000000101 -1 0 
2 -1.7572160128037216e-17 0 0 1 1 -0 1.1000000000000001
1 6.2831853071795862 -3.2000000000000002 -1 0 
1 0 0 0 -1 
1 6.2831853071795862 0 0 -1 
1 0 0 1 0 
2 0 0 0 1 -1 0 2.5
1 0 0 0 -1 
1 6.2831853071795862 0 0 -1 
7 0 0  6 32 7  6.2831853071795862 -0.90913684554412244  6.263031154674346 -0.91803186108703061  6.2433552041882594 -0.93203241904744538  6.2244133902614269 -0.95090603150560127  6.2064458438905774 -0.97428884669822202  6.189672854540623 -1.0016865248618541  6.1662927725587435 -1.0484229655812631  6.1586745427405889 -1.0652968534443796  6.1514340015517179 -1.0830293061418412  6.1445872809105504 -1.1015517321241435  6.138148709218151 -1.1207940908570977  6.1162522715543375 -1.1931658930285822  6.1033054580710626 -1.2501472093538233  6.0934739521034418 -1.3104430176965354  6.0868814401408331 -1.3729177418669614  6.0835869279082919 -1.4364670557995161  6.0835869279082919 -1.5468538792403581  6.0853787023918491 -1.5937101215832989  6.0889627343017176 -1.6401342371563796  6.094321732840462 -1.685688924209902  6.1014206502399757 -1.729928661362  6.1178853800383095 -1.8095076985075806  6.1268562339556176 -1.8452827268127994  6.1370794503448822 -1.8793788752346081  6.1484994445349734 -1.9114602767585616  6.1610464876869537 -1.9411956503465817  6.1900057244602626 -1.9988560930287802  6.2067308890725412 -2.0260815520878936  6.2246388203053806 -2.0493184213641129  6.2435114992283278 -2.0680787941517833  6.263111361137736 -2.0820035379573234  6.2831853071795862 -2.0908631544558753 
 0 7 0.17332688613445674 5 0.26310966480248976 5 0.49999710770395062 5 0.67469538090593661 5 0.82737521549791937 5 1 7
7 0 0  6 32 7  0.17473913514388251 -2.4302285016681928  0.2600133325331242 -2.4302285016681928  0.34480461886321745 -2.4290099471707594  0.42905177727875332 -2.4266811662350487  0.51266870647603924 -2.4234512289532435  0.59552314267962358 -2.4196006682142155  0.71980278393173958 -2.4132471788065373  0.76199000337611611 -2.4109871160438776  0.80396700573421909 -2.4086722412295769  0.84574331426043481 -2.4063396006829785  0.88732637966618666 -2.4040248137942943  1.0379400220588755 -2.3957873262886125  1.145820474941726 -2.3901689693566941  1.2527312759515359 -2.3854951475257344  1.3589924870421428 -2.3822272672690104  1.4649080864607587 -2.3805942229644947  1.6488861255288281 -2.3805942229644947  1.7269798824217473 -2.3814821437176992  1.8052104801867366 -2.3832593885126419  1.8837069943529368 -2.3858561081882135  1.9626013910568032 -2.3891390940060346  2.1114574599804095 -2.3962237546826928  2.1813229156350178 -2.3999094941704926  2.2516677415665733 -2.4038499923682468  2.3225425559961161 -2.4078845279726275  2.3940113235257368 -2.4118337547364646  2.5477128293808735 -2.4196769250850148  2.6302501285711801 -2.4235023598005219  2.7135434618690062 -2.4267088452050545  2.7974615694226643 -2.4290196264090795  2.8819186824755758 -2.4302285016681928  2.9668535184459124 -2.4302285016681928 
 0 7 0.17332688613445674 5 0.26310966480248976 5 0.49999710770395062 5 0.67469538090593661 5 0.82737521549791937 5 1 7
1 0 -3.0000000000000004 1 0 
2 0 0 0 1 -1 0 2.5
7 0 0  4 5 2  0 -2.0908631544558753  0.010304268212952447 -2.095410933177341  0.02073618605407963 -2.0984709314880812  0.03123499892635806 -2.0999999999999988  0.041736416189863235 -2.0999999999999988 
 0 5 1 5
7 0 0  4 5 2  2.9668535184459124 -2.4302285016681928  3.0104518886236975 -2.4302285016681928  3.0541426365660636 -2.4298746286720663  3.0978748526212798 -2.4291468178967306  3.1415926535897931 -2.4280514071788195 
 0 5 1 5
1 6.2831853071795862 -2.0999999999999996 -1 0 
2 -0.10431075067533001 0.06977149833180718 0 -1 -1 -0 2.5
8 -2.3581630481639593 -0.40381841525987633
1 1.5428841032373026 -3.4694469519536142e-16 0 1 
8 -2.3581630481639593 -0.40381841525987633
1 -3.0622844173438395 1.3799091963482724 -0.039568986902361561 0.99921684096872632 
1 6.2831853071795862 -0.89999999999999836 -1 0 
2 10.904310750675327 0.06977149833180718 0 -1 1 0 2.5
7 0 0  4 5 2  0.041736416189863235 -0.89999999999999902  0.031234997998093803 -0.89999999999999902  0.020736194016194205 -0.90152906478234396  0.010304266595642941 -0.90458906753645474  0 -0.90913684554412255 
 0 5 1 5
7 0 0  4 5 2  0 -2.4280514071788195  0.043717804832912786 -2.4291468179935585  0.087449993052586841 -2.4298746298832059  0.13114077180909264 -2.4302285016681928  0.17473913514388251 -2.4302285016681928 
 0 5 1 5
2 -7.064718357738763e-15 0 0 1 1 -0 1.1000000000000001
1 6.2831853071795862 -0.20000000000000101 -1 0 
7 0 0  4 8 3  0.094970654242502617 -1.0999999999999988  0.086438449061531641 -1.0999999999999988  0.077909792251353208 -1.100193986623019  0.069389746253748247 -1.1005825446196937  0.045566206550601521 -1.1022153345063253  0.030293422970615339 -1.1038955972728857  0.015094945615921826 -1.1062055041558516  0 -1.1091368455441213 
 0 5 0.35705582135045921 3 1 5
7 0 0  4 8 3  0 -1.0252715452484669  0.015571886549703073 -1.0261615459758098  0.031154171619541964 -1.0269448866411033  0.046744632078795541 -1.0276210646921853  0.090425049000414093 -1.0292155834151668  0.11852827318552933 -1.0298943207144884  0.14663712869399614 -1.0302285016681929  0.17473913514387363 -1.0302285016681929 
 0 5 0.35705582135045921 3 1 5
7 0 0  5 34 9  6.2831853071795862 -1.1091368455441213  6.2492968417582651 -1.1157177676489138  6.2159187446718818 -1.1252309754634873  6.1832744172916225 -1.137603503576482  6.1515974556160771 -1.1526945561446917  6.0818238055213101 -1.1929891406126856  6.044534696634531 -1.2198543691497572  6.0096236240626641 -1.2505113973215385  5.9775024681450057 -1.2845399357566309  5.9234965173061287 -1.3535444861014956  5.9007867495975566 -1.3878597025796759  5.8807841658095095 -1.4240886749218953  5.8637731954473216 -1.4619160978505996  5.8365756095133872 -1.5391681749041939  5.8262240211234193 -1.5785390532604644  5.8192234425136355 -1.6187363421592491  5.8157181975656762 -1.6593510331662831  5.8157181975656762 -1.7403129513325821  5.8191657365492144 -1.7805925702322607  5.8260512506487281 -1.8204647602945885  5.8362349672364537 -1.8595304726920703  5.8635603450178877 -1.9378217217371321  5.8811313955938171 -1.9768859111462362  5.9018899802122196 -2.0142434289544981  5.9255226978148823 -2.0495476671552151  5.9803812068004145 -2.1185203025477635  6.0121652680381947 -2.1517653908577383  6.0466302588333196 -2.1817293801660189  6.0833842235328968 -2.2080123800592251  6.1523893280677955 -2.2476819163461879  6.1838863318810553 -2.2626280606812799  6.2163359519013444 -2.274887841703741  6.2495087782424106 -2.2843233890536956  6.2831853071795862 -2.290863154455876 
 0 6 0.11099534100346786 4 0.25419237846272447 4 0.37865942449907214 4 0.49999485930172294 4 0.62032730214403509 4 0.74884127838074299 4 0.88969312841550063 4 1 6
7 0 0  5 34 9  0.17473913514387363 -1.0302285016681929  0.23782872142512035 -1.0302285016681929  0.30084673190909561 -1.0286495236667204  0.36374412381509258 -1.0255859842876704  0.42645881994355966 -1.0212234347391156  0.56945279923216008 -1.0088399079241774  0.64954209088633419 -1.0001255758812664  0.72928253012740429 -0.99018787038914957  0.80877363018577153 -0.97966943883903579  0.95700612601160961 -0.96016222345554136  1.0258904708174428 -0.95114020269837329  1.0947541578075486 -0.94260261503937115  1.1636799054777553 -0.93498473392234482  1.3001556123883711 -0.92242654038065497  1.3677148020979315 -0.91742141358493801  1.435356533043411 -0.91394936957363815  1.5030480487387041 -0.91221229384805447  1.6379845790158691 -0.91221229384805447  1.7051176254427789 -0.91392078179916569  1.7722016666937916 -0.91733570856830349  1.839204521149721 -0.92226180962680693  1.9773813759848526 -0.93489408608262126  2.0485440423622139 -0.94276850356743869  2.1196421078545038 -0.95162198511827523  2.1907674738820884 -0.9609730973147852  2.33995944871018 -0.98061228965294678  2.4181641069493618 -0.99092131403716643  2.4966157754078657 -1.0006390317632852  2.5754067080019478 -1.0091563859515011  2.7167011752418424 -1.0213321391458625  2.7790273844154454 -1.0256432361176659  2.8415335896424296 -1.0286692090083918  2.9041584907537512 -1.0302285016681929  2.9668535184459195 -1.0302285016681929 
 0 6 0.11099534100346786 4 0.25419237846272447 4 0.37865942449907214 4 0.49999485930172294 4 0.62032730214403509 4 0.74884127838074299 4 0.88969312841550063 4 1 6
7 0 0  4 8 3  0 -2.290863154455876  0.015096552203030991 -2.293794807833033  0.030296658195584327 -2.2961048944205595  0.045571083100054983 -2.2977852019722493  0.069394644876403191 -2.2994176787614005  0.077913061300707118 -2.2998060877251216  0.086440084265831343 -2.2999999999999989  0.094970654242502617 -2.2999999999999989 
 0 5 0.64301260864728271 3 1 5
7 0 0  4 8 3  2.9668535184459195 -1.0302285016681929  2.9949585158520051 -1.0302285016681929  3.0230703637942655 -1.0298942495780061  3.0511765778528424 -1.0292153666823036  3.0948569852843981 -1.0276206759101489  3.1104444546871086 -1.0269445863812943  3.1260237514052456 -1.0261613754064218  3.1415926535897931 -1.0252715452484669 
 0 5 0.64301260864728271 3 1 5
1 3.1415926535897931 0 0 -1 
1 0 0 0 -1 
1 0 0 0 -1 
1 10.799999999999999 0 0 -1 
2 -1.7572160128037216e-17 0 0 1 1 -0 1.1000000000000001
1 6.2831853071795862 -3.2000000000000002 -1 0 
1 6.2831853071795862 -2.2999999999999989 -1 0 
2 -0.10431075067532999 0.06977149833180718 0 -1 -1 -0 1.1000000000000001
1 -5.3720295490897101 -0.81320263385398839 0.99921684096872632 0.039568986902361561 
1 0 0 1 0 
8 -2.5026738972987683 -0.54832926439469143
1 1.5073250838369594 3.8163916471489756e-16 0 1 
8 -2.5026738972987683 -0.54832926439469143
1 -4.4703420035008321 1.524306870506468 -0.039568986902361561 0.99921684096872632 
1 5.3720295490896959 0.81320263385398839 -0.99921684096872632 -0.039568986902361561 
1 0 0 1 0 
1 6.2831853071795862 -1.0999999999999976 -1 0 
2 10.90431075067532 0.06977149833180718 0 -1 1 0 1.1000000000000001
1 0 0 0 -1 
1 6.2831853071795862 0 0 -1 
Curves 28
1 -20.5 -4.4016252614530895 57.05935348035355 0 0.99921684096872621 -0.039568986902361554 
2 -23 -4.4016252614530895 57.05935348035355 0 0.99921684096872632 -0.039568986902361561 1 0 0 0 -0.039568986902361561 -0.99921684096872632 2.5
2 -23 -1.4039747385469106 56.940646519646464 0 0.99921684096872632 -0.039568986902361561 1 0 0 0 -0.039568986902361561 -0.99921684096872632 2.5
2 -23 -4.4016252614530886 57.059353480353543 0 -0.99921684096872632 0.039568986902361561 1 0 0 -0 0.039568986902361561 0.99921684096872632 1.1000000000000001
2 -23 -1.403974738546911 56.940646519646464 0 -0.99921684096872632 0.039568986902361561 1 0 0 -0 0.039568986902361561 0.99921684096872632 1.1000000000000001
1 -21.899999999999999 -4.6014686296468348 57.067267277734018 0 0.99921684096872621 -0.039568986902361561 
2 23 -4.4016252614530895 57.05935348035355 0 0.99921684096872632 -0.039568986902361561 1 0 0 0 -0.039568986902361561 -0.99921684096872632 2.5
1 25.5 -4.4016252614530895 57.05935348035355 0 0.99921684096872621 -0.039568986902361554 
7 0 0  6 32 7  25.5 -3.4932004146402185 57.023379856419758  25.5 -3.4823186668177959 57.073373811162966  25.498781445502562 -3.4663826803422659 57.121971166160229  25.49645266456686 -3.4456515335345235 57.168505048094104  25.493222727285051 -3.4205136706623316 57.212361635564982  25.489372166546023 -3.3914849944606211 57.253006193185783  25.483018677138343 -3.3424860445621936 57.309215244339157  25.480758614375684 -3.3248770441653464 57.32744472006015  25.478443739561385 -3.306448064440715 57.344682821377802  25.476111099014783 -3.2872691371233582 57.360894537550799  25.473796312126101 -3.2674115345954537 57.376050147566083  25.46555882462042 -3.1929550263949507 57.427261838863231  25.459940467688501 -3.1347566892028991 57.456866900937015  25.455266645857535 -3.0735532293155132 57.478594005156751  25.451998765600827 -3.0104882445708996 57.49226306024736  25.450365721296301 -2.9466692663872807 57.497814980049299  25.450365721296297 -2.8363688933841504 57.493447085278369  25.451253642049508 -2.7897230807114215 57.48720581455067  25.453030886844456 -2.7436828076453654 57.476593984540607  25.455627606520022 -2.6986838884778108 57.46165781249838  25.45891059233784 -2.6551689778100478 57.442478509740567  25.465995253014501 -2.5772566889701545 57.398813858365912  25.469680992502301 -2.5423850579128966 57.37529272847059  25.473621490700058 -2.5093149168789122 57.348708611721861  25.47765602630443 -2.4783771706975894 57.319193463385012  25.48160525306827 -2.449896589552671 57.286918255768711  25.489448423416825 -2.3951291631851621 57.212721058693297  25.49327385813233 -2.3695728198709283 57.170032818276262  25.496480343536859 -2.3481216580505118 57.124479285875367  25.49879112474089 -2.331241471301527 57.076628530584408  25.5 -2.3192664990996397 57.027116272003731  25.5 -2.3123995853597838 56.976620143580256 
 0 7 0.17332688613445674 5 0.26310966480248976 5 0.49999710770395062 5 0.67469538090593661 5 0.82737521549791937 5 1 7
2 23 -1.4039747385469106 56.940646519646464 0 0.99921684096872632 -0.039568986902361561 1 0 0 0 -0.039568986902361561 -0.99921684096872632 2.5
7 0 0  4 5 2  25.5 -2.3123995853597838 56.976620143580256  25.5 -2.3088746919071879 56.950699696752991  25.499646127003874 -2.3068490428772734 56.924519201186762  25.49891831622854 -2.3063594446896589 56.898239686876423  25.497822905510628 -2.307397366146013 56.87202954908971 
 0 5 1 5
2 23 -2.3032698954187651 56.97625860785859 0 -0.99921684096872632 0.039568986902361561 1 0 0 -0 0.039568986902361561 0.99921684096872632 2.5
1 23.069771498331807 -4.5005091963482737 54.562284417343839 -0 -0.99921684096872632 0.039568986902361561 
2 23 -3.5023301045812376 57.023741392141424 0 -0.99921684096872632 0.039568986902361561 1 0 0 -0 0.039568986902361561 0.99921684096872632 2.5
7 0 0  4 5 2  25.497822905510628 -3.5064575753084846 56.919512333372545  25.498918316325366 -3.5054196537603843 56.945722473476081  25.499646128215012 -3.5028535145946091 56.971880956909615  25.5 -3.4987639544893709 56.997819315597681  25.5 -3.4932004146402185 57.023379856419758 
 0 5 1 5
2 23 -4.4016252614530886 57.059353480353543 0 -0.99921684096872632 0.039568986902361561 1 0 0 -0 0.039568986902361561 0.99921684096872632 1.1000000000000001
7 0 0  4 8 3  24.095043043580276 -3.5064575753084846 56.919512333372545  24.095933044307618 -3.5060878770435262 56.928848148144212  24.096716384972908 -3.505524097152291 56.938182522557511  24.097392563023995 -3.5047659434788803 56.947508056282963  24.098987081746976 -3.5020994129298888 56.973580301888433  24.099665819046294 -3.499756107045215 56.990290558801966  24.100000000000001 -3.4967864811979124 57.006904410368527  24.100000000000001 -3.4932004146402198 57.023379856419758 
 0 5 0.35705582135045921 3 1 5
7 0 0  5 34 9  24.100000000000001 -3.4932004146402198 57.023379856419758  24.100000000000001 -3.4851496209751707 57.060367573899114  24.098421021998526 -3.4741910494006771 57.096678371018179  24.09535748261948 -3.4604108788651549 57.13198001674828  24.090994933070924 -3.4439627967301969 57.165949754360987  24.078611406255984 -3.4007026003381555 57.240041424127071  24.069897074213074 -3.3722701818473082 57.279085204860358  24.059959368720957 -3.3401673826944904 57.314987801695999  24.049440937170843 -3.3048300202847734 57.34736541104126  24.029933721787348 -3.2336591989591579 57.400703468810455  24.020911701030183 -3.1984484667688906 57.422638326817101  24.012374113371177 -3.1614451158155128 57.441476289601411  24.004756232254152 -3.122970961818857 57.457059192653652  23.992198038712463 -3.0447049294754827 57.481135132279277  23.987192911916743 -3.0049600685734683 57.489799897940941  23.983720867905447 -2.9645223080173007 57.495076820004165  23.981983792179861 -2.9238032108140595 57.496909484248597  23.981983792179861 -2.842904698705162 57.493705903169086  23.983692280130978 -2.8027905963823883 57.488728967598234  23.987107206900106 -2.7632171167071804 57.480396615902066  23.992033307958614 -2.7245802053505837 57.468795108689221  24.004665584414429 -2.6474294991482505 57.438443962271869  24.012540001899247 -2.609094428935459 57.419258693398561  24.02139348345008 -2.5725993967819352 57.396739363526372  24.030744595646595 -2.5382833188528737 57.371087071227095  24.050383787984757 -2.4716224718238706 57.311343453990659  24.060692812368973 -2.4397260883353717 57.276627256538951  24.070410530095092 -2.4112374967353842 57.238776684074352  24.07892788428331 -2.3865410592271417 57.19819177784467  24.091103637477673 -2.3498672064765831 57.121758054563855  24.09541473444947 -2.3362939628785431 57.0867930263014  24.098440707340199 -2.3254527067420891 57.050729042222521  24.100000000000001 -2.3174684283399509 57.013894085817128  24.100000000000001 -2.312399585359783 56.976620143580249 
 0 6 0.11099534100346786 4 0.25419237846272447 4 0.37865942449907214 4 0.49999485930172294 4 0.62032730214403509 4 0.74884127838074299 4 0.88969312841550063 4 1 6
7 0 0  4 8 3  24.100000000000001 -2.312399585359783 56.976620143580249  24.100000000000001 -2.3101273187374769 56.959910938904152  24.09966574790981 -2.3084806401922338 56.943112488766985  24.098986865014112 -2.3074660789305637 56.926267456709937  24.097392174241957 -2.3068699005743807 56.900065993983837  24.096716084713098 -2.3068516249018534 56.890711506216313  24.095932873738231 -2.3070277387340381 56.881363574644624  24.095043043580276 -2.307397366146013 56.87202954908971 
 0 5 0.64301260864728271 3 1 5
1 23.069771498331807 -2.307397366146013 56.87202954908971 1 0 0 
1 23.069771498331807 -3.5064575753084846 56.919512333372545 1 0 0 
2 23 -1.403974738546911 56.940646519646464 0 -0.99921684096872632 0.039568986902361561 1 0 0 -0 0.039568986902361561 0.99921684096872632 1.1000000000000001
2 23 -2.3032698954187656 56.97625860785859 0 -0.99921684096872632 0.039568986902361561 1 0 0 -0 0.039568986902361561 0.99921684096872632 1.1000000000000001
1 23.069771498331807 -2.307397366146013 56.87202954908971 0 -0.039568986902361561 -0.99921684096872632 
1 23.069771498331807 -4.6449068705064693 55.970342003500832 -0 -0.99921684096872632 0.039568986902361561 
1 23.069771498331807 -3.9338026338539898 46.127970450910304 0 0.039568986902361561 0.99921684096872632 
2 23 -3.5023301045812385 57.023741392141417 0 -0.99921684096872632 0.039568986902361561 1 0 0 -0 0.039568986902361561 0.99921684096872632 1.1000000000000001
1 24.100000000000001 -4.6014686296468348 57.067267277734018 0 0.99921684096872621 -0.039568986902361561 
Polygon3D 0
PolygonOnTriangulations 0
Surfaces 12
2 -23 -4.4016252614530895 57.05935348035355 -0 -0.99921684096872632 0.039568986902361561 1 0 0 0 -0.039568986902361561 -0.99921684096872632 2.5
1 -23 -4.4016252614530895 57.05935348035355 0 0.99921684096872632 -0.039568986902361547 0 0.039568986902361547 0.99921684096872632 1 -0 0 
1 -23 -1.4039747385469106 56.940646519646464 0 0.99921684096872632 -0.039568986902361547 0 0.039568986902361547 0.99921684096872632 1 -0 0 
2 -23 -4.6014686296468348 57.067267277734018 -0 -0.99921684096872632 0.039568986902361561 1 0 0 0 -0.039568986902361561 -0.99921684096872632 1.1000000000000001
2 23 -4.4016252614530895 57.05935348035355 -0 -0.99921684096872632 0.039568986902361561 1 0 0 0 -0.039568986902361561 -0.99921684096872632 2.5
1 23 -4.4016252614530895 57.05935348035355 0 0.99921684096872632 -0.039568986902361547 0 0.039568986902361547 0.99921684096872632 1 -0 0 
2 23.069771498331807 -2.9069274707272488 56.895770941231127 -1 0 0 0 -0.99921684096872632 0.039568986902361561 0 0.039568986902361561 0.99921684096872632 0.59999999999999998
1 23 -1.4039747385469106 56.940646519646464 0 0.99921684096872632 -0.039568986902361547 0 0.039568986902361547 0.99921684096872632 1 -0 0 
1 23.069771498331807 -2.307397366146013 56.87202954908971 0 0.99921684096872632 -0.039568986902361561 0 -0.039568986902361561 -0.99921684096872632 -1 0 -0 
1 23.069771498331807 -3.1206000000000014 51.5 -1 -0 -0 0 0 -1 0 -1 0 
1 23.069771498331807 -3.9338026338539898 46.127970450910304 0 -0.99921684096872632 0.039568986902361561 0 0.039568986902361561 0.99921684096872632 -1 0 0 
2 23 -4.6014686296468348 57.067267277734018 -0 -0.99921684096872632 0.039568986902361561 1 0 0 0 -0.039568986902361561 -0.99921684096872632 1.1000000000000001
Triangulations 0

TShapes 83
Ve
1e-07
-20.5 -4.40162526145309 57.0593534803536
0 0

0101101
*
Ve
1e-07
-20.5 -1.40397473854691 56.9406465196465
0 0

0101101
*
Ed
 1e-07 1 1 0
1  1 0 0 3
3  1 2CN 1 0 0 3
0

0101000
+83 0 -82 0 *
Ed
 1e-07 1 1 0
1  2 0 0 6.28318530717959
2  3 1 0 0 6.28318530717959
2  4 2 0 0 6.28318530717959
0

0101000
+83 0 -83 0 *
Ed
 1e-07 1 1 0
1  3 0 0 6.28318530717959
2  5 1 0 0 6.28318530717959
2  6 3 0 0 6.28318530717959
0

0101000
+82 0 -82 0 *
Wi

0101100
+81 0 -81 0 -80 0 +79 0 *
Fa
0  1e-07 1 0

0101000
+78 0 *
Wi

0101100
+80 0 *
Ve
1.00000000888178e-07
-21.9 -4.40162526145309 57.0593534803535
0 0

0101101
*
Ed
 1e-07 1 1 0
1  4 0 0 6.28318530717959
2  7 2 0 0 6.28318530717959
2  8 4 0 0 6.28318530717959
0

0101100
+75 0 -75 0 *
Wi

0101100
+74 0 *
Fa
0  1e-07 2 0

0101000
+76 0 +73 0 *
Wi

0101100
+79 0 *
Ve
1.00000000444089e-07
-21.9 -1.40397473854691 56.9406465196465
0 0

0101101
*
Ed
 1e-07 1 1 0
1  5 0 0 6.28318530717959
2  9 3 0 0 6.28318530717959
2  10 4 0 0 6.28318530717959
0

0101100
+70 0 -70 0 *
Wi

0101100
+69 0 *
Fa
0  1e-07 3 0

0101000
+71 0 +68 0 *
Ed
 1e-07 1 1 0
1  6 0 0.2 3.2
3  11 12CN 4 0 0.2 3.2
0

0101000
+75 0 -70 0 *
Wi

0101100
+74 0 -66 0 -69 0 +66 0 *
Fa
0  1e-07 4 0

0101000
+65 0 *
Sh

0101100
-77 0 -72 0 +67 0 +64 0 *
So

0100000
+63 0 *
Ve
1e-07
25.5 -4.40162526145309 57.0593534803536
0 0

0101101
*
Ed
 1e-07 1 1 0
1  7 0 0 6.28318530717959
2  13 5 0 0 6.28318530717959
2  14 6 0 0 6.28318530717959
0

0101000
+61 0 -61 0 *
Ve
1.00000079366582e-07
25.5 -3.4932004146403 57.0233798564198
0 0

0101101
*
Ed
 1e-07 1 1 0
1  8 0 0 0.909136845544044
3  15 16CN 5 0 0 0.909136845544044
0

0101000
+61 0 -59 0 *
Ve
1.0000007860379e-07
25.5 -2.31239958535971 56.9766201435803
0 0

0101101
*
Ed
 1e-07 1 1 0
1  9 0 0 1
2  17 5 0 0 1
2  18 7 0 0 1
0

0101000
+59 0 -57 0 *
Ve
1e-07
25.5 -1.40397473854691 56.9406465196465
0 0

0101101
*
Ed
 1e-07 1 1 0
1  8 0 2.09086315445595 3
3  15 16CN 5 0 2.09086315445595 3
0

0101000
+57 0 -55 0 *
Ed
 1e-07 1 1 0
1  10 0 0 6.28318530717959
2  19 5 0 0 6.28318530717959
2  20 8 0 0 6.28318530717959
0

0101000
+55 0 -55 0 *
Ve
1.00000071408661e-07
25.4978229055106 -2.30739736614601 56.8720295490897
0 0

0101101
*
Ed
 1e-07 1 1 0
1  11 0 0 1
2  21 5 0 0 1
2  22 7 0 0 1
0

0101000
+57 0 -52 0 *
Ve
1.0000007108896e-07
23.0697714983318 -2.40215383031395 54.4791895448489
0 0

0101101
*
Ed
 1e-07 1 1 0
1  12 0 4.74030120394228 6.24144889098972
2  23 5 0 4.74030120394228 6.24144889098972
2  24 9 0 4.74030120394228 6.24144889098972
0

0101000
+50 0 -52 0 *
Ve
1.00000213359332e-07
23.0697714983318 -3.60121403947641 54.5266723291319
0 0

0101101
*
Ed
 1e-07 1 1 0
1  13 0 -2.1 -0.899999999999998
2  25 5 0 -2.1 -0.899999999999998
2  26 10 0 -2.1 -0.899999999999998
0

0101000
+50 0 -48 0 *
Ve
1.00000071414185e-07
25.4978229055106 -3.50645757530848 56.9195123333725
0 0

0101101
*
Ed
 1e-07 1 1 0
1  14 0 4.74030120394228 6.24144889098972
2  27 5 0 4.74030120394228 6.24144889098972
2  28 11 0 4.74030120394228 6.24144889098972
0

0101000
+48 0 -46 0 *
Ed
 1e-07 1 1 0
1  15 0 0 1
2  29 5 0 0 1
2  30 7 0 0 1
0

0101000
+46 0 -59 0 *
Wi

0101100
-60 0 -58 0 -56 0 -54 0 +53 0 +54 0 -51 0 +49 0 -47 0 -45 0 
-44 0 +58 0 *
Fa
0  1e-07 5 0

0101000
+43 0 *
Wi

0101100
+60 0 *
Ve
1.00000000888178e-07
24.1 -4.40162526145309 57.0593534803535
0 0

0101101
*
Ed
 1e-07 1 1 0
1  16 0 0 6.28318530717959
2  31 6 0 0 6.28318530717959
2  32 12 0 0 6.28318530717959
0

0101100
+40 0 -40 0 *
Wi

0101100
+39 0 *
Fa
0  1e-07 6 0

0101000
+41 0 +38 0 *
Ve
1.00000142108547e-07
24.0950430435801 -3.50645757530848 56.9195123333725
0 0

0101101
*
Ve
1.00000199966423e-07
24.1 -3.49320041464002 57.0233798564198
0 0

0101101
*
Ed
 1e-07 1 1 0
1  17 0 0 1
2  33 12 0 0 1
2  34 7 0 0 1
0

0101000
+36 0 -35 0 *
Ve
1.00000199966423e-07
24.1 -2.31239958535998 56.9766201435803
0 0

0101101
*
Ed
 1e-07 1 1 0
1  18 0 0 1
2  35 12 0 0 1
2  36 7 0 0 1
0

0101000
+35 0 -33 0 *
Ve
1.00000142108547e-07
24.0950430435801 -2.30739736614601 56.8720295490897
0 0

0101101
*
Ed
 1e-07 1 1 0
1  19 0 0 1
2  37 12 0 0 1
2  38 7 0 0 1
0

0101000
+33 0 -31 0 *
Ed
 1e-07 1 1 0
1  20 0 1.02527154524833 2.42805140717875
2  39 7 0 1.02527154524833 2.42805140717875
4 G1 7 0 9 0
2  40 9 0 1.02527154524833 2.42805140717875
0

0101000
+31 0 -52 0 *
Ed
 1e-07 1 1 0
1  21 0 1.02527154524833 2.42805140717875
2  41 7 0 1.02527154524833 2.42805140717875
4 G1 11 0 7 0
2  42 11 0 1.02527154524833 2.42805140717875
0

0101000
+36 0 -46 0 *
Wi

0101100
-34 0 -32 0 -30 0 -29 0 +51 0 +56 0 +44 0 +28 0 *
Fa
0  1e-07 7 0

0101000
+27 0 *
Wi

0101100
+53 0 *
Ve
1.00000000444089e-07
24.1 -1.40397473854691 56.9406465196465
0 0

0101101
*
Ed
 1e-07 1 1 0
1  22 0 0 6.28318530717959
2  43 8 0 0 6.28318530717959
2  44 12 0 0 6.28318530717959
0

0101100
+24 0 -24 0 *
Wi

0101100
+23 0 *
Fa
0  1e-07 8 0

0101000
+25 0 +22 0 *
Ve
1.00000135294968e-07
23.0697714983318 -2.34670813627839 55.8793333336255
0 0

0101101
*
Ed
 1e-07 1 1 0
1  23 0 4.77586022334263 6.18821465293707
2  45 12 0 4.77586022334263 6.18821465293707
2  46 9 0 4.77586022334263 6.18821465293707
0

0101000
+20 0 -31 0 *
Ed
 1e-07 1 1 0
1  24 0 0.993474263806209 2.39471544727062
2  47 10 0 0.993474263806209 2.39471544727062
2  48 9 0 0.993474263806209 2.39471544727062
0

0101000
+20 0 -50 0 *
Wi

0101100
+19 0 -18 0 -49 0 +29 0 *
Fa
0  1e-07 9 0

0101000
+17 0 *
Ve
1.00000527222179e-07
23.0697714983318 -3.54576834544085 55.9268161179088
0 0

0101101
*
Ed
 1e-07 1 1 0
1  25 0 -2.3 -1.1
2  49 12 0 -2.3 -1.1
2  50 10 0 -2.3 -1.1
0

0101000
+20 0 -15 0 *
Ed
 1e-07 1 1 0
1  26 0 8.40528455272952 9.80652573619417
2  51 10 0 8.40528455272952 9.80652573619417
2  52 11 0 8.40528455272952 9.80652573619417
0

0101000
+48 0 -15 0 *
Wi

0101100
+47 0 +18 0 -14 0 +13 0 *
Fa
0  1e-07 10 0

0101000
+12 0 *
Ed
 1e-07 1 1 0
1  27 0 4.77586022334266 6.18821465293707
2  53 12 0 4.77586022334266 6.18821465293707
2  54 11 0 4.77586022334266 6.18821465293707
0

0101000
+15 0 -36 0 *
Wi

0101100
-13 0 -10 0 -28 0 +45 0 *
Fa
0  1e-07 11 0

0101000
+9 0 *
Ed
 1e-07 1 1 0
1  28 0 0.2 1.10913684554432
3  55 56CN 12 0 0.2 1.10913684554432
0

0101000
+40 0 -35 0 *
Ed
 1e-07 1 1 0
1  28 0 2.29086315445568 3.2
3  55 56CN 12 0 2.29086315445568 3.2
0

0101000
+33 0 -24 0 *
Wi

0101100
+39 0 -7 0 -32 0 -6 0 -23 0 +6 0 -30 0 +19 0 -14 0 -10 0 
-34 0 +7 0 *
Fa
0  1e-07 12 0

0101000
+5 0 *
Sh

0101100
-42 0 -37 0 -26 0 +21 0 -16 0 -11 0 -8 0 +4 0 *
So

0100000
+3 0 *
Co

1100000
+62 0 +2 0 *

+1 0 