DBRep_DrawableShape

CASCADE Topology V3, (c) Open Cascade
Locations 0
Curve2ds 6
1 0 0 0 -1 
1 6.2831853071795862 0 0 -1 
1 0 0 1 0 
2 0 0 0 1 -1 0 1.75
1 0 -3.5299999999999994 1 0 
2 0 0 0 1 -1 0 1.75
Curves 3
1 -18.75 0.3818693109009379 38.388764164305449 0 -0.9911434396119978 0.13279564041826891 
2 -20.5 0.3818693109009379 38.388764164305449 0 -0.9911434396119978 0.13279564041826891 1 0 0 0 0.13279564041826891 0.9911434396119978 1.75
2 -20.5 -3.1168670309294138 38.857532774981941 0 -0.9911434396119978 0.13279564041826891 1 0 0 0 0.13279564041826891 0.9911434396119978 1.75
Polygon3D 0
PolygonOnTriangulations 0
Surfaces 3
2 -20.5 0.3818693109009379 38.388764164305449 -0 0.9911434396119978 -0.13279564041826891 1 0 0 0 0.13279564041826891 0.9911434396119978 1.75
1 -20.5 0.38186931090093795 38.388764164305449 -0 -0.9911434396119978 0.13279564041826883 0 -0.13279564041826883 -0.9911434396119978 1 0 0 
1 -20.5 -3.1168670309294138 38.857532774981941 -0 -0.9911434396119978 0.13279564041826883 0 -0.13279564041826883 -0.9911434396119978 1 0 0 
Triangulations 0

TShapes 13
Ve
1e-07
-18.75 0.381869310900938 38.3887641643054
0 0

0101101
*
Ve
1e-07
-18.75 -3.11686703092941 38.8575327749819
0 0

0101101
*
Ed
 1e-07 1 1 0
1  1 0 0 3.53
3  1 2CN 1 0 0 3.53
0

0101000
+13 0 -12 0 *
Ed
 1e-07 1 1 0
1  2 0 0 6.28318530717959
2  3 1 0 0 6.28318530717959
2  4 2 0 0 6.28318530717959
0

0101000
+13 0 -13 0 *
Ed
 1e-07 1 1 0
1  3 0 0 6.28318530717959
2  5 1 0 0 6.28318530717959
2  6 3 0 0 6.28318530717959
0

0101000
+12 0 -12 0 *
Wi

0101100
+11 0 -11 0 -10 0 +9 0 *
Fa
0  1e-07 1 0

0101000
+8 0 *
Wi

0101100
+10 0 *
Fa
0  1e-07 2 0

0101000
+6 0 *
Wi

0101100
+9 0 *
Fa
0  1e-07 3 0

0101000
+4 0 *
Sh

0101100
+7 0 +5 0 -3 0 *
So

0100000
-2 0 *

+1 0 